<?xml version="1.0" encoding="utf-8"?>
<!-- Generator: Adobe Illustrator 27.2.0, SVG Export Plug-In . SVG Version: 6.00 Build 0)  -->
<svg version="1.1" id="圖層_1" xmlns="http://www.w3.org/2000/svg" xmlns:xlink="http://www.w3.org/1999/xlink" x="0px" y="0px"
	 viewBox="0 0 1374.1 312.8" style="enable-background:new 0 0 1374.1 312.8;" xml:space="preserve">
<style type="text/css">
	.st0{fill-rule:evenodd;clip-rule:evenodd;fill:#053A7A;}
	.st1{fill-rule:evenodd;clip-rule:evenodd;fill:#809FC7;}
	.st2{fill-rule:evenodd;clip-rule:evenodd;fill:#FFFFFF;}
	.st3{fill-rule:evenodd;clip-rule:evenodd;fill:#CAD4E2;}
	.st4{fill-rule:evenodd;clip-rule:evenodd;fill:#053A7C;}
	.st5{fill-rule:evenodd;clip-rule:evenodd;fill:none;stroke:#000000;stroke-width:0.5669;stroke-miterlimit:22.9256;}
</style>
<g>
	<path class="st0" d="M128.5,40.3c0.1,0,0.1,0.1,0.1,0.2c-0.1,0.1-0.2,0.2-0.2,0.3c-0.1,0.3,0,0.3,0.1,0.1c0,0,0-0.1,0-0.1
		c0-0.1,0.1-0.2,0.2-0.3c0.1,0.1,0.1,0.2,0.1,0.3c-0.2,0.3-0.1,0.5,0.2,0.5c0.1,0,0.2,0,0.4-0.1c0.7-0.4,1.4-0.7,2.1-1.1
		c0.1,0,0.1-0.1,0.1-0.2c0-0.8-0.1-1.6-0.4-2.3c0-0.1-0.2-0.2-0.3-0.1c-0.2,0.2-0.4,0.5-0.7,0.7c-0.1,0.1-0.1,0.1-0.2,0.1
		c0,0,0-0.1,0-0.2l0.7-1c0.1-0.1,0-0.1-0.1-0.1c-0.8,0.3-1.6,0.7-2.3,1.1c-0.1,0.1-0.2,0.1-0.3,0c-0.6-0.2-1-0.5-1.4-0.9
		c0,0-0.1-0.1-0.1-0.2c-0.1-0.4-0.3-0.8-0.6-1.4c-1.4-2.3-2.4-4.8-2.9-7.5c0-0.2-0.1-0.2-0.2,0l-0.3,0.5c0,0,0,0.1,0,0.2
		c0.1,0.3-0.1,0.6-0.3,0.9c-0.7,0.6-1.6,1.2-2.4,1.9c0,0-0.1,0.1,0,0.1c0.1,0.2,0.2,0.4,0.2,0.6c0,0.3,0,0.5,0,0.5
		c0,0.4,0.1,0.8,0.1,1.1c0,0.1,0.1,0.1,0.1,0.1l1.2-0.5c0.1-0.1,0.3-0.1,0.5-0.1l1.1,0.2c0.1,0,0.1,0,0.2,0.1
		c0.3,0.5,0.8,0.6,1.3,0.4c0.1,0,0.2,0,0.2,0c0,0.1-0.1,0.2-0.2,0.3c-0.1,0.1-0.2,0.2-0.3,0.3c-0.3,0.2-0.4,0.4-0.3,0.5
		c0,0.1,0.1,0.2,0,0.2c0,0.4-0.1,0.9-0.3,1.3c-0.1,0.3-0.3,0.7-0.6,0.9c-0.6,0.5-1.2,1.1-1.8,1.6c-0.1,0.1-0.1,0.2-0.1,0.3
		c0.5,1.1,0.7,2.3,0.7,3.5c0,0.1,0.1,0.1,0.1,0.1c0.8-0.3,1.6-0.7,2.3-1.2c0,0,0.1,0,0.2-0.1c0.2-0.1,0.3-0.2,0.3-0.5
		c0-0.1,0.2-0.2,0.3-0.2c0.2,0,0.4,0,0.4-0.3c0-0.1,0-0.1,0.1-0.1c0.2-0.1,0.3,0.1,0.3,0.4c-0.1,0.6-0.2,1-0.2,1.1
		c-0.2,0.4-0.2,0.7-0.1,1.2c0,0.1,0,0.2,0,0.3c-0.2,0.4-0.4,0.8-0.5,1.2c-0.1,0.4-0.3,0.7-0.6,0.9c-0.3,0.3-0.6,0.5-0.9,0.7
		c-0.5,0.3-0.8,0.6-0.9,0.7c-1.2,1-2.5,2-3.8,2.9c-0.4,0.3-0.8,0.7-1.4,1.3c-0.6,0.6-1.1,1-1.6,1.2c-1.6,0.8-3,0.6-4.1-0.7
		c-0.1-0.1-0.2-0.3-0.3-0.5c-0.1-0.2-0.2-0.4-0.3-0.5c-0.1-0.2-0.2-0.4-0.1-0.6c0.1-0.2,0.3-0.4,0.6-0.4c0.4-0.1,0.8-0.3,1.3-0.6
		c0.3-0.2,0.7-0.4,1.2-0.8c1.1-0.9,2.3-1.7,3.5-2.5c0.3-0.2,0.4-0.4,0.4-0.8c-0.1-1.1-0.4-2.2-0.8-3.4c0-0.1-0.1-0.1-0.2-0.1
		c-0.9,0.7-1.9,1.3-2.9,1.9c-0.4,0.2-0.8,0.3-1.2,0.1c-1.4-0.6-2.2-1.6-2.4-3.1c0-0.1,0-0.1,0.1-0.1c1.8-0.7,3.5-1.7,5.1-2.9
		c0.3-0.2,0.5-0.5,0.5-0.9c0-0.8-0.1-1.7-0.3-2.6c-0.1-0.4-0.3-0.5-0.7-0.3c-0.6,0.3-1.3,0.4-2,0.3c-0.1,0-0.1,0-0.2,0
		c-1.4,0.3-2.4-0.1-3.2-1.2c-0.3-0.4-0.4-0.9-0.4-1.4c0-0.3,0.1-0.5,0.4-0.6c0.3-0.1,0.5-0.2,0.9-0.3c0.5-0.1,0.8-0.2,0.9-0.2
		c0.8-0.2,1.5-0.5,2.1-0.9c1-0.7,2-1.3,3-2.1c0.9-0.7,1.6-1.1,2.1-1.3c0.4-0.2,0.8-0.2,1.3-0.1c0.1,0,0.3,0,0.7,0
		c0.2,0,0.4,0.1,0.6,0.2c0,0,0.1,0.1,0.4,0.2c0.2,0.1,0.3,0.2,0.3,0.4c0,0.1,0.1,0.1,0.1,0.2c0.3,0.1,0.5,0.1,0.7-0.1
		c0.1,0,0.1-0.1,0.1-0.2c-0.1-0.4-0.1-0.8,0.2-1.1c0-0.1,0.1-0.1,0.1-0.2c0.1-0.7,0.5-1.3,1.2-1.6c1.4-0.7,2.8-1.1,4.1-1.3
		c1.1-0.2,2-0.5,2.8-0.9c0.5-0.2,0.7-0.4,0.7-0.4c1.5-0.7,3.1-1.3,4.7-1.7c0.2-0.1,0.6-0.3,1.1-0.6c0.2-0.1,0.4-0.2,0.6-0.1
		c0.3,0,0.5,0,0.6,0c0.6,0,1,0.2,1.3,0.7c0.3,0.4,0.6,0.6,0.9,0.6c0.3,0,0.5,0.2,0.5,0.5c0.2,1.2,0.2,2.4,0.3,3.5
		c0,0.5-0.1,1-0.2,1.6c-0.4,1.5-0.7,3-0.8,4.5c0,0.2-0.1,0.6-0.3,0.9c-0.2,0.6-0.3,1.2-0.2,1.8c0,0.1,0,0.1,0,0.2
		c-0.2,0.5-0.4,1-0.4,1.6c0,0.1,0,0.1-0.1,0.2c-0.4,0.3-0.8,0.4-1.2,0.4c-0.5,0-0.7,0-0.8,0c-0.5,0.1-1,0.1-1.5,0.2
		c-0.1,0-0.1,0-0.2,0.1l-0.5,0.8c0,0.1-0.1,0.1-0.1,0c0-0.4-0.1-0.7-0.3-1c0-0.1,0-0.1,0-0.2c0-0.2,0-0.4-0.1-0.6
		c0-0.1-0.1-0.1-0.1-0.1c-0.2,0.1-0.2,0.2-0.1,0.5c0.3,0.9,0.5,1.8,0.7,2.7c0,0.2,0.2,0.2,0.3,0.2c0.9-0.5,1.9-0.8,2.8-1
		c0.1,0,0.1,0,0-0.1c-0.3-0.2-0.2-0.4,0.2-0.4c0.1,0,0.1,0,0.1-0.1c0.1-0.2,0.2-0.3,0.5-0.2c0.2,0.1,0.3,0.1,0.4,0.2
		c0.9,0.2,1.9,0.3,2.8,0.3c0.4,0,0.4,0.1,0.2,0.2c0,0-0.1,0-0.2,0c-0.7,0.1-0.7,0.4-0.2,0.8c0,0,0,0.1,0,0.1
		c-0.2,0.1-0.3,0.3-0.3,0.5c0,0.1,0,0.1-0.1,0.2l-0.5,0.4c0,0-0.1,0.1,0,0.2c0.1,0.2,0,0.3-0.1,0.4c0,0-0.1,0.1-0.1,0.2l-0.2,0.3
		c0,0-0.1,0.1-0.2,0.1c-1.1,0-1.9,0.1-2.2,0.2c-1.1,0.4-2.2,0.8-3.3,1.1c-0.1,0-0.1,0.1-0.1,0.1c0,0,0.1,0,0.2,0
		c0.4-0.1,0.6-0.1,0.6,0.1c0.3,0.7,0.4,1.4,0.5,2.1c0,0.2,0.2,0.3,0.4,0.3c1.4-0.3,2.8-0.7,4.1-1.1c0.5-0.2,1.3-0.3,2.3-0.3
		c0.3,0,0.6,0,1,0.1c0.2,0.1,0.4,0.1,0.7,0.1c0.2,0,0.4,0.1,0.6,0.2c0.3,0.1,0.7,0.3,1,0.4c0.3,0.1,0.6,0.2,1,0.4
		c0.6,0.3,1.3,0.6,2,0.7c0.1,0,0.1,0.1,0.2,0.1c0.1,0.2,0.1,0.3-0.2,0.3c-0.1,0-0.2,0-0.3,0c-0.1,0-0.2,0.1-0.3,0.2
		c0,0-0.1,0.1-0.2,0.1c-0.3,0.1-0.3,0.2-0.1,0.4c0.1,0.1,0,0.3-0.1,0.4l-0.8,0.3c-0.1,0-0.1,0.1,0,0.1c0.3,0.5,0.3,1,0.1,1.6
		c0,0.1-0.1,0.1-0.1,0.1c-0.8-0.1-2.1-0.2-3.7-0.5c-0.8-0.1-1.6-0.2-2.5-0.1c-0.7,0-1.5,0.2-2.5,0.5c-3.4,1-5.4,1.6-6,1.8
		c-2.4,1-4.8,1.8-7.3,2.4c-0.4,0.1-0.8,0.1-1.1,0c-0.5-0.2-1-0.6-1.3-1.1c-0.3-0.4-0.3-0.8-0.1-1.1c0.1-0.1,0.2-0.1,0.2,0
		c0.1,0.2,0.2,0.3,0.3,0.3c0.1,0,0.1,0,0.1-0.1c0-0.5,0-0.9,0.2-1.3c0,0,0-0.1,0-0.1c-0.2-0.6-0.1-0.7,0.2-0.5
		c0.1,0.1,0.1,0.1,0.2,0.1c0.3,0,0.6,0,0.8-0.3c0,0,0.1-0.1,0.2-0.1l0.4-0.3c0,0,0.1,0,0.1,0c0.1,0.1,0.3,0.2,0.5,0.1
		c0.5-0.2,0.9-0.4,1.3-0.5c0.5-0.3,1-0.4,1.5-0.5c0.2,0,0.8-0.3,1.7-0.8c0.3-0.2,0.5-0.3,0.6-0.6c0.1-0.2,0.2-0.3,0.3-0.5
		c0.1-0.2,0.1-0.4,0.1-0.6c0-0.6-0.1-1.2-0.2-1.8c0-0.1-0.1-0.2-0.3-0.1c-1.1,0.6-2.2,1.1-3.3,1.6c-0.4,0.2-0.8,0.2-1,0.2
		c-0.4-0.1-0.7-0.4-0.8-0.9c0-0.2,0-0.5,0.1-0.8c0.1-0.3,0.2-0.5,0.3-0.8c0.1-0.3,0.3-0.7,0.6-1C128,40.9,128.2,40.6,128.5,40.3
		L128.5,40.3z M133.9,26.2c0,0.2,0,0.3-0.1,0.4c-0.1,0.2,0,0.3,0.2,0.2c0.5-0.1,0.9-0.2,1.4-0.2c0.1,0,0.1,0,0.2,0
		c0.3,0.2,0.5,0.4,0.7,0.6c0.1,0.2,0.2,0.2,0.3-0.1c0.2-1.3,0.3-2.6,0.2-4c0-0.1-0.1-0.2-0.3-0.2l-2.6,0.9c-0.2,0.1-0.3,0.3-0.2,0.5
		C133.9,25.1,134,25.7,133.9,26.2L133.9,26.2z M128.9,26c-1.4,0.3-2.7,0.4-4.1,0.5c-0.1,0-0.1,0.1-0.1,0.1l1.4,3.5
		c0,0.1,0.1,0.1,0.2,0.1l3.3-1.4c0.1,0,0.1-0.1,0.1-0.2l-0.5-2.5C129,26.1,129,26,128.9,26L128.9,26z M122.7,28.1
		c0.3,0.1,0.3,0,0.2-0.4c-0.1-0.1-0.2-0.2-0.4-0.1c-0.6,0.4-0.6,0.6,0,0.5C122.6,28,122.7,28,122.7,28.1L122.7,28.1z M135.6,29
		l-1.4,0.5c-0.1,0-0.1,0.1-0.1,0.2l0.1,0.3c0,0.1,0,0.1,0,0.2c-0.3,0.5-0.3,1,0,1.4c0,0.1,0.1,0.1,0.2,0.1l1.3-0.3
		c0.1,0,0.1-0.1,0.1-0.1c0.3-0.8,0.4-1.6,0.4-2.4c0-0.4-0.1-0.5-0.4-0.2c-0.1,0.1-0.1,0.2-0.2,0.3C135.7,29,135.7,29,135.6,29
		L135.6,29z M129.9,31.6l-2.7,1.4c-0.1,0.1-0.2,0.3,0,0.4c0.4,0.4,0.7,0.8,0.9,1.4c0.1,0.4,0.4,0.4,0.7,0.2l1.4-1
		c0.1-0.1,0.2-0.3,0.1-0.7l-0.2-1.6C130.1,31.6,130,31.5,129.9,31.6z"/>
	<g>
		<path class="st0" d="M195.5,45.1c-1-0.7-2.1-1-3.3-1.1c-0.2,0-0.2,0.2-0.1,0.3c0.2,0.1,0.4,0.1,0.6-0.1c0.1,0,0.1,0,0,0
			c-0.1,0.3-0.4,0.3-0.6,0l-0.6-0.5c-0.7-0.1-1.1-0.1-1.3-0.2c-0.1-0.1-0.1-0.2,0-0.3c-1.4-0.3-2.8-0.5-4.2-0.7c-0.1,0-0.2,0-0.3,0
			c-0.9,0-0.9,0.1,0,0.4c0.3,0.2,0.6,0.4,0.9,0.4c0.3,0.2,0.6,0.3,0.9,0.4c2.1,0.5,3.8,0.8,5.2,1.1c0.1-0.1,0.1-0.2,0-0.3
			c0,0-0.1-0.1,0-0.1c0-0.1,0.1-0.1,0.1,0.1l1.8,0.6c0.1,0,0.1,0,0.2,0.1l0.6,0.2c0.1,0,0.1-0.1,0.1-0.2
			C195.5,45.2,195.5,45.1,195.5,45.1L195.5,45.1z M177.5,41.1c0,0.1-0.2,0.1-0.5,0.1c-0.3,0-0.5-0.1-0.5-0.2c0-0.1,0.2-0.1,0.5-0.1
			C177.2,41,177.5,41,177.5,41.1L177.5,41.1z M196.6,45.5c0.4,0,0.6,0.2,0.7,0.5c0.1,0,0.2,0.1,0.2,0.2c0,0.1,0.1,0.1,0.1,0.1
			l2.5,1.1c0.1,0,0.1,0,0.2,0c0.4-0.1,0.8,0,1.1,0.1c0.1,0,0.1,0.1,0.1,0.2l0.1,1.2c0,0.1,0,0.1-0.1,0.2l-0.8,0.3
			c-0.1,0-0.1,0.1-0.1,0.1c-0.1,0.3-0.2,0.7-0.4,1c0,0-0.1,0.1-0.1,0.3c-0.1,0.2-0.2,0.2-0.4,0c0-0.1-0.1-0.1-0.2-0.1
			c-0.6,0.1-1,0.3-1.2,0.8c-0.2,0.3-0.4,0.4-0.7,0.3c-0.2-0.1-0.4-0.1-0.7-0.2c-0.3,0-0.5-0.1-0.7-0.2c-0.8-0.3-1.6-0.6-2.4-0.9
			c0,0-0.6-0.2-1.8-0.7c-0.7-0.3-1.6-0.5-2.5-0.7c-1.4-0.3-2.3-0.4-2.5-0.4c-0.7-0.1-1.3-0.2-1.9-0.3c-1-0.2-1.6-0.4-1.9-0.4
			c-0.7-0.1-1.3-0.3-2-0.4c-0.1,0-0.1,0-0.2,0c-0.6,0.2-1.1,0.3-1.4,0.3c-0.4,0-0.7,0.1-0.9,0.3c0,0-0.1,0.1-0.1,0.2
			c-0.1,0.3-0.4,0.5-0.7,0.7c-0.1,0-0.1,0-0.2,0c-0.8-0.3-1.4-1-1.7-1.8c0-0.1-0.1-0.2-0.3-0.2c-0.6-0.1-1.3-0.2-1.9-0.1
			c-1.2,0-2.5,0.1-3.7,0.1c-0.7,0-1.5,0.2-2.5,0.5c-0.9,0.3-1.5,0.4-1.9,0.3c-0.8-0.1-1.5-0.5-2-1.1c0-0.1-0.1-0.1-0.2-0.1
			c-0.3,0-0.5-0.2-0.5-0.5c0-0.1,0-0.1,0.1-0.2c0.1-0.2,0.2-0.3,0.2-0.6c0-0.2,0-0.4,0-0.4c0-0.3,0.1-0.6,0.1-1
			c0.1-1.3,0.7-2.1,1.9-2.5c0.1,0,0.1-0.1,0.1-0.1c0-0.1,0-0.1-0.1-0.2c0-0.1,0-0.1,0-0.2c0.1-0.2,0.1-0.4,0-0.6
			c0-0.1-0.1-0.1,0-0.2c0-0.1,0.1-0.2,0.3-0.2c0.1,0,0.2,0,0.3,0.1c0.6,0.3,1.3,0.4,2,0.4c0.1,0,0.1,0,0.1,0.1l0,0.1
			c0,0.1,0.1,0.1,0.1,0.1c0.5,0,1,0,1.5,0c0.8-0.1,1.2-0.1,1.2-0.1c0.6,0,1,0,1.2,0c0.6,0.1,1.2,0.2,1.7,0.1c0.6-0.1,0.9,0,1,0.1
			c0.1,0.1,0.1,0.2,0,0.2c0,0-0.1,0.1-0.2,0.1c-0.3,0-0.5,0-0.8,0c-0.1,0-0.4,0-0.8,0c-0.3,0-0.6-0.1-0.9-0.2c-0.1,0-0.1-0.1-0.2,0
			l-2.2,0.2c-0.1,0-0.1,0-0.2,0.1c-0.1,0.1,0,0.1,0.2,0.1c0.3,0,0.6,0,0.9-0.1c0.1,0,0.1,0,0.2,0c0.2,0.1,0.2,0.2-0.2,0.2
			c-0.5,0.1-0.5,0.2,0,0.2c0.9,0.1,1.9,0.1,2.8,0c0.6-0.1,1.2-0.1,1.6-0.1c1,0.1,2.1,0.2,3.1,0.3c0.2,0,0.3-0.1,0.3-0.2
			c0.1-0.3,0.2-0.5,0.4-0.7c0.1,0,0.1-0.1,0.1-0.2c0-0.2,0-0.4,0-0.6c0.4-1.2,0.9-2.5,1.3-4c0.1-0.3,0-0.5-0.4-0.4
			c-0.1,0-0.2,0.1-0.5,0.2c0,0-0.1,0.1-0.3,0.2c-0.2,0.1-0.4,0.1-0.6,0.1c-0.4,0-0.6-0.1-0.6-0.1c-0.5,0-1,0-1.6,0
			c-0.8,0-1.5-0.4-2-1.1c-0.2-0.2-0.3-0.4-0.4-0.6c0,0-0.1-0.2-0.3-0.4c-0.1-0.2-0.2-0.5-0.1-0.7c0-0.1,0-0.2-0.1-0.3
			c-0.4-0.3-0.5-0.6-0.3-1.1c0-0.1,0.1-0.2,0.2-0.3c0.1-0.1,0.2-0.2,0.2-0.3c0.2-1.2,0.4-2.4,0.7-3.6c0-0.1,0.1-0.1,0.1-0.1
			c0.2,0,0.3-0.2,0.4-0.4c0-0.1,0.1-0.1,0.1-0.1c2.3,0.3,4.6,0.5,6.9,0.6c1.1,0,2.2,0.1,3.4,0.1c1.1,0.1,2.3,0.1,3.4,0.1
			c0,0,0.4,0,1.2-0.1c0.6,0,1.1,0,1.6,0.2c0.4,0.2,0.8,0.5,1.3,0.9c0.7,0.7,1.2,1.5,1.6,2.4c0.1,0.2,0,0.4-0.1,0.6
			c0,0-0.1,0.1,0,0.2l0.4,1.1c0,0.1-0.1,0.3-0.2,0.3c-0.4-0.1-0.6,0.1-0.6,0.4c0,0.1-0.1,0.1-0.1,0.2c-0.2,0.1-0.4,0.3-0.5,0.5
			c0,0-0.1,0.1-0.2,0.1l-0.4,0c-0.1,0-0.1,0.1-0.1,0.1c-0.1,0.2-0.2,0.3-0.4,0.3c-0.2,0-0.4,0.1-0.4,0.1c-0.1,0-0.2,0.1-0.3,0.1
			c-0.1,0-0.2,0.1-0.3,0.1c-1.2,0-2.4-0.1-3.5,0c-0.1,0-0.1,0-0.1,0.1c-0.1,1-0.3,1.7-0.5,2.1c-0.8,1.3-1.4,2.8-1.9,4.3
			c0,0.1,0,0.2,0.2,0.2c2.5,0.3,5,0.8,7.5,1.4c1.3,0.3,2.3,0.7,3.1,1.1c0.2,0.1,0.4,0.2,0.5,0.2c0.1,0,0.2,0,0.2,0.1
			c0.2,0.2,0.2,0.2-0.3,0.1c-0.1,0-0.1,0-0.2,0.1L196.6,45.5z M196.6,45.5l-0.1,0.1C196.6,45.6,196.6,45.5,196.6,45.5L196.6,45.5z
			 M200.2,50.1c0.1-0.1,0.1-0.2,0-0.3c-0.1-0.1-0.2-0.1-0.3-0.1c-0.1,0.1,0,0.2,0,0.3C200.1,50.1,200.2,50.1,200.2,50.1z"/>
	</g>
	<path class="st1" d="M128.7,40.4c0,0-0.1,0-0.1,0.1c0-0.1,0-0.2-0.1-0.2C128.7,39.8,128.8,39.9,128.7,40.4z"/>
	<path class="st0" d="M85.5,54.8c-0.2-0.1-0.4-0.1-0.6-0.1c-0.1,0-0.1,0-0.2,0c-1.2-1.1-2.3-2.2-3.3-3.5c-0.6-0.8-1.2-1.5-1.8-2
		c-0.8-0.9-1.6-1.7-2.3-2.6c-0.4-0.5-0.7-0.8-0.9-1c-0.4-0.3-0.7-0.6-1.1-0.8c-0.6-0.3-0.9-0.2-1.1,0.3c0,0.1-0.1,0.1-0.1,0.1
		c-0.7-0.1-1-0.5-0.9-1c0-0.5,0-0.8,0-0.9c0-0.5,0.2-1.1,0.5-1.5c0.4-0.5,0.8-0.8,1.3-1c0.3-0.1,0.9-0.2,1.6-0.3
		c1.4-0.1,2.6,0.4,3.5,1.7c0.4,0.5,0.7,1,1.1,1.5c0.6,0.9,1.3,1.8,2.1,2.7c0.5,0.5,1.2,1.3,2.4,2.4c0.8,0.8,1.7,1.6,2.7,2.5
		c3.2,2.8,6.1,5.6,8.7,8.6c1.2,1.4,2.3,2.6,3.4,3.7c0.4,0.4,0.6,0.7,0.7,1.1c0.1,0.4,0.2,0.9,0.1,1.3c0,0.1,0,0.1-0.1,0.2
		c-0.3,0.2-0.5,0.5-0.4,0.9c0,0.1,0,0.1-0.1,0.2l-0.2,0.1c-0.1,0-0.1,0.1-0.1,0.1c0.1,0.2,0.1,0.4-0.1,0.6c-0.2,0.3-0.5,0.6-0.8,0.8
		c-0.2,0.2-0.3,0.3-0.2,0.5c0,0.1,0,0.2-0.1,0.1c-0.7-0.3-1.3-0.3-2-0.1c-0.2,0.1-0.4,0.2-0.7,0.4c-0.2,0.2-0.4,0.3-0.6,0.4
		c-0.2,0.1-0.4,0.1-0.6,0c0,0-0.1-0.1-0.2-0.1h-0.2c-0.1,0-0.1,0,0-0.1l0.6-0.9c0.1-0.2,0.1-0.3-0.2-0.2c-0.8,0.3-1.5,0.6-2.2,1.1
		c-0.1,0-0.1,0.1-0.1,0.1C93,70,93,70,93.1,69.8c0,0,0.1-0.1,0.1-0.1c0.5-0.4,0.4-0.5-0.2-0.4c0,0-0.1,0-0.1-0.1
		c0.1-0.2,0.2-0.4,0.3-0.5c0.6-0.5,1.2-0.9,1.8-1.4c0.3-0.2,0.3-0.5,0-0.7c-0.3-0.2-0.6-0.5-0.8-0.8c-0.3-0.4-0.5-0.7-0.9-1
		c-0.2-0.2-0.3-0.3-0.4-0.5c-0.1-0.2-0.1-0.3-0.2-0.5c0-0.1-0.1-0.1-0.1-0.2c-0.6-0.5-1-0.8-1.2-1.1c-1.9-2.3-3.9-4.6-5.9-6.8
		c0,0,0-0.1,0-0.2l0.1-0.5C85.6,54.9,85.6,54.8,85.5,54.8L85.5,54.8z M95.8,69.5c0,0,0.1,0,0.2-0.1c0.1-0.1,0.1-0.2,0.1-0.2
		c0,0-0.1,0-0.2,0.1C95.8,69.4,95.7,69.5,95.8,69.5z"/>
	<path class="st1" d="M128.7,40.4C128.7,40.4,128.7,40.4,128.7,40.4c0,0.1-0.1,0.2-0.1,0.3c0,0,0,0.1,0,0.1
		c-0.1,0.2-0.2,0.1-0.1-0.1c0-0.1,0.1-0.2,0.2-0.3C128.6,40.5,128.6,40.4,128.7,40.4z"/>
	<path class="st0" d="M237.7,74.9c-0.1,0.1-0.1,0.1-0.2,0.2c-0.1,0.2-0.3,0.3-0.6,0.1c-0.3-0.2-0.4-0.2-0.3,0c0,0,0.1,0.1,0.1,0.1
		c0.4,0.4,0.3,0.7-0.2,0.7c-0.1,0-0.1,0-0.2-0.1c-1.9-1.5-3.9-3-5.9-4.3c-0.2-0.1-0.4-0.1-0.5,0.1c-1,1.4-2.1,2.8-3.3,4.1
		c-0.6,0.6-0.9,1-1,1.1c-0.4,0.3-0.9,0.4-1.5,0.4c-0.1,0-0.4,0-0.7,0.2c-0.3,0.1-0.5,0.1-0.7,0.1c-0.5,0-1-0.3-1.6-0.6
		c-0.7-0.5-1.6-1.2-2.8-2.2c-0.3-0.3-0.6-0.6-0.8-0.9c-0.1-0.2-0.2-0.3-0.2-0.3c-0.8-1.2-1.5-2.4-2.3-3.6c-0.3-0.5-0.5-1-0.4-1.5
		c0-0.1,0.1-0.1,0.1-0.1c0.5,0.1,0.6,0.4,0.5,0.9c0,0.2,0.1,0.4,0.2,0.5c0.3,0.1,0.3,0.3,0.1,0.4c0,0-0.1,0.1,0,0.1
		c0.2,0.2,0.4,0.4,0.8,0.6c0.1,0,0.1,0,0.1-0.1c-0.1-0.9-0.4-1.6-0.7-2.2c0,0,0-0.1,0-0.2l0.1-0.6c0-0.1,0-0.1,0.1-0.2
		c0.2-0.1,0.3,0,0.4,0.1c0,0,0.1,0.1,0.1,0.2c0,0.7,0.3,1.2,1,1.6c0.2,0.1,0.2,0.1,0.2-0.1l-0.3-0.7c0-0.1,0-0.1,0.1-0.2
		c0.1,0,0.2,0,0.2,0.2c0.2,0.5,0.5,0.9,1,1.3c1.3,1,2.7,1.9,4.1,2.6c0.1,0,0.1,0,0.2,0c0.3-0.1,0.6-0.3,0.9-0.6
		c0.6-0.7,1.2-1.4,1.8-2.1c0-0.1,0.1-0.1,0.1-0.2c0-0.3,0.1-0.6,0.4-0.8c0.1-0.1,0.1-0.3,0-0.4c-0.4-0.3-0.8-0.6-1.3-0.9
		c-1.4-0.7-2.7-1.3-4.1-1.9c-0.5-0.2-0.8-0.4-1-0.7c-0.3-0.4-0.5-0.8-0.6-1.4c-0.1-0.4-0.2-0.8-0.4-1.2c0,0,0-0.1,0.1-0.1l0.3-0.1
		c0.1,0,0.1-0.1,0.1-0.1c0-0.3-0.1-0.6-0.4-0.9c-0.1-0.1-0.1-0.2,0.1-0.2c0.1,0,0.1,0,0.1-0.1c0.1-0.2,0.2-0.3,0.5-0.4
		c0.1,0,0.1-0.1,0.2-0.1c0.2-0.3,0.4-0.6,0.4-1c0-0.1,0-0.1,0.1-0.1c0.5-0.2,0.6,0.1,0.3,0.6c0,0.1,0,0.1,0.1,0.2l0.9,0.3
		c0.1,0,0.1,0.1,0.1,0.1l0,0.3c0,0.1,0.1,0.1,0.1,0.2c2.2,1.2,4.4,2.5,6.6,3.9c0.3,0.2,0.5,0.1,0.7-0.2l0.5-0.7
		c0.1-0.2,0.2-0.2,0.2,0.1c0.1,0.7,0.2,0.7,0.5,0.1c0.1-0.2,0.2-0.4,0.2-0.6c0.1-0.2,0.2-0.3,0.3,0c0.4,0.7,0.9,0.8,1.5,0.3
		c0,0,0-0.1,0-0.1c-0.9-0.4-1.7-0.7-2.6-0.9c-0.6-0.2-1-0.3-1.4-0.5c-0.5-0.2-0.9-0.4-1.4-0.6c-0.7-0.3-1.3-0.8-1.8-1.6
		c-0.1-0.1-0.1-0.3-0.1-0.4c0.2-1.1,0.8-1.6,1.9-1.6c0.1,0,0.2,0,0.3,0c0.2,0,0.3,0,0.3,0.2c0,0.1,0,0.2,0.1,0.3
		c0.1,0.1,0.2,0,0.3-0.2c0.1-0.1,0.3-0.2,0.4-0.2l0.8,0.1c0.1,0,0.1,0,0.2-0.1c0.2-0.3,0.4-0.2,0.6,0.1c0.2,0.2,0.4,0.4,0.6,0.5
		c0.9,0.4,1.7,0.8,2.4,1.3c0,0,0.4,0.2,1.1,0.6c0.4,0.2,0.7,0.5,1.1,0.8c0.1,0.1,0.4,0.3,0.7,0.5c0.2,0.2,0.5,0.4,0.7,0.6
		c0.2,0.2,0.3,0.2,0.4-0.1c0.1-0.6,0-1-0.3-1.3c-0.1-0.1-0.4-0.3-1-0.7c-1.7-1-3.5-1.9-5.3-2.8c-0.5-0.2-1.1-0.6-1.8-1
		c-0.7-0.5-1.5-0.9-2.3-1.2c-0.9-0.4-1.4-0.7-1.7-0.8c-0.5-0.3-1-0.6-1.5-1c-0.1-0.1-0.3-0.1-0.5-0.1c-1.3,0.4-2.6,0.8-4,1.1
		c-0.2,0-0.4,0.1-0.5,0.2c-0.1,0-0.1,0-0.2,0l-1.5-0.4c-0.1,0-0.1-0.1-0.2-0.1l-0.2-0.6c-0.2-0.5-0.2-0.8-0.2-1
		c0.3-1,0.8-1.8,1.6-2.5c0,0,0.1-0.1,0.2-0.1c0.2,0,0.5,0,0.7-0.1c0.3-0.1,0.5-0.2,0.6-0.2c0.3-0.1,0.7-0.2,1-0.3
		c0.3-0.1,0.6-0.2,1-0.2c1.1-0.1,2.1-0.4,3-0.9c0.1,0,0.1,0,0.1,0c0.4,1.1,0.5,2.2,0.4,3.3c0,0.1,0,0.1,0.1,0.2l2.5,1.3
		c0.1,0,0.1,0,0.1-0.1c0.1-0.3,0.2-0.6,0.1-1.1c0-0.1,0-0.2,0.1-0.2c0.8-0.8,1.5-1.6,2.2-2.5c1-1.4,2-2.8,2.9-4.3
		c0.5-0.9,0.8-1.8,0.8-2.8c0-0.2,0-0.4,0.1-0.5c0.1-0.3,0.3-0.3,0.5-0.1c0.2,0.2,0.5,0.3,0.7,0.5c0.3,0.2,0.5,0.4,0.6,0.6
		c0.4,0.8,0.3,1.5-0.3,2.1c-0.7,0.7-1.2,1.4-1.5,1.9c-0.4,0.8-0.9,1.5-1.3,2.3c-0.8,1.5-1.6,3-2.5,4.4c0,0.1,0,0.1,0,0.1
		c0.4-0.1,0.8-0.3,1.1-0.7c0.3-0.4,0.5-0.7,0.8-1.1c0.2-0.3,0.5-0.7,0.8-1.1c1.1-1.3,2-2.7,2.8-4.2c0,0,0.2-0.4,0.6-1.2
		c0.3-0.6,0.6-1.1,1-1.6c0.2-0.3,0.4-0.6,0.5-0.8c0.1-0.3,0.2-0.6,0.2-0.9c0.1-0.5,0.4-0.9,0.8-1c0.3-0.1,0.7-0.1,1.1,0.1
		c0.9,0.5,1.4,1.4,1.4,2.6c0,0.1,0,0.3,0,0.4c0,0.1,0,0.1-0.1,0.2l-0.6,1.2c0,0,0,0.1,0.1,0.1c1.6,0.1,2.5-0.6,2.8-2
		c0-0.1,0.1-0.2,0.2-0.3l1.4-1.1c0,0,0.1,0,0.2,0c0.7,1.1,1.1,1.9,1.2,2.2c0.1,0.5,0,0.9-0.3,1.3c-0.1,0.2-0.1,0.3,0.1,0.3l0.7,0
		c0.1,0,0.1,0,0.2,0.1c0.3,0.2,0.6,0.3,0.9,0.5c0.4,0.2,0.7,0.4,0.8,0.5c0.4,0.4,0.5,0.9,0.4,1.5c0,0.1,0,0.1-0.1,0.2
		c-0.3,0.3-0.2,0.6,0.1,0.9c0.8,0.6,1.5,1,2.3,1.3c0.1,0,0.1,0,0.2,0c0.2-0.1,0.3-0.1,0.5-0.3c0,0,0.1-0.1,0.2,0
		c0.3,0.2,0.6,0.4,0.8,0.7c0.2,0.3,0.4,0.6,0.4,0.9c0.3,1.7-0.3,3-2,3.8c-0.6,0.3-1.4,0.9-2.5,1.8c-1.9,1.5-3.9,3.1-5.9,4.7
		c-0.1,0.1-0.1,0.2,0,0.3c0.9,0.8,1.7,1.6,2.6,2.3c0.7,0.6,1.2,1.1,1.4,1.5c0.4,0.6,0.6,1.2,0.8,1.9c0.1,0.4,0.1,0.8-0.1,1.2
		c-0.3,0.5-0.7,0.9-1.2,1.1c-0.3,0.1-0.7,0.1-1.1,0c-0.7-0.2-1.2-0.5-1.7-0.9c-0.6-0.5-1.1-0.9-1.5-1.1c-1.1-0.7-2.1-1.5-3-2.3
		c-0.2-0.1-0.4-0.1-0.5,0c-0.1,0.2-0.3,0.3-0.5,0.3c-1.4,0.4-2.3,0.6-2.7,0.7c-0.7,0-1.4,0.1-2.2,0.3c-0.1,0-0.2,0.1,0,0.2
		c1.6,1,3,2.1,4.4,3.3c0,0,0.3,0.2,0.7,0.6c0.6,0.5,1.1,1.1,1.6,1.8c0.1,0.1,0,0.1-0.1,0.1l-1-0.1c-0.1,0-0.1,0,0,0.1l0.4,0.3
		c0.1,0.1,0.1,0.2,0,0.2c-0.3,0.2-0.6,0.4-0.8,0.4c-0.1,0-0.1,0.1-0.1,0.1C237.6,74.9,237.6,74.9,237.7,74.9L237.7,74.9z M236.9,52
		c0.1-0.4,0.1-0.6,0-0.9c-0.1-0.5,0-0.8,0.4-1c0.1,0,0.1-0.1,0.2-0.1L239,48c0.1-0.1,0-0.2,0-0.2c-0.8-0.3-1.5-0.1-2.1,0.4
		c-0.8,0.7-1.7,1.9-2.6,3.5c0,0,0,0.1,0,0.1c0.9,0.4,1.9,0.6,3,0.5c0.1,0,0.1-0.1,0.1-0.1c-0.1-0.1-0.2-0.2-0.4-0.2
		C236.9,52.1,236.9,52,236.9,52L236.9,52z M246.1,49.9c-0.4-0.1-0.7-0.3-1.1-0.5c0,0-0.1-0.1-0.4-0.2c-0.4-0.2-0.7-0.2-1.1,0
		c-0.5,0.3-0.9,0.6-1.4,0.9c0,0-0.1,0.1,0,0.2c0.5,0.6,0.9,1.1,1.2,1.7c0.2,0.3,0.3,0.6,0.5,0.7c0.2,0.2,0.4,0.4,0.7,0.5
		c0.5,0.3,1.1,0.7,1.6,1.1c0.1,0.1,0.2,0.1,0.2,0l1.3-1.1c0.1-0.1,0.1-0.2,0-0.3c-0.9-0.8-1.3-1.8-1.4-2.8
		C246.3,50.1,246.2,50,246.1,49.9L246.1,49.9z M232.7,55.3c0.3,0.2,0.5,0.4,0.6,0.8c0.1,0.4,0.3,0.5,0.6,0.3l1-0.5
		c0.1,0,0.1-0.1,0-0.1c-0.9-0.1-1.6-0.4-2.2-1c0,0-0.1,0-0.1,0l-0.8,1.1c-0.1,0.1,0,0.2,0.1,0.2l1.1,0.6c0.2,0.1,0.3,0.1,0.1-0.1
		c-0.3-0.3-0.4-0.7-0.3-1.1C232.6,55.3,232.7,55.3,232.7,55.3L232.7,55.3z M242.2,55l-1,1c-0.1,0.1,0,0.2,0,0.2
		c0.5,0.3,0.9,0.6,1.4,0.9c0,0,0.1,0,0.2,0.1c0.2,0.2,0.4,0.1,0.6-0.1c0,0,0.1-0.1,0.2-0.1c0.2-0.1,0.3-0.2,0.3-0.4
		c0-0.1,0-0.1-0.1-0.1c-0.6-0.2-1-0.7-1.2-1.5C242.5,54.8,242.4,54.8,242.2,55L242.2,55z M237.2,59.2l1.8,1.2c0.1,0,0.1,0,0.2,0
		l1.4-1.1c0.1-0.1,0.1-0.2,0-0.3c-0.2-0.3-0.4-0.5-0.7-0.7c-0.1-0.1-0.2-0.2-0.3-0.3c-0.1-0.1-0.1-0.2-0.2-0.3c0-0.1-0.1-0.1-0.2,0
		l-2,1.3C237.1,59,237.1,59.1,237.2,59.2L237.2,59.2z M219.6,62.3c0.1-0.1,0.1-0.2,0.1-0.4c0-0.1-0.1-0.1-0.1-0.1
		c-0.3,0.1-0.3,0.2-0.1,0.4C219.5,62.3,219.6,62.3,219.6,62.3L219.6,62.3z M238.6,65.3c0.8,0.4,1.7,0.6,2.7,0.8
		c0.4,0.1,0.5,0,0.2-0.3c-0.7-0.7-1.3-1.3-2.1-2.1c-0.3-0.3-0.8-0.5-1.4-0.6c-0.1,0-0.1,0-0.2-0.1c-0.4-0.3-0.4-0.3-0.2,0.2
		c0,0.1,0.1,0.1,0.1,0.2c0.1,0.4,0.2,0.8,0.3,1.3C238.1,64.9,238.3,65.1,238.6,65.3L238.6,65.3z M238.8,66.5
		c0.2,0.1,0.4,0.2,0.7,0.2c0.1,0,0.2,0,0.1-0.1c-0.3-0.3-0.6-0.6-1-0.8c-0.1-0.1-0.2,0-0.1,0.1C238.5,66.2,238.6,66.4,238.8,66.5z"
		/>
	<path class="st2" d="M190.1,43.3c-0.2,0.1-0.2,0.2,0,0.3c0.2,0.1,0.6,0.2,1.3,0.2l0.6,0.5c0.3,0.3,0.5,0.2,0.6,0c0-0.1,0-0.1,0,0
		c-0.2,0.2-0.4,0.2-0.6,0.1c-0.1-0.2-0.1-0.3,0.1-0.3c1.2,0.1,2.3,0.4,3.3,1.1c0,0.1,0,0.1,0.1,0.2c0,0.1,0,0.1-0.1,0.2l-0.6-0.2
		c0-0.1-0.1-0.1-0.2-0.1l-1.8-0.6c-0.1-0.2-0.1-0.2-0.1-0.1c0,0,0,0.1,0,0.1c0.1,0.1,0.1,0.2,0,0.3c-1.4-0.3-3.1-0.6-5.2-1.1
		c-0.4-0.1-0.7-0.2-0.9-0.4c-0.2-0.4-0.5-0.5-0.9-0.4c-0.8-0.3-0.8-0.5,0-0.4c0.1,0,0.2,0,0.3,0C187.4,42.8,188.7,43,190.1,43.3z"/>
	<path class="st0" d="M70.6,71.2c-0.2-0.3-0.3-0.3-0.2,0.1c0.4,1.7,0,3.1-1.2,4.2c-0.2,0.2-0.4,0.2-0.6,0.3c-0.5,0-0.9,0-1.4-0.3
		c-0.5-0.2-0.9-0.5-1.4-0.7c0,0-0.2-0.1-0.4-0.2c-0.4-0.2-0.6-0.5-0.7-0.9c-0.1-0.5-0.1-0.8-0.2-0.8c-0.3-1-0.6-2-0.8-3.1
		c0-0.1,0-0.1,0.1-0.2c0.7-0.4,1.4-0.9,1.9-1.4c0.2-0.2,0.3-0.5,0.4-0.8c0-0.2,0-0.5,0-0.7c0-0.2-0.1-0.4-0.3-0.6
		c-0.6-0.8-1.2-1.6-1.8-2.3c-0.6-0.6-1-1.1-1.3-1.6c-0.1-0.2-0.1-0.4,0.1-0.6c0-0.1,0.1-0.1,0.1-0.2c0-0.2,0-0.3-0.1-0.5
		c-0.1-0.2-0.1-0.4-0.1-0.5c0-0.3,0-0.6,0.1-0.9c0.1-0.3,0.2-0.6,0.5-0.8c0.6-0.5,1.2-0.7,2-0.7c0.6,0,1.2,0.3,1.7,0.8
		c0.3,0.3,0.5,0.5,0.6,0.7c0.3,0.4,0.5,0.7,0.6,0.8c0.7,0.7,1.3,1.5,2,2.3c0.2,0.2,0.4,0.2,0.6,0c0.5-0.6,1-0.9,1.6-1.2
		c0.4-0.1,0.5-0.4,0.5-0.8c-0.2-1.1-0.5-2.3-1-3.6c-0.1-0.3-0.6-0.8-1.3-1.6c-0.2-0.2-0.5-0.4-0.8-0.6c-0.4-0.2-0.7-0.5-1-0.8
		c0,0,0-0.1,0-0.2l0.2-0.6c0-0.1,0-0.1-0.1-0.2c-0.2-0.3-0.3-0.5-0.2-0.8c0.1-0.2,0.2-0.5,0.4-0.7c0.1-0.2,0.3-0.3,0.5-0.3
		c0.3-0.1,0.4-0.1,0.5-0.2c0.3-0.1,0.7-0.2,1-0.3c0.5,0,0.8-0.1,1-0.1c0.6,0,1.2,0.2,1.7,0.6c0.2,0.2,0.5,0.6,0.8,1
		c0.8,1.3,1.7,2.5,2.8,3.6c0.1,0.1,0.3,0.1,0.3,0c0.6-0.9,1.3-1.6,2-2.1c0.3-0.2,0.4-0.5,0.4-0.8c-0.2-1.8-0.8-3.4-1.8-4.8
		c0,0,0,0,0,0c0-0.1,0-0.1,0,0c0.8,0.9,1.5,1.8,2.1,2.8c0.2,0.4,0.5,0.8,0.8,1.1c0.3,0.3,0.6,0.7,0.9,1c0.1,0.1,0.1,0.1,0.2,0.1
		c0.5,0.2,0.8,0.4,0.9,0.7c0.1,0.4,0.3,0.7,0.4,1.1c0,0,0.1,0.1,0.2,0.4c0.2,0.3,0.1,0.6,0,0.8c-0.2,0.3-0.3,0.4-0.3,0.4
		c-0.1,0.2-0.2,0.5-0.3,0.7c-0.1,0.3-0.2,0.5-0.5,0.6c-0.7,0.2-1.5,0.3-2.2,0.2c-0.3,0-0.3,0-0.1,0.2c0.5,0.4,1,0.8,1.4,1.2
		c0.4,0.4,0.9,0.8,1.3,1.3c1.8,1.9,3.2,3.4,4.2,4.4c1.5,1.4,1.6,2.9,0.3,4.5c-0.5,0.6-1.1,0.8-1.9,0.7c-0.4-0.1-0.7-0.2-0.9-0.3
		c-0.3-0.1-0.6-0.3-0.8-0.6c-1.5-1.6-3.6-4-6.4-7c0,0-0.1-0.1-0.1-0.1c-0.2-0.1-0.3-0.1-0.1,0.2c0,0,0.1,0.1,0.1,0.1
		c0.2,0.2,0.4,0.5,0.5,0.8c0,0.2,0,0.5-0.1,0.9c-0.2,0.6-0.4,1.1-0.6,1.7c0,0.1-0.3,0.4-0.7,0.8c0,0-0.1,0.1-0.2,0.1
		c-0.6,0-1.1-0.1-1.6-0.3c-0.4-0.3-0.8-0.4-1.1-0.6c-0.1,0-0.1,0,0,0c0.5,0.7,1,1.3,1.4,2c0.7,1,1.1,1.7,1.4,2.1
		c1.5,2.4,2.6,4.9,3.2,7.6c0.2,0.9,0.3,1.9,0.3,2.8c0,0.4-0.1,0.7-0.3,0.9c-0.2,0.2-0.5,0.4-0.9,0.6c-0.1,0-0.2,0.2-0.3,0.3
		c-0.1,0.4-0.3,0.7-0.6,1c-0.1,0-0.1,0.1-0.1,0.2c-0.1,0.3-0.2,0.6-0.4,1c0,0.1-0.1,0.1-0.1,0.2c-0.1,0.1-0.2,0-0.2-0.2
		c-0.8-4.5-2.5-8.6-5.1-12.2C71.2,72.2,70.9,71.7,70.6,71.2z"/>
	<path class="st3" d="M200.2,50.1c-0.1,0.1-0.2,0-0.3-0.1c-0.1-0.1-0.1-0.2,0-0.3c0.1-0.1,0.2,0,0.3,0.1
		C200.3,49.9,200.3,50,200.2,50.1z"/>
	<path class="st0" d="M253.9,156.3c0,53.8-43.6,97.3-97.3,97.3s-97.3-43.6-97.3-97.3c0-53.8,43.6-97.3,97.3-97.3
		S253.9,102.6,253.9,156.3L253.9,156.3z M249.8,156.3c0-51.5-41.7-93.3-93.3-93.3s-93.3,41.7-93.3,93.3s41.7,93.3,93.3,93.3
		S249.8,207.8,249.8,156.3z"/>
	<path class="st0" d="M65.8,97c-0.3,0.3-0.3,0.4,0.1,0.5c0,0.1,0,0.2,0.1,0.2c0,0,0.1,0,0.2-0.1c0.1-0.1,0.2-0.1,0.3-0.1
		c0.1,0,0.1,0.1,0.1,0.1c0.1,0.4,0.1,0.7-0.1,1c-1.1,1.8-2.5,3.9-4.2,6.3c-0.2,0.2-0.2,0.5-0.1,0.8c0,0.1,0.1,0.1,0.1,0.2
		c0.4,0.2,0.4,0.4-0.1,0.6c-0.3,0.1-0.4,0.3-0.1,0.4c0.1,0.1,0.1,0.3,0,0.4c-0.4,0.2-0.8,0.4-1.3,0.5c-0.2,0-0.3,0.1-0.4,0.3
		c-0.4,0.8-0.7,1.5-1,2.1c-0.2,0.4-0.3,0.9-0.4,1.3c0,0.1-0.1,0.2-0.2,0.4c-0.1,0.1-0.2,0.3-0.2,0.4c-0.6,1.5-1.5,3.9-2.7,7.3
		c-0.1,0.4-0.2,0.8-0.3,1.1c-0.1,0.6-0.2,1-0.2,1.1c-0.3,0.8-1,1.3-1.9,1.5c-0.2,0-0.5,0.1-0.9,0.3c-0.4,0.1-0.9,0.1-1.3,0
		c-0.2-0.1-0.3-0.2-0.3-0.3c0-0.1,0-0.3,0.2-0.5c0.1-0.1,0.1-0.1-0.1-0.1l-1.2-0.2c-0.1,0-0.1-0.1-0.1-0.1l0-0.4
		c0-0.1,0-0.1-0.1-0.2c-0.2-0.2-0.1-0.3,0.1-0.3c0.1,0,0.1,0,0.1-0.1c0.1-0.1,0.1-0.1-0.1-0.2c-0.7-0.2-0.8-0.3-0.1-0.5
		c0.1,0,0.1-0.1,0.1-0.1l0-0.1c0-0.1,0-0.2,0-0.2c0.3-0.6,0.6-1.2,0.8-2c0-0.1,0-0.1-0.1-0.2c-1.3-0.7-2.6-1.2-4-1.5
		c-0.5-0.1-0.8,0.1-0.9,0.6c0,0.1,0,0.1,0,0.2c0.3,0.5,0.7,0.9,1,1.3c0.6,0.7,0.9,1.1,1.1,1.2c0.8,1,1.4,1.8,1.9,2.6
		c0.4,0.5,0.8,0.9,1.2,1.3c0.3,0.2,0.5,0.4,0.6,0.6c0.1,0.2,0.2,0.3,0.3,0.5c0.1,0.1,0.2,0.3,0.4,0.5c0.4,0.4,0.6,1,0.7,1.7
		c0.2,1.4-0.3,2.5-1.4,3.2c0,0-0.1,0.1-0.2,0.1l-3.9,0.3c-0.3,0-0.5-0.1-0.4-0.4c0.1-0.2-0.1-0.4-0.4-0.6c0,0-0.1,0-0.1-0.1
		c-0.6-1-1.2-1.7-1.7-2.1c-1.9-1.6-4-3-6.2-4.2c-0.1,0-0.2,0-0.2,0c-0.2,0.4-0.5,0.7-0.8,1c-0.3,0.4-0.6,0.6-1,0.8
		c-1,0.4-1.9,0.3-2.9-0.3c0,0-0.1,0-0.2-0.1l-0.8-0.1c-0.1,0-0.1-0.1-0.1-0.1l-0.4-1.1c0-0.1,0-0.1,0-0.2c0.1-0.3,0.2-0.6,0-1
		c-0.1-0.2,0.1-0.2,0.5,0.1c0.1,0.1,0.2,0.1,0.2-0.1c0.1-0.6,0.3-1.1,0.5-1.6c0.2-0.4,0.6-0.9,0.9-1.4c0.6-0.8,1.5-1.3,2.5-1.4
		c0.6-0.1,1.1,0,1.6,0.3c0.9,0.6,1.2,1.6,0.7,2.9c-0.1,0.4-0.3,0.8-0.4,1.1c-0.1,0.3,0,0.5,0.2,0.6c2,1.5,4.2,2.7,6.4,3.7
		c0.2,0.1,0.3,0,0.2-0.2c-0.3-1.2-0.7-2.3-1.3-3.3c-1-1.9-2.4-4.5-4.1-8c-0.7-1.4-1.7-2.7-3-3.9c0,0,0,0,0,0c0-0.1,0-0.1,0.1,0
		c0.3,0.2,0.5,0.3,0.8,0.4c0.3,0.1,0.6,0.2,0.8,0.4c0.4,0.3,0.8,0.5,1.2,0.7c0.1,0,0.1,0.1,0.2,0.1c0.1,0.2,0.3,0.2,0.5,0.2
		c0.1,0,0.2,0,0.2,0l1.1,0.8c0.1,0.1,0.2,0.1,0.2-0.1c0-1.1-0.1-2.2-0.3-3.3c0-0.1-0.2-0.2-0.3-0.1c-0.3,0.1-0.5,0.2-0.8,0.1
		c-0.2,0-0.4-0.1-0.7-0.3c-0.6-0.3-1.2-0.6-1.8-0.8c-0.9-0.3-1.5-0.5-1.8-0.7c-2.2-1-4.5-2-6.8-2.9c-0.1,0-0.1,0-0.2,0
		c-0.5,0.1-0.7-0.1-0.8-0.4c0-0.1,0-0.3,0.1-0.7c0.1-0.4-0.1-0.6-0.7-0.7c-0.1,0-0.1-0.1-0.2-0.1l-0.5-1.1c-0.1-0.3,0-0.5,0.3-0.7
		c0.7-0.5,1.6-0.9,2.6-1.1c0.2,0,0.4-0.2,0.5-0.4c0.2-0.4,0.3-0.8,0.4-1.3c0.1-0.5,0.2-0.8,0.2-0.8c0.7-2.4,1.1-4.2,1.3-5.2
		c0.1-0.4,0.1-0.9,0-1.5c0-0.3,0-0.6,0.1-0.9c0.1-0.2,0.2-0.5,0.3-0.8c0.2-0.4,0.4-0.8,0.7-1c0.3-0.3,0.6-0.5,1-0.8
		c0.3-0.3,0.7-0.5,1-0.5c1-0.2,2,0,2.8,0.7c0.2,0.1,0.4,0.2,0.6,0.2c0.4,0,0.7,0.2,0.7,0.6c0,0.5,0.2,0.9,0.5,1.3
		c0.2,0.2,0.4,0.4,0.4,0.4c0.2,0.2,0.4,0.5,0.6,0.7c0.1,0.2,0.2,0.4,0.2,0.6c0,0.1,0,0.2,0,0.2c0.8,1.6,1.9,3.1,3,4.4
		c0.5,0.5,0.9,1,1.1,1.4c0.4,0.5,0.7,0.9,1.1,1.4c0.2,0.2,0.2,0.4,0.1,0.7c-0.2,0.5-0.2,1.1,0,1.7c0,0.1,0.1,0.1,0.1,0
		c0.2-0.3,0.3-0.6,0.3-0.9c0-0.7,0.2-1.4,0.5-2.1c0.2-0.3,0.3-0.6,0.3-0.9c0-0.5,0-0.8,0-0.8c0-0.3-0.1-0.5-0.3-0.7
		c0-0.1-0.1-0.1-0.1-0.2c0.1-0.7,0.4-1.3,0.8-1.8c0.4-0.5,0.9-0.9,1.4-1.3c0.9-0.6,1.8-0.7,2.9-0.4C54.5,93,54.8,93,55,93
		c0.1,0,0.1,0,0.1,0.1c0,0.1,0.1,0.2,0.1,0.4c0,0.1,0.1,0.2,0.2,0.3c0.3,0.4,0.6,0.7,0.8,1.1c0.2,0.4,0.5,0.8,0.8,1.2
		c0.3,0.4,0.6,0.9,1,1.5c0.3,0.5,0.9,1.1,1.6,1.8c0,0,0.1,0.1,0.2,0c0.2-0.2,0.5-0.4,0.7-0.8c0.8-1.5,1.9-2.7,3.1-3.7
		c0.1-0.1,0.3-0.2,0.5-0.2c0.8,0.1,1,0.4,0.6,0.8c-0.1,0.1-0.1,0.1-0.1,0.2c0,0.2,0.2,0.4,0.4,0.4c0.1,0,0.1,0.1,0.2,0.1L65.8,97
		L65.8,97z M43.8,111.3c0.1,0.2,0.1,0.4,0.1,0.6l0.3,1.2c0,0.1,0.1,0.1,0.2,0.1c0.3-0.2,0.5-0.3,0.7-0.5c0.2-0.2,0.3-0.4,0.5-0.7
		c0.6-1.1,1-2.2,1.3-3.4c0.1-0.3-0.1-0.6-0.4-1c-0.1-0.1-0.1-0.3-0.1-0.6l0.1-1.3c0-0.1,0.1-0.1,0.1-0.1c0.4,0,0.6,0,0.5,0.3
		c0,0.1,0,0.1,0,0.2c0.2,0.2,0.3,0.1,0.4-0.1c0.1-0.4,0.3-0.7,0.4-1.1c0,0,0-0.1-0.1-0.1c-0.3,0-0.4,0-0.5-0.2
		c-0.1-0.2-0.3-0.3-0.6-0.3c-0.7,0.1-1.1,0-1.4-0.4c-0.1-0.1-0.1-0.1-0.1,0c-0.3,1.1-0.5,2.1-0.8,3.1c-0.1,0.3-0.2,0.7-0.2,1.3
		c-0.1,0.4-0.1,0.9-0.3,1.3C43.6,109.9,43.7,110.5,43.8,111.3L43.8,111.3z M43.5,111.7c0.3,0,0.3-0.2,0.2-0.4
		c-0.2-0.2-0.4-0.1-0.4,0.1c0,0.1,0,0.2,0,0.3c0.1,0.8,0.2,1.5,0.3,2.3c0.1,0.3,0.1,0.4,0.2,0.1c0,0,0-0.1,0-0.1
		C43.6,113.2,43.5,112.4,43.5,111.7L43.5,111.7z M35.3,102.8c0.4,0.3,0.7,0.5,1,0.5c0.4,0,0.6-0.1,0.7-0.5c0.3-1.5,0.7-3,1.1-4.3
		c0.1-0.2,0.3-0.5,0.7-0.8c0,0,0.1-0.1,0-0.1l-2-2.3c-0.1-0.1-0.2-0.1-0.3,0.1c-0.8,2.1-1.4,4.2-2,6.5c0,0.1,0,0.1,0,0.2
		C34.8,102.3,35,102.6,35.3,102.8L35.3,102.8z M39.6,104.9l1.4,0.7c0.1,0.1,0.2,0,0.3-0.2c0.1-1.1,0.3-2.1,0.6-3.2
		c0.1-0.3,0.3-0.5,0.5-0.7c0.1,0,0.1-0.1,0-0.1L41,99.9c-0.1-0.1-0.2,0-0.2,0c-0.3,0.8-0.5,1.5-0.7,2.3c0,0-0.1,0.3-0.2,0.8
		c-0.1,0.5-0.3,0.9-0.5,1.4C39.4,104.6,39.4,104.8,39.6,104.9L39.6,104.9z M56.1,103.7l0.1-0.3c0-0.1,0-0.1,0-0.2
		c-0.5-0.5-0.8-0.8-1-0.8c-0.5-0.1-0.9-0.4-1.3-0.8c0,0-0.1-0.1-0.2-0.1l-0.6-0.3c-0.1,0-0.1-0.1-0.1-0.1c-0.2-0.3-0.5-0.5-0.8-0.7
		c-0.1,0-0.1,0-0.1,0.1l-0.5,1.5c0,0.1,0,0.1,0,0.2c0.3,0.3,0.7,0.7,1.1,0.9c0.5,0.3,0.9,0.8,1.1,1.3c0.2,0.4,0.7,1,1.4,1.8
		c0,0,0.1,0,0.1,0c0.4-0.5,0.8-1.1,1.1-1.8c0-0.1,0-0.1-0.1-0.2c-0.1-0.1-0.2-0.2-0.3-0.3C56.1,103.8,56.1,103.8,56.1,103.7
		L56.1,103.7z M50,107.7l2.9,2.3c0.3,0.2,0.5,0.2,0.8,0c0.1-0.1,0.2-0.3,0.1-0.6c0-0.1-0.1-0.3-0.3-0.5c-0.9-1-1.8-2-2.9-2.9
		c-0.1-0.1-0.2,0-0.3,0.1l-0.5,1.4C49.9,107.5,49.9,107.6,50,107.7L50,107.7z M46.7,106.7c0,0-0.1-0.1-0.1-0.1c-0.1,0-0.1,0-0.1,0.1
		c0,0.1,0.1,0.2,0.2,0.1C46.7,106.9,46.7,106.8,46.7,106.7L46.7,106.7z M47.8,113.4c1.3,0.3,2.7,0.7,4,1.3c0.1,0,0.2,0,0.2-0.1
		l0.5-1.3c0-0.1,0-0.2-0.1-0.2l-3.5-2.1c-0.1,0-0.2,0-0.2,0.1l-1,2.2C47.8,113.3,47.8,113.3,47.8,113.4L47.8,113.4z M40.1,112.8
		c0,0-0.1-0.2-0.3-0.3c-0.2-0.2-0.4-0.2-0.4-0.2c0,0,0.1,0.2,0.3,0.3C39.9,112.8,40,112.9,40.1,112.8z"/>
	<path class="st0" d="M268.2,103.2c-1.4,0.6-2.7,0.9-4.1,1.1c-0.4,0-0.8,0-1.2-0.1c-0.6-0.1-0.9-0.2-0.9-0.2
		c-0.3-0.1-0.6-0.3-0.7-0.7c0-0.1-0.1-0.1-0.2-0.1c-0.3,0-0.4-0.1-0.4-0.5c0-0.2-0.1-0.4-0.3-0.5c-0.2-0.1-0.3-0.3-0.4-0.6
		c0-0.1-0.1-0.1-0.1-0.2c-0.1-0.1-0.1-0.2,0-0.3c0.6-0.7,1-1.6,1.1-2.6c0,0,0-0.1-0.1-0.1c-0.6,0.2-1.1,0.5-1.6,0.9
		c-0.3,0.2-0.6,0.4-0.9,0.5c-0.4,0.1-0.8,0.3-1.3,0.4c0,0-0.2,0-0.5,0.1c-0.3,0.1-0.6,0.2-0.7,0.5c0,0.1-0.1,0.1-0.2,0.1
		c-0.6,0.1-1,0.2-1.2,0.4c-0.7,0.6-1.5,1-2.3,1.3c-0.3,0.1-0.6,0.3-0.9,0.4c-0.3,0.2-0.6,0.3-0.9,0.3c-0.3,0-0.6,0.1-0.9,0.1
		c-0.3,0-0.6,0.1-0.9,0.2c-0.1,0.1-0.3,0-0.3-0.2c-0.1-0.7-0.4-1.2-1.1-1.6c-0.5-0.3-0.5-0.7-0.3-1.1c0.5-0.8,1.3-1.4,2.3-1.8
		c0.5-0.2,0.9-0.4,1.2-0.5c0.6-0.4,1.2-0.7,1.9-0.9c0.7-0.3,1.1-0.4,1.1-0.4c2.8-1.2,5.9-2.4,9.4-3.6c1.1-0.4,2-0.7,2.6-0.8
		c0.5-0.2,2-0.7,4.3-1.6c0.4-0.1,0.6-0.3,0.8-0.5c0.3-0.3,0.5-0.5,0.5-0.6c0.5-0.4,1-0.7,1.5-0.9c0,0,0.2-0.1,0.5-0.3
		c0.4-0.2,0.6-0.1,0.9,0.4c0.2,0.4,0.4,0.7,0.8,1.1c1.6,1.5,3.4,2.8,5.2,4c0.2,0.1,0.4,0.3,0.6,0.6c0.2,0.3,0.3,0.5,0.3,0.7
		c0,0.3-0.1,0.6-0.3,1c-0.2,0.3-0.4,0.7-0.6,1.2c-0.3,0.8-0.8,1.4-1.7,1.8c-0.6,0.3-1.1,0.4-1.6,0.4c-0.5,0-0.8,0-0.8,0
		c-0.6,0-1.4,0-2.3-0.1c-1.1-0.1-2.2-0.3-3.3-0.5c-0.3,0-0.5,0.1-0.5,0.3c-0.2,0.7-0.5,1.4-0.8,2.1c0,0.1,0,0.1,0.1,0.1
		c1.4-0.1,2.8-0.2,4.2-0.2c0,0,0.1,0,0.4,0c0.3,0,0.6-0.1,0.9-0.3c0.2-0.1,0.2-0.3,0.1-0.5c0-0.1,0-0.1,0-0.2c0.2-0.2,0.5-0.3,1-0.3
		c0.1,0,0.1,0.1,0.1,0.1c0,0.3,0,0.6,0.2,0.9c0.8,1,1.3,2.1,1.7,3.4c0.3,0.8,0.7,1.6,1.2,2.4c0,0.1,0.1,0.1,0.2,0.1l3-1.5
		c0.1,0,0.1-0.1,0.1-0.1c0.3-0.6,0.4-1.4,0.5-2.1c0-0.1,0.1-0.1,0.2-0.2c0.8,0,1.3,0.2,1.6,0.7c0,0.1,0.1,0.1,0.1,0.1
		c0.3,0.2,0.5,0.4,0.7,0.8c0.3,0.7,0.4,1.5,0.5,2.4c0,0,0,0.3,0.1,0.9c0.1,0.5-0.1,1-0.5,1.4c0,0.1-0.1,0.1-0.1,0.2
		c-0.1,0.5-0.4,0.8-0.7,1c-0.7,0.3-1.4,0.5-2,0.6c-0.2,0-0.4-0.1-0.5-0.2c-0.1-0.1-0.1-0.1-0.2-0.1c-0.1,0-0.1,0.1,0,0.2
		c0.3,0.4,0.5,0.8,0.7,1.2c0.4,0.8,1,1.4,1.9,1.9c0.4,0.2,0.6,0.6,0.5,1.1c0,0.1,0,0.1,0,0.2c0.2,0.3,0.2,0.7,0.2,1
		c0,0.4-0.1,0.6-0.1,0.7c0,0.7-0.2,1.3-0.6,1.9c-0.1,0.3-0.4,0.5-0.7,0.6c-0.3,0.1-0.7,0.3-1,0.4c-0.5,0.2-0.9,0.1-1.3-0.3
		c-0.2-0.2-0.6-0.3-1-0.5c-0.1,0-0.1-0.1-0.2-0.1c-0.3-0.3-0.6-0.5-1-0.5c-0.1,0-0.1,0-0.2-0.1l-2.2-1.8c0,0-0.1-0.1-0.2-0.1
		c-0.4-0.1-0.6-0.1-0.7-0.3c-0.2-0.2-0.3-0.4-0.5-0.5c-0.3-0.2-0.4-0.4-0.6-0.5c-0.5-0.6-0.9-1.2-1.4-1.8c0,0-0.4-0.5-1.2-1.5
		c-1-1.2-1.7-2.5-2.1-3.9c-0.2-0.7-0.1-1.4,0.2-2.2c0,0,0.1-0.1,0.2-0.3c0.1-0.2,0-0.3-0.3-0.3c-0.1,0-0.3,0-0.4,0
		c-0.7-0.2-1.3-0.4-2-0.6c-0.1,0-0.1-0.1-0.1-0.1l-0.1-0.4c0-0.1,0-0.2-0.1-0.2C267.7,104.3,267.7,103.7,268.2,103.2
		C268.3,103.2,268.3,103.2,268.2,103.2L268.2,103.2z M264.9,99.2c0.2,0,0.4,0,0.6-0.1l2-0.6c0.3-0.1,0.4-0.3,0.3-0.6
		c-0.1-0.7,0-1.4,0.3-2.2c0.2-0.4,0.5-0.7,0.9-0.8c0.8-0.2,1.6-0.3,2.4-0.5c0,0,0.1,0,0.2,0c0.2,0,0.2-0.1,0.2-0.2
		c0-0.1-0.1-0.1-0.2-0.1c-0.8,0-1.5,0-2,0.2c-2.1,0.8-4,1.7-6,2.7c-0.2,0.1-0.3,0.3-0.3,0.5l0.3,1.5c0,0.1,0.1,0.1,0.1,0.1
		L264.9,99.2L264.9,99.2z M261.5,98.4c-0.1,0.1-0.1,0.2,0,0.3c0,0,0.1,0.1,0.2,0c0.1,0,0.2-0.1,0.3-0.1c0.1,0,0.1,0,0.1-0.1
		C262.2,97.8,262,97.8,261.5,98.4L261.5,98.4z M271.9,106.9c0.2,0.1,0.5,0.4,0.7,0.7c0.8,1,1.8,2.2,3.1,3.4c0.3,0.3,0.9,0.9,1.5,1.8
		c0,0,0.1,0.1,0.1,0.2c0,0.1,0,0.2,0.1,0.3c0,0,0.1,0.1,0.2,0.1c0.4,0.1,0.6,0.4,0.6,0.9c0,0.4,0.1,0.6,0.5,0.6c0.3,0,0.5,0,0.5,0
		c0.5,0.1,1.1,0.2,1.8,0.3c0.2,0,0.3,0,0.2-0.3c-0.6-1.2-1.3-2.3-2-3.3c-0.2-0.3-0.5-0.6-0.8-0.8c-0.5-0.4-0.9-0.9-1.2-1.5
		c-0.2-0.4-0.4-0.7-0.6-1.1c-0.2-0.4-0.4-0.8-0.5-1.2c0-0.1,0-0.1,0-0.2c0.1-0.4,0-0.9-0.3-1.4c0-0.1-0.1-0.1-0.2,0
		c-1,0.8-2.1,1.1-3.3,1c-0.6-0.1-0.8,0-0.6,0.4C271.6,106.7,271.7,106.8,271.9,106.9z"/>
	<path class="st3" d="M59.5,94.7c0.1,0.1,0,0.2-0.1,0.1c-0.1,0-0.1-0.1-0.1-0.1c0-0.1,0-0.1,0.1-0.1C59.4,94.6,59.4,94.7,59.5,94.7z
		"/>
	<path class="st0" d="M98.9,115.7c-0.4-0.3-0.7-0.7-1-1.1c-0.2-0.3-0.3-0.8-0.3-1.4c-0.1-1.1-0.2-2.4-0.1-4
		c0.1-4.2,0.1-8.5,0.1-12.8c0-0.1,0-0.1,0.1-0.1c8.7,5.1,17.5,10.1,26.2,15.2c1.2,0.7,2.5,1.6,4.1,2.8c1.7,1.3,3.3,2.8,4.7,4.4
		c1,1.1,1.9,2.3,2.6,3.5c1.5,2.4,2.5,5.1,3,7.9c0.1,0.8,0.3,1.5,0.4,2.3c0.1,0.7,0.2,1.5,0.3,2.3c0.3,3.4,0.4,6.8,0.4,10.1
		c0,10.8,0,21.5,0,32.3c0,1.5,0.1,2.5,0.3,3.3c0.4,1.5,1.2,2.8,2.4,3.9c1.6,1.5,3.5,2.6,5.7,3.3c3.8,1.2,7.6,1.7,11.5,1.3
		c1.6-0.1,3-0.4,4.3-0.7c2-0.5,3.8-1.3,5.6-2.3c1.6-0.9,2.8-2.1,3.6-3.4c0.8-1.3,1.2-2.8,1.2-4.6c0-10.5,0-21-0.1-31.5
		c0-0.9,0-3.5,0.2-7.7c0.1-2.4,0.3-5,0.8-7.7c0.6-3.7,2-7.1,4.1-10.2c0.7-1.1,1.7-2.2,2.8-3.3c2.6-2.6,5.6-4.9,8.9-6.7
		c1.2-0.7,1.8-1,1.8-1c7.7-4.5,15.4-8.9,23.2-13.4c0.1-0.1,0.2,0,0.2,0.1c0,5.5,0,11,0,16.5c0,0.5-0.1,1-0.3,1.4
		c-0.2,0.4-0.5,0.8-0.9,1.1c-0.4,0.4-1,0.7-1.6,1.1c-1.2,0.7-4.9,2.8-11,6.3c-1.9,1.1-3.4,2-4.3,2.6c-1.2,0.8-2.4,1.6-3.4,2.6
		c-1.2,1.1-2.1,2.2-2.7,3.3c-0.9,1.6-1.3,3.4-1.3,5.3c0,14.1-0.1,28.3-0.1,42.4c0,0.8-0.2,1.9-0.6,3.5c-1.3,4.8-3.8,8.8-7.5,12.1
		c-2.6,2.3-5.5,3.9-8.8,5c-1.6,0.5-3.1,0.9-4.8,1.3c-7.8,1.6-15.8,1.6-24,0c-5.3-1-9.9-3.2-13.8-6.6c-1.1-1-2.1-2-3-3.1
		c-3.2-4.2-4.8-9-4.8-14.5c0-12.1,0-24.1,0-36.2c0-1.7,0-3,0-3.9c-0.1-3.4-1.3-6.1-3.7-8.3c-1.7-1.5-3.6-2.9-5.8-4.1
		c-1.1-0.6-1.6-0.9-1.6-1c-4.2-2.5-6.8-4-8-4.6C102,117.8,100.4,116.8,98.9,115.7z"/>
	<path class="st1" d="M65.8,97c0.3,0.2,0.3,0.3,0.1,0.5C65.5,97.4,65.5,97.2,65.8,97z"/>
	<path class="st0" d="M148.2,111c-2.9,0-5.8,0-8.8,0c-1.2,0-1.9,0-2,0c-0.8-0.2-1.2-0.8-1.1-1.8c0-0.4,0-0.6,0-0.6
		c0-2.1,0-4.2,0-6.2c0-0.8,0.1-1.5,0.3-2.1c0.3-0.9,1-1.5,2-1.6c0.7-0.1,1.3-0.2,1.8-0.2c8.6,0,17.2,0.1,25.8,0c0,0,0.1,0,0.3,0
		c0.4,0,0.7,0.1,0.9,0.5c1.3,1.9,3,3.4,5.2,4.4c0.5,0.2,1.1,0.5,1.8,0.7c0.9,0.3,1.6,0.5,1.9,0.5c0.3,0.1,0.6,0.2,0.8,0.3
		c0.2,0.1,0.3,0.4,0.3,0.7c0.1,1.2,0.1,2.4,0,3.6c0,0.6-0.1,1-0.4,1.2c-0.3,0.3-0.8,0.5-1.3,0.5c-3.7,0-7.3,0-11,0
		c-0.1,0-0.1,0-0.1,0.1c0,21.4,0,42.8,0,64.2c0,0.7-0.1,1.3-0.3,1.7c-0.4,0.8-0.9,1.5-1.7,2c-0.8,0.5-1.6,0.8-2.3,1.1
		c-2.8,0.8-5.6,0.7-8.4-0.2c-1.4-0.5-2.5-1.3-3.2-2.5c-0.2-0.3-0.3-0.7-0.3-1.1c0,0,0-0.4,0-1.1c0-21.3,0-42.6,0-63.9
		C148.4,111.1,148.3,111,148.2,111z"/>
	<path class="st0" d="M270.5,126.7c0.6-0.1,0.7,0,0.3,0.3c-0.2,0.1-0.1,0.2,0.1,0.2c0.1,0,0.1,0.1,0.1,0.1c-0.1,0.3-0.2,0.4-0.6,0.4
		c0,0.1,0,0.1,0.1,0.2c0.4,0,0.4,0.1,0,0.3c-0.1,0-0.1,0-0.2,0.1c0.1,0.2,0.2,0.3,0.4,0.2c0.5-0.1,0.8-0.3,1.1-0.4
		c0.1,0,0.2,0,0.2,0c0,0.1-0.1,0.2-0.4,0.3c-0.1,0.1-0.2,0.1-0.4,0.1c-0.8,0.1-1.4,0.4-1.9,0.8c-0.3,0.2-0.4,0.3-0.4,0.3
		c-0.8,0.5-1.5,1-2.3,1.3c-0.4,0.2-0.8,0.4-1.1,0.6c-0.6,0.4-1.2,0.6-1.8,0.8c-0.1,0-0.4,0-0.8-0.1c-0.1,0-0.1,0-0.2,0
		c-0.1,0.1-0.2,0.1-0.3,0.1c-0.1,0-0.2,0-0.3-0.1c-0.6-0.4-1.1-0.8-1.6-1.2c-0.6-0.5-1-0.9-1.2-1.3c-0.4-0.8-0.7-1.7-0.9-2.6
		c0-0.2-0.1-0.5-0.3-0.8c-0.1-0.3-0.3-0.6-0.3-0.8c-0.3-0.9-0.6-1.7-1-2.4c-0.1-0.1-0.1-0.3-0.1-0.5c0.1-0.5,0.1-0.9,0.2-1.3
		c0-0.2,0.1-0.6,0.3-1.2c0.2-0.5,0.2-1.1,0.1-1.6c0-0.1,0-0.1,0.1-0.2l0.8-0.5c0.5-0.3,0.4-0.4-0.1-0.1c-0.4,0-0.4-0.1-0.1-0.4
		c0.3-0.3,0.7-0.4,1.3-0.4l0,0.1c0,0.2,0.1,0.3,0.3,0.2c0.3-0.2,0.9-0.4,1.6-0.6c0.1,0,0.2-0.1,0.3-0.2c0-0.1,0.1-0.1,0.2-0.1
		l2.8-0.6c0.2,0,0.2-0.1,0-0.1l-2.4-0.8c0,0-0.1-0.1-0.2-0.1c0,0-0.1,0-0.1-0.1c-0.4-0.1-0.8-0.3-1.2-0.4c-0.3-0.1-0.7-0.2-1.2-0.3
		c-0.5-0.1-0.9-0.2-1.3-0.3c-0.2-0.1-0.6-0.1-1.1-0.1c-0.5,0-1.1-0.2-1.6-0.5c-0.1,0-0.1-0.1-0.2-0.1c-0.3,0-0.6,0-0.8-0.1
		c-0.1,0-0.1,0-0.2,0c-0.6,0-1-0.2-1.3-0.7c-0.1-0.1-0.1-0.2,0-0.3c0-0.2,0.2-0.2,0.4-0.2c0.1,0,0.2,0,0.2,0c0-0.1,0-0.1-0.1-0.2
		c-0.4-0.2-0.4-0.4,0-0.6c0.2-0.1,0.3-0.4,0.3-0.7c0-0.1,0.1-0.2,0.2-0.2c0.4,0,0.5-0.2,0.3-0.6c-0.1-0.1,0-0.3,0.1-0.4
		c0.2-0.2,0.5-0.2,0.8-0.1c0.1,0.1,0.3,0.1,0.3,0.1c0.2,0,0.2-0.2,0.1-0.4c0-0.1-0.1-0.1-0.1-0.1l-0.6,0.1c-0.4,0.1-0.4,0-0.3-0.3
		l0.5-0.7c0.1-0.2,0.2-0.1,0.2,0.1c0,0.1,0.1,0.2,0.2,0.2c0.1,0,0.2,0.1,0.2,0.1c0.3,0.2,0.7,0.3,1.1,0.3c0.5,0.1,0.8,0.1,0.9,0.2
		c0.3,0.1,0.6,0.2,0.9,0.3c0.2,0.1,0.4,0.3,0.4,0.5c0,0.2,0.1,0.3,0.2,0.3c0.2,0.1,0.3,0.2,0.3,0.2c0.1,0.1,0.3,0.3,0.4,0.4
		c0.1,0.2,0.2,0.3,0.3,0.3c0.1,0,0.2,0.1,0.3,0.1c0.1,0,0.2,0,0.3,0c0.8,0.3,1.6,0.5,2.4,0.8c0.3,0.1,0.4,0,0.2-0.3
		c-0.6-0.7-1.1-1.4-1.5-2c-0.3-0.4-0.4-0.9-0.5-1.3c0-0.5,0.1-0.9,0.5-1.3c0.2-0.2,0.4-0.3,0.7-0.5c0.2-0.1,0.5-0.2,0.8-0.3
		c0.9-0.1,1.7,0.1,2.5,0.6c0.1,0,0.1,0.1,0.2,0.1l0.9,0c0,0,0.1,0,0,0.1l-0.4,0.8c-0.1,0.1-0.2,0.2-0.3,0.3
		c-0.4,0.3-0.5,0.5-0.3,0.9c0.2,0.4,0.5,0.7,0.8,1c0.9,0.8,1.8,1.8,2.7,3c0.1,0.1,0.1,0.1,0.2,0.2l3,1.2c0,0,0.1,0.1,0.1,0.1
		c0.1,0.1,0.5,0.3,1.1,0.5c0.1,0,0.1,0.1,0.1,0.2c0,0.1-0.1,0.1-0.2,0c-0.2-0.2-0.4-0.2-0.6,0c0,0,0,0.1,0,0.1
		c0.3,0.3,0.2,0.4-0.4,0.3c-0.1,0-0.1,0-0.2,0c-0.2,0.1-0.2,0.1,0,0.2c0,0,0.1,0,0.2,0.1c0.5,0.1,0.8,0.4,0.8,0.9c0,0.1,0,0.1,0,0.2
		c0.2,0.4,0.6,0.8,1,1.2c0.1,0.1,0.2,0.2,0.2,0.4l-0.1,2.5c0,0.2-0.1,0.2-0.2,0.1c-0.2-0.1-0.3-0.1-0.3,0.1c0,0.3-0.2,0.4-0.5,0.1
		c-0.1-0.1-0.2,0-0.2,0l-0.5,0.6c-0.1,0.2-0.2,0.1-0.2-0.1c0-0.3-0.2-0.4-0.4-0.5c-0.1,0-0.3,0-0.6,0c-0.4,0-0.7-0.2-1-0.5
		c-0.6-1-1.3-1.8-2.1-2.5c0,0-0.1,0-0.1,0c-0.3,0.9-1,1.6-1.9,2c-0.8,0.3-1.7,0.6-2.5,0.8c-0.4,0.1-0.8,0.3-1.2,0.5
		c-0.1,0.1-0.2,0.2-0.2,0.4c0,0.4,0.1,0.7,0.2,1c0.1,0.3,0.2,0.6,0.3,0.8c0.1,0.6,0.4,1.2,0.8,1.6c0.3,0.3,0.5,0.5,0.6,0.8
		c0.3,0.6,0.6,1.1,0.9,1.5c0.1,0.2,0.3,0.3,0.6,0.2l4.4-1C270.4,126.6,270.4,126.7,270.5,126.7L270.5,126.7z M256.1,108.5
		c-0.1,0-0.2,0-0.2,0.1c0,0.3,0.2,0.4,0.4,0.3c0.1,0,0.1-0.1,0.1-0.1C256.4,108.7,256.3,108.6,256.1,108.5L256.1,108.5z
		 M271.2,114.6c0,0.1,0.1,0.1,0.2,0.1c0.1,0,0.1,0,0.2-0.1c0.1-0.2,0-0.2-0.3-0.2c-0.2,0-0.3-0.1-0.4-0.3c-0.1-0.2-0.1-0.2-0.1-0.2
		c-0.1-0.1-0.2-0.2-0.3-0.2c-0.2-0.1-0.3,0-0.1,0.2C270.6,114.2,270.9,114.4,271.2,114.6z"/>
	<path class="st0" d="M26.1,115.5c0,0-0.1-0.1-0.1-0.1c0.1-0.3,0.1-0.7,0-1c-0.1-0.7-0.1-1-0.1-1c0-1.3,0.4-2.5,1.1-3.5
		c0.7-0.9,1.6-1.5,2.7-1.7c0.6-0.1,1.2,0,1.8,0.3c0.8,0.3,1.2,0.9,1.3,1.8c0.2,1.7-0.4,3-1.7,4.1c-0.1,0.1-0.2,0.2-0.5,0.5
		c-0.3,0.3-0.6,0.6-0.9,0.8c-0.2,0.1-0.3,0.1-0.5,0c-0.1,0-0.1-0.1-0.2-0.1c-0.3,0-0.6,0-0.9-0.1c-0.4-0.1-0.8-0.2-1.2-0.1
		c0,0-0.2,0.1-0.5,0.2C26.5,115.5,26.3,115.5,26.1,115.5z"/>
	<path class="st2" d="M43.7,111.3c0.1,0.2,0.1,0.3-0.2,0.4c0.1,0.8,0.2,1.5,0.3,2.3c0,0,0,0.1,0,0.1c-0.1,0.2-0.1,0.2-0.2-0.1
		c-0.1-0.8-0.2-1.5-0.3-2.3c0-0.1,0-0.2,0-0.3C43.3,111.2,43.4,111.1,43.7,111.3z"/>
	<path class="st1" d="M259.4,117.2L259.4,117.2c0.1-0.2,0.2-0.2,0.4-0.2c0.1,0,0.1,0,0.1,0.1C259.7,117.2,259.6,117.2,259.4,117.2z"
		/>
	<path class="st1" d="M258.4,117.9c0,0-0.1-0.1-0.1-0.1C258.8,117.6,258.8,117.6,258.4,117.9z"/>
	<path class="st0" d="M108.7,208.4c-5.1-4.9-8.5-10.8-10.1-17.6c-0.9-3.6-1.3-7.3-1.2-11.1c0-1.6,0-2.4,0-2.4c0-17.1,0-34.2,0-51.4
		c0-0.1,0.1-0.1,0.1-0.1c4.3,2.4,8.5,4.9,12.7,7.4c1.9,1.2,3,2.8,3.3,4.9c0,0.3,0.1,1,0.1,2.1c0,0.6,0,1.3,0,2.1c0,11.3,0,22.7,0,34
		c0,3.2,0.3,6.4,0.8,9.6c0.4,2.5,1.3,5,2.7,7.3c0.7,1.2,1.5,2.4,2.5,3.5c1.6,1.9,3.5,3.6,5.6,5.2c1.5,1.1,3,2.1,4.2,2.8
		c2,1.2,4.1,2.2,6.2,3c1.7,0.6,3.1,1,4.1,1.2c1.7,0.3,3.5,0.4,5.3,0.1c1.3-0.2,2.5-0.4,3.5-0.6c1.8-0.4,3.9-0.9,6.4-1.4
		c0.8-0.2,1.6-0.2,2.3-0.1c2.2,0.4,4.4,0.8,6.6,1.3c1.6,0.4,3.1,0.7,4.4,0.8c0.9,0.1,1.9,0.1,2.9,0.1c0.9,0,1.8-0.2,2.8-0.5
		c2.7-0.7,5.2-1.7,7.5-2.9c2.3-1.2,4.5-2.7,6.7-4.4c1.3-1,2.4-2,3.3-2.8c3.2-3.1,5.4-6.7,6.5-10.9c0.8-3.2,1.3-6.8,1.3-10.8
		c0-11.8,0-23.7,0-35.5c0-1.3,0.1-2.5,0.3-3.6c0.1-0.8,0.3-1.5,0.6-2c0.3-0.6,0.8-1.2,1.3-1.7c0.7-0.6,1.4-1.1,2.1-1.5
		c3.9-2.3,7.9-4.7,11.9-7c0.1,0,0.1,0,0.1,0.1c0,16.1,0,32.2,0,48.3c0,4,0,6.9-0.1,8.8c-0.5,10.2-4.3,18.8-11.4,25.7
		c-1,0.9-2.1,1.9-3.3,2.8c-4.7,3.7-9.9,6.6-15.5,8.7c-2.2,0.8-4.6,1.3-7.1,1.6c-5.2,0.5-9.9-0.8-14-4c-2.7-2.1-4.7-3.5-6.1-4.2
		c-1.2-0.7-2.4-0.6-3.5,0c-1,0.6-2,1.3-3,2c-0.9,0.7-1.8,1.3-2.7,2c-1.2,0.8-2.1,1.5-2.8,1.9c-3.4,1.9-7.1,2.7-11,2.4
		c-3.2-0.3-6.5-1.1-9.8-2.5c-3-1.3-6-2.9-9-4.8C113.6,212.6,111,210.6,108.7,208.4z"/>
	<path class="st4" d="M30.6,153.4l11.7,2.2c0.1,0,0.2,0.1,0.2,0.2l0,2.7c0,0.1,0,0.1-0.1,0.1c-1.3,0.2-2.3,0.4-2.9,0.6
		c-2.9,0.7-5.8,1.2-8.6,1.7c-0.3,0-0.3,0.1,0,0.1c3.9,0.5,7.7,1.2,11.6,1.9c0.1,0,0.1,0.1,0.1,0.1l0,2.7c0,0.1-0.1,0.1-0.1,0.1
		l-15.1-3.3c-0.1,0-0.1-0.1-0.1-0.2l-0.1-3c0-0.1,0-0.1,0.1-0.1c2.4-0.5,4.9-1,7.3-1.6c1-0.2,2.2-0.4,3.7-0.6c0.1,0,0.1,0,0.1,0
		c0.2-0.1,0.1-0.1-0.2-0.2c-1.1-0.1-2.2-0.3-3.2-0.5c-2.6-0.5-5.2-1.1-7.8-1.6c-0.1,0-0.1-0.1-0.1-0.1l0-3c0-0.1,0-0.1,0.1-0.1
		l15.1-3.5c0.1,0,0.1,0,0.1,0.1l0,2.8c0,0.1,0,0.1-0.1,0.1L30.6,153.4C30.5,153.4,30.5,153.4,30.6,153.4z"/>
	<path class="st4" d="M277.4,154c-0.5-0.1-1.1-0.3-1.6-0.5c-1.7-0.6-3.4-1.3-5.1-1.9c-0.1,0-0.1-0.1-0.1-0.2l0-3c0,0,0-0.1,0.1,0
		c2.9,1.4,5.7,2.8,8.5,4.1c0.3,0.1,0.6,0.2,0.9,0.2c1.9,0,3.8,0,5.7-0.1c0.1,0,0.1,0,0.1,0.1l0.1,2.6c0,0.2-0.1,0.3-0.3,0.3
		c-2,0-3.8,0.1-5.5,0.1c-0.3,0-0.7,0.1-1,0.3c-2.8,1.4-5.6,2.8-8.5,4.2c-0.1,0-0.1,0-0.2-0.1l-0.1-3.1c0-0.1,0-0.1,0.1-0.1l6.7-2.7
		C277.5,154.1,277.5,154,277.4,154z"/>
	<path class="st4" d="M272.8,172.2c-1.4-1.2-2.2-2.6-2.5-4.3c-0.2-1.6-0.1-3.1,0.3-4.7c0.1-0.4,0.3-0.8,0.5-1.1
		c0-0.1,0.1-0.1,0.2-0.1l2.1,0.7c0.1,0,0.1,0.1,0.1,0.2c-0.3,0.7-0.5,1.4-0.6,2.1c-0.1,0.8-0.1,1.5,0,2.2c0.1,0.7,0.4,1.3,0.9,1.9
		c0.4,0.5,0.9,0.9,1.6,1.2c1.3,0.6,2.6,0.8,4,0.6c3-0.5,4.3-2.2,4-5.3c0-0.1-0.1-0.1-0.1-0.1l-3.5-0.3c-0.1,0-0.1,0-0.1,0.1
		l-0.2,1.9c0,0.1-0.1,0.1-0.1,0.1l-2.1-0.2c-0.1,0-0.1-0.1-0.1-0.1l0.3-4.7c0-0.1,0.1-0.2,0.2-0.2l7.7,0.6c0.1,0,0.1,0.1,0.2,0.1
		c0.5,2.1,0.6,4.1,0.1,6.1c-0.3,1.2-0.8,2.2-1.4,2.9c-0.7,0.9-1.7,1.5-2.8,1.8c-1.6,0.5-3.3,0.5-5,0.2
		C274.9,173.6,273.8,173.1,272.8,172.2z"/>
	<path class="st4" d="M40.6,170.6l-3.4,0.4c-0.1,0-0.1,0.1-0.1,0.1l0.7,4.7c0,0.1-0.1,0.2-0.2,0.2l-2.1,0.3c-0.1,0-0.1,0-0.1-0.1
		l-0.7-4.7c0-0.1-0.1-0.1-0.2-0.1l-3.9,0.5c-0.1,0-0.2,0.1-0.2,0.2l0.7,5.3c0,0.1,0,0.1-0.1,0.1l-2.2,0.3c-0.1,0-0.1,0-0.1-0.1
		l-1.1-8.3c0-0.1,0.1-0.2,0.2-0.2l15-2.1c0,0,0.1,0,0.1,0.1l1.1,8c0,0.1,0,0.1-0.1,0.1l-2.3,0.3c0,0-0.1,0-0.1-0.1l-0.7-5.1
		C40.7,170.6,40.7,170.6,40.6,170.6z"/>
	<path class="st4" d="M281.4,187.3c-0.9,0.7-1.9,1.1-2.9,1.3c-0.9,0.2-1.9,0.2-3.1,0c-2-0.2-3.8-1-5.3-2.3c-1.3-1.1-2-2.4-2.2-4
		c-0.1-1.5,0.2-2.8,1-4.1c1-1.6,2.6-2.5,4.8-2.7c1.4-0.1,2.8,0,4.3,0.5c1.2,0.4,2.2,0.9,3.1,1.5c1,0.7,1.7,1.6,2.1,2.6
		c0.7,1.7,0.6,3.4-0.2,5.2C282.5,186.2,282.1,186.8,281.4,187.3L281.4,187.3z M271.6,183.8c1.5,1.2,3.4,1.8,5.5,1.8
		c0.8,0,1.6-0.1,2.2-0.4c1.2-0.5,1.8-1.3,1.8-2.4c0-0.6-0.2-1.1-0.5-1.6c-0.3-0.5-0.7-0.9-1.2-1.2c-1.6-1-3.4-1.5-5.3-1.5
		c-0.7,0-1.4,0.1-2,0.4c-0.6,0.3-1.1,0.7-1.4,1.4C270,181.7,270.3,182.8,271.6,183.8z"/>
	<path class="st4" d="M40.9,181.6c-0.1,0-0.2,0-0.3,0c-3.4,0.9-7,1.8-10.5,2.6c-0.1,0-0.1,0-0.2-0.1l-0.6-2.3c0-0.1,0-0.2,0.1-0.2
		l14.8-3.4c0.1,0,0.1,0,0.1,0.1l0.7,2.9c0,0.1,0,0.1-0.1,0.2c-1.9,1.6-3.8,3.2-5.7,4.8c-1.3,1.2-2.6,2.1-3.8,2.9
		c-0.1,0.1-0.1,0.1,0,0.1c0,0,0,0,0.1,0c1.8-0.6,3.6-1.1,5.4-1.5c1.7-0.4,3.4-0.8,5.1-1.2c0.1,0,0.1,0,0.1,0.1l0.6,2.4
		c0,0.1,0,0.1-0.1,0.1l-14.6,3.4c-0.1,0-0.2,0-0.2-0.1l-0.6-2.5c0-0.1,0-0.2,0.1-0.3c2-1.7,3.9-3.3,5.8-4.9c1.5-1.2,2.7-2.2,3.8-2.9
		C41,181.7,41,181.7,40.9,181.6z"/>
	<path class="st4" d="M36.7,198.9l2,6.1c0,0.1,0,0.1-0.1,0.1l-2.2,0.7c-0.1,0-0.1,0-0.1-0.1l-3.1-9.8c0-0.1,0-0.1,0.1-0.1
		c0.3-0.1,0.7-0.2,1-0.3c0.3-0.1,0.7-0.1,1,0c4,0.9,8,1.9,12,2.8c0.1,0,0.2,0,0.1-0.2l-1.7-5.5c0-0.1,0-0.1,0.1-0.1l2.1-0.7
		c0.1,0,0.1,0,0.1,0.1l2.9,9.2c0,0.1,0,0.1-0.1,0.1c-0.4,0.1-0.8,0.3-1.3,0.4c-0.3,0.1-0.6,0.1-0.9,0
		C44.7,200.6,40.7,199.7,36.7,198.9C36.7,198.8,36.6,198.8,36.7,198.9z"/>
	<path class="st4" d="M263.7,196.1c-0.1,0-0.1-0.1-0.1-0.1l0.9-2.6c0-0.1,0.1-0.1,0.1-0.1l12,3.8c0.1,0,0.2,0,0.2-0.1l1.6-5
		c0-0.1,0.1-0.1,0.1-0.1l2.1,0.7c0.1,0,0.1,0.1,0.1,0.2l-2.5,7.9c0,0-0.1,0.1-0.1,0L263.7,196.1z"/>
	<path class="st0" d="M260.5,209.3c-1-1.7-1.1-3.5-0.3-5.3c0.5-1.3,1.3-2.3,2.4-2.9c1.1-0.7,2.4-1,3.9-0.9c2.2,0.2,4.1,0.9,5.8,2.2
		c1.3,1,2.2,2.1,2.7,3.3c0.6,1.6,0.5,3.3-0.4,5c-1.2,2.3-3.2,3.4-6,3.3c-1.8-0.1-3.5-0.7-5-1.6C262.2,211.4,261.1,210.4,260.5,209.3
		L260.5,209.3z M264.4,209.1c1.4,1,3.1,1.6,4.9,1.8c0.9,0.1,1.7-0.1,2.3-0.6c0.5-0.4,0.8-0.8,0.9-1.3c0.2-0.6,0.1-1.1-0.2-1.7
		c-0.3-0.6-0.7-1.2-1.2-1.6c-1.3-1.1-2.7-1.8-4.3-2.2c-1.2-0.3-2.2-0.3-3.1,0.1c-0.9,0.4-1.4,1-1.5,1.8c-0.1,0.9,0,1.7,0.5,2.3
		C263.1,208.1,263.6,208.6,264.4,209.1z"/>
	<path class="st4" d="M47.5,207.5l2.3,4.4c0,0.1,0.1,0.1,0.2,0l5.2-2.7c0.1,0,0.1,0,0.2,0l1.3,2.4c0,0.1,0,0.1,0,0.1l-13.4,7.1
		c-0.1,0-0.1,0-0.2,0l-1.3-2.4c0-0.1,0-0.1,0-0.2l5.5-3c0.1,0,0.1-0.1,0.1-0.2l-2.3-4.4c0-0.1-0.1-0.1-0.2-0.1l-5.6,3
		c-0.1,0-0.1,0-0.1,0l-1.3-2.4c0-0.1,0-0.1,0-0.1l13.4-7.2c0.1,0,0.1,0,0.2,0.1l1.3,2.4c0.1,0.1,0,0.2-0.1,0.3l-5.2,2.7
		C47.5,207.4,47.5,207.4,47.5,207.5z"/>
	<path class="st4" d="M255.7,220.6l9.5,6c0.1,0,0.1,0.1,0,0.2l-1.3,2.1c0,0.1-0.1,0.1-0.2,0l-12.7-8.2c-0.1,0-0.1-0.1,0-0.2l1.6-2.5
		c0-0.1,0.1-0.1,0.2-0.1c4.1,0.3,8.1,0.7,12.1,1.3c0.1,0,0.1,0,0,0c-3.2-1.7-6.3-3.6-9.3-5.7c-0.1,0-0.1-0.1,0-0.2l1.3-2.1
		c0-0.1,0.1-0.1,0.2,0l12.7,8.2c0.1,0,0.1,0.1,0,0.2l-1.4,2.3c0,0.1-0.1,0.1-0.2,0.1C264.1,221.7,259.9,221.2,255.7,220.6
		C255.7,220.6,255.7,220.6,255.7,220.6z"/>
	<path class="st4" d="M60.5,218c1.2,1,1.8,2.2,2,3.6c0.2,1.1,0,2.1-0.4,3.1c-0.4,1-1,1.9-1.9,2.7c-1.3,1.3-2.9,2.2-4.6,2.8
		c-1.4,0.4-2.7,0.5-3.9,0.2c-1.1-0.3-2.1-0.8-2.9-1.7c-0.8-0.9-1.4-1.9-1.6-3.1c-0.3-1.6,0-3.1,1.1-4.6c1.5-2.1,3.5-3.6,6-4.3
		C56.7,216.1,58.7,216.5,60.5,218L60.5,218z M56,226.7c1-0.6,1.8-1.1,2.4-1.7c0.8-0.8,1.3-1.5,1.4-2.3c0.3-1.1,0-2-0.8-2.7
		c-0.4-0.3-0.9-0.5-1.4-0.6c-0.5-0.1-1-0.1-1.5,0.1c-1.7,0.4-3.2,1.2-4.4,2.4c-0.7,0.6-1.2,1.3-1.5,2c-0.5,1.2-0.4,2.2,0.4,3
		c0.4,0.4,0.8,0.6,1.3,0.8c0.5,0.1,1.1,0.2,1.6,0.1c0.4-0.1,0.8-0.2,1.3-0.4C55.1,227.1,55.5,226.9,56,226.7z"/>
	<path class="st4" d="M254.2,231.1l-2.9,3.8c-0.1,0.1-0.1,0.2,0,0.3l4.9,3.9c0,0,0.1,0.1,0,0.2l-1.7,2.2c0,0-0.1,0-0.2,0l-11.9-9.3
		c0,0-0.1-0.1,0-0.2l1.7-2.2c0,0,0.1,0,0.1,0l4.6,3.6c0.1,0.1,0.2,0,0.2,0l3-3.9c0,0,0-0.1,0-0.2l-4.6-3.7c0,0-0.1-0.1,0-0.1
		l1.7-2.2c0,0,0.1-0.1,0.2,0l11.9,9.4c0.1,0,0.1,0.1,0,0.2l-1.7,2.1c-0.1,0.1-0.2,0.1-0.2,0l-5-3.9C254.4,231,254.3,231,254.2,231.1
		z"/>
	<path class="st4" d="M68.3,238.6c-0.3,0.2-0.6,0.5-0.9,0.7c-0.2,0.2-0.5,0.4-0.8,0.7c-1.1,1.1-2.4,1.8-3.7,2.2
		c-1.3,0.4-2.6,0.2-3.8-0.6c-1-0.7-1.8-1.5-2.4-2.6c-0.5-0.9-0.6-1.8-0.5-2.7c0.1-1,0.5-1.8,1.2-2.7c0.6-0.7,1.1-1.3,1.6-1.7
		c2.3-1.9,4.5-3.9,6.8-5.8c0,0,0.1,0,0.2,0l1.8,2.1c0,0,0,0.1,0,0.2c-2.3,1.9-4.6,3.9-6.8,5.8c-0.7,0.6-1.3,1.2-1.6,1.9
		c-0.6,1.2-0.5,2.2,0.5,3c0.7,0.6,1.4,0.7,2.2,0.3c0.8-0.3,1.5-0.7,2.1-1.3c2.3-2,4.6-4,6.9-5.9c0,0,0.1,0,0.2,0l1.8,2.1
		c0,0,0,0.1,0,0.2c-1.1,1-2.3,2-3.4,2.9C69.3,237.7,68.8,238.1,68.3,238.6z"/>
	<path class="st4" d="M248.9,247.5c-2.5,2-5.1,2.1-7.8,0.5c-1-0.6-1.8-1.3-2.5-2.1c-0.8-0.8-1.3-1.8-1.7-2.8
		c-0.9-2.3-0.6-4.5,0.9-6.7c0.8-1.1,1.9-2,3.2-2.7c0.1,0,0.1,0,0.2,0l1.3,1.8c0,0,0,0.1,0,0.1c-0.7,0.4-1.3,0.8-1.8,1.3
		c-0.6,0.6-1,1.2-1.2,1.9c-0.4,1.4-0.2,2.8,0.8,4.1c0.8,1.1,1.7,1.9,2.8,2.4c2,1,3.7,0.7,5.2-0.8c0.5-0.6,1-1.3,1.4-2.1
		c0-0.1,0.1-0.1,0.1,0l1.8,1.2c0.1,0.1,0.1,0.2,0.1,0.3C250.9,245.4,250,246.6,248.9,247.5z"/>
	<path class="st4" d="M73.9,256.5c-2.2-1.7-2.7-3.9-1.6-6.5c0.2-0.5,0.7-1.2,1.3-2c2-2.4,4-4.7,6-7c0.1-0.1,0.2-0.1,0.2,0l2,1.8
		c0,0,0,0.1,0,0.2c-2,2.3-3.9,4.6-5.8,6.9c-0.8,1-1.3,1.8-1.5,2.3c-0.3,1.1,0.1,2.1,1.4,2.8c0.4,0.2,0.8,0.2,1.4,0.1
		c0.7-0.2,1.5-0.7,2.2-1.6c2.1-2.4,4.1-4.7,6.2-7.1c0,0,0.1-0.1,0.2,0L88,248c0,0,0,0.1,0,0.2c-1.9,2.2-3.9,4.5-5.8,6.7
		c-0.5,0.6-1.1,1.1-1.7,1.6C78.3,258.2,76,258.2,73.9,256.5z"/>
	<path class="st4" d="M236.3,255.2c0,0.1,0.1,0.1,0.2,0l4.3-3.2c0,0,0.1,0,0.2,0l1.4,1.8c0,0,0,0.1,0,0.1l-6.7,5.1c0,0-0.1,0-0.1,0
		l-9.2-12.1c0,0,0-0.1,0-0.2l6.4-4.9c0.1,0,0.1,0,0.2,0l1.4,1.8c0,0,0,0.1,0,0.2l-4,3c-0.1,0.1-0.1,0.2,0,0.3l2,2.6
		c0,0.1,0.1,0.1,0.2,0l3.8-2.9c0,0,0.1,0,0.2,0l1.3,1.8c0,0,0,0.1,0,0.2l-3.8,2.9c0,0-0.1,0.1,0,0.2L236.3,255.2z"/>
	<path class="st4" d="M223,252.6l6.9,10.5c0,0,0,0.1,0,0.1l-2.4,1.5c-0.1,0-0.1,0-0.2,0l-6.8-10.4c-0.1-0.1-0.2-0.1-0.3-0.1
		l-2.9,1.8c-0.1,0-0.1,0-0.2,0l-1.2-1.9c0,0,0-0.1,0-0.2l8.6-5.7c0.1,0,0.1,0,0.2,0l1.2,2c0,0,0,0.1,0,0.2l-2.9,2
		C222.9,252.5,222.9,252.6,223,252.6z"/>
	<path class="st4" d="M89.9,254.3c0.1-0.3,0-0.3-0.2-0.1c-1.8,3.2-3.7,6.4-5.7,9.5c0,0.1-0.1,0.1-0.2,0l-2.1-1.4c0,0-0.1-0.1,0-0.2
		l8-12.8c0.1-0.1,0.2-0.1,0.3-0.1l2.5,1.6c0.1,0,0.1,0.1,0.1,0.2c-0.3,4-0.7,8.1-1.2,12.1c0,0.1,0,0.1,0.1,0
		c1.7-3.2,3.6-6.3,5.6-9.3c0-0.1,0.1-0.1,0.2,0l2,1.3c0,0,0.1,0.1,0,0.2l-8,12.8c0,0.1-0.1,0.1-0.2,0l-2.3-1.5c0,0-0.1-0.1-0.1-0.1
		c0.1-1.6,0.3-3.2,0.4-4.8C89.2,259.3,89.5,256.8,89.9,254.3z"/>
	<path class="st4" d="M97.9,271.8c0,0.1-0.1,0.1-0.1,0l-2.5-1.3c-0.1,0-0.1-0.1,0-0.1l7.1-13.4c0-0.1,0.1-0.1,0.1,0l2.5,1.3
		c0.1,0,0.1,0.1,0,0.1L97.9,271.8z"/>
	<path class="st4" d="M207.3,266l4.2-1.9c0.1,0,0.2,0,0.3,0.1l0.9,1.9c0,0.1,0,0.1-0.1,0.1l-4.3,1.9c-0.1,0-0.1,0.1-0.1,0.1l2.5,5.6
		c0,0.1,0,0.1-0.1,0.2l-2.5,1.1c-0.1,0-0.1,0-0.2-0.1l-6.2-13.7c0-0.1,0-0.2,0.1-0.3l7.2-3.3c0,0,0.1,0,0.1,0l1,2.2
		c0,0.1,0,0.1-0.1,0.1l-4.6,2c-0.1,0-0.1,0.1-0.1,0.2l1.6,3.4C207.2,266,207.3,266,207.3,266z"/>
	<path class="st4" d="M107.5,272.9c0.4-0.7,0.9-1.4,1.4-2.2c1.9-2.7,3.8-5.3,5.7-8c0-0.1,0.1-0.1,0.2-0.1l2.8,1.1
		c0.1,0,0.1,0.1,0,0.1l-9.7,12.4c-0.1,0.1-0.2,0.1-0.3,0.1l-2.9-1c-0.1,0-0.2-0.1-0.1-0.2l1.3-15.6c0-0.1,0.1-0.1,0.1-0.1l2.8,1.1
		c0.1,0,0.1,0.1,0.1,0.2C108.6,264.7,108.1,268.8,107.5,272.9C107.4,273,107.5,273,107.5,272.9z"/>
	<path class="st4" d="M192.9,278.2c-1-0.8-1.8-1.8-2.4-3c-0.5-1.1-0.8-2.2-1-3.3c-0.2-1.2-0.1-2.3,0.1-3.4c0.6-2.6,2.4-4.2,5.4-4.7
		c0.4-0.1,0.9-0.1,1.5,0c0.5,0.1,1,0.2,1.4,0.4c1.3,0.6,2.4,1.6,3.2,2.9c1,1.7,1.6,3.5,1.7,5.3c0.2,2.9-0.8,5-3,6.2
		c-1.1,0.6-2.3,0.9-3.4,0.9C195.1,279.5,194,279.1,192.9,278.2L192.9,278.2z M197.9,276.9c1.8-0.6,2.4-3.4,1.5-6.3
		c-1-2.9-3.2-4.8-4.9-4.2c-1.8,0.6-2.4,3.4-1.5,6.3C193.9,275.6,196.1,277.5,197.9,276.9z"/>
	<path class="st4" d="M118.8,277.7l5.1,1.5c0.1,0,0.1,0.1,0.1,0.2l-0.6,2.1c0,0.1-0.1,0.1-0.2,0.1l-8-2.5c-0.1,0-0.1-0.1-0.1-0.1
		l4.5-14.5c0-0.1,0.1-0.1,0.2-0.1l7.7,2.4c0.1,0,0.1,0.1,0.1,0.1l-0.7,2.2c0,0.1-0.1,0.1-0.2,0.1l-4.8-1.5c-0.1,0-0.1,0-0.2,0.1
		l-1,3.3c0,0.1,0,0.1,0.1,0.1l4.5,1.4c0.1,0,0.1,0.1,0.1,0.2l-0.6,2.1c0,0.1-0.1,0.1-0.1,0.1l-4.5-1.4c-0.1,0-0.2,0-0.3,0.1
		l-1.2,3.7C118.7,277.6,118.7,277.7,118.8,277.7z"/>
	<path class="st4" d="M130.9,277.3l-1,5.9c0,0.1-0.1,0.1-0.2,0.1l-2.6-0.5c-0.1,0-0.1-0.1-0.1-0.2l2.5-14.6c0-0.1,0.1-0.1,0.1-0.1
		c1.9-0.1,3.7,0.1,5.5,0.7c1.2,0.4,2.1,0.9,2.7,1.5c0.8,0.8,1,1.9,0.9,3.2c-0.3,1.8-1.3,3-3.1,3.5c-0.1,0-0.1,0.1,0,0.1
		c0.8,0.7,1.2,1.7,1.3,2.9c0.1,1.5,0.3,3.1,0.4,4.6c0,0.1,0,0.1-0.1,0.1l-2.8-0.4c-0.1,0-0.1-0.1-0.1-0.1c-0.2-1.3-0.3-2.6-0.3-3.9
		c0-0.1-0.1-0.5-0.2-1.2c-0.1-0.5-0.4-1-1-1.3c-0.2-0.1-0.8-0.2-1.6-0.3C130.9,277.2,130.9,277.2,130.9,277.3L130.9,277.3z
		 M131.4,275c0.5,0.1,0.9,0.2,1.3,0.2c0.9,0.1,1.7-0.1,2.2-0.7c0.5-0.5,0.7-1.2,0.6-1.9c0-1.1-0.7-1.7-2-2c-0.4-0.1-0.8-0.1-1.4-0.1
		c-0.1,0-0.2,0.1-0.2,0.1l-0.7,4.3C131.3,274.9,131.4,275,131.4,275z"/>
	<path class="st4" d="M176.2,275.5l1.4-6.8c0-0.1,0.1-0.1,0.1-0.1l3.1-0.5c0,0,0.1,0,0.1,0.1l-2.9,9.3c-0.1,0.2-0.1,0.4,0,0.7
		l0.9,5.7c0,0.1,0,0.1-0.1,0.1l-2.7,0.4c-0.1,0-0.1,0-0.2-0.1c-0.3-1.9-0.6-3.7-0.9-5.5c-0.1-0.3-0.2-0.6-0.4-0.9
		c-1.8-2.6-3.6-5.2-5.4-7.7c0-0.1,0-0.2,0.1-0.2l2.9-0.5c0.1,0,0.2,0,0.2,0.1l3.6,5.9C176.1,275.7,176.2,275.7,176.2,275.5z"/>
	<path class="st4" d="M142.4,277.3c-1-0.9-1.5-2-1.4-3.2c0-1.1,0.5-2.1,1.3-2.9c0.8-0.8,1.9-1.3,3.3-1.4c1.5-0.1,2.9,0.2,4.2,0.9
		c0.1,0,0.1,0.1,0.1,0.2l-0.7,2.1c0,0.1-0.1,0.1-0.1,0.1c-0.7-0.4-1.5-0.7-2.3-0.7c-0.6-0.1-1.1,0-1.6,0.2c-0.3,0.1-0.6,0.3-0.8,0.6
		c-0.2,0.3-0.3,0.6-0.3,1c0,0.4,0.3,0.8,0.7,1.2c0.4,0.3,0.7,0.6,1.2,0.8c0.1,0.1,0.4,0.2,0.7,0.4c0,0,0.2,0.1,0.7,0.4
		c0.9,0.6,1.6,1.3,2,2.3c0.4,0.9,0.5,1.9,0.3,2.9c-0.3,1.2-0.9,2.1-2.1,2.7c-0.8,0.5-1.7,0.7-2.8,0.8c-1.6,0-3.1-0.3-4.5-1
		c-0.1-0.1-0.2-0.2-0.1-0.4l0.6-2c0-0.1,0.2-0.1,0.2-0.1c1.1,0.7,2.4,1,3.7,1c0.6,0,1.1-0.2,1.4-0.5c0.5-0.4,0.7-0.9,0.6-1.6
		c-0.1-0.5-0.4-1-0.8-1.4c-0.4-0.4-0.9-0.7-1.4-0.9C143.7,278.4,143,277.9,142.4,277.3z"/>
	<path class="st4" d="M161.9,273.1l-3.5,0.2c-0.1,0-0.1,0-0.1-0.1l-0.1-2.3c0-0.1,0-0.1,0.1-0.1l10.2-0.8c0.1,0,0.1,0.1,0.2,0.1
		l0.2,2.3c0,0.1,0,0.1-0.1,0.1l-3.6,0.3c-0.1,0-0.1,0.1-0.1,0.1l1,12.6c0,0.1,0,0.1-0.1,0.1l-2.7,0.2c-0.1,0-0.2-0.1-0.2-0.2
		l-1-12.5C162,273.2,161.9,273.1,161.9,273.1z"/>
	<path class="st4" d="M156,285.8c0,0.1-0.1,0.1-0.1,0.1l-2.7,0c-0.1,0-0.1-0.1-0.1-0.1l0.2-15.2c0-0.1,0.1-0.1,0.1-0.1l2.7,0
		c0.1,0,0.1,0.1,0.1,0.1L156,285.8z"/>
	<path class="st0" d="M146.2,238.6v2h-7.4c0.1-0.7,0.3-1.5,0.7-2.1c0.4-0.7,1.2-1.6,2.4-2.7c1-0.9,1.5-1.5,1.8-1.8
		c0.3-0.4,0.4-0.9,0.4-1.3c0-0.5-0.1-0.8-0.4-1.1c-0.3-0.3-0.6-0.4-1.1-0.4c-0.4,0-0.8,0.1-1.1,0.4c-0.3,0.3-0.4,0.7-0.5,1.3
		l-2.1-0.2c0.1-1.2,0.5-2,1.2-2.5c0.7-0.5,1.5-0.8,2.5-0.8c1.1,0,2,0.3,2.6,0.9c0.6,0.6,0.9,1.3,0.9,2.2c0,0.5-0.1,1-0.3,1.4
		c-0.2,0.5-0.5,0.9-0.9,1.4c-0.3,0.3-0.7,0.8-1.4,1.4c-0.7,0.6-1.1,1-1.3,1.2c-0.2,0.2-0.3,0.4-0.4,0.6H146.2L146.2,238.6z
		 M152.1,229.4c1.1,0,1.9,0.4,2.5,1.2c0.7,0.9,1.1,2.4,1.1,4.5c0,2.1-0.4,3.6-1.1,4.5c-0.6,0.8-1.4,1.1-2.5,1.1
		c-1.1,0-1.9-0.4-2.6-1.2c-0.7-0.8-1-2.3-1-4.4c0-2.1,0.4-3.6,1.1-4.5C150.2,229.8,151.1,229.4,152.1,229.4L152.1,229.4z
		 M152.1,231.2c-0.3,0-0.5,0.1-0.7,0.2c-0.2,0.2-0.4,0.5-0.5,0.9c-0.1,0.5-0.2,1.5-0.2,2.8c0,1.3,0.1,2.2,0.2,2.7
		c0.1,0.5,0.3,0.8,0.5,1c0.2,0.2,0.4,0.2,0.7,0.2c0.3,0,0.5-0.1,0.7-0.2c0.2-0.2,0.4-0.5,0.5-0.9c0.1-0.5,0.2-1.5,0.2-2.8
		c0-1.3-0.1-2.2-0.2-2.7c-0.1-0.5-0.3-0.8-0.5-1C152.6,231.3,152.4,231.2,152.1,231.2L152.1,231.2z M161.6,229.4
		c1.1,0,1.9,0.4,2.5,1.2c0.7,0.9,1.1,2.4,1.1,4.5c0,2.1-0.4,3.6-1.1,4.5c-0.6,0.8-1.4,1.1-2.5,1.1c-1.1,0-1.9-0.4-2.6-1.2
		c-0.7-0.8-1-2.3-1-4.4c0-2.1,0.4-3.6,1.1-4.5C159.7,229.8,160.5,229.4,161.6,229.4L161.6,229.4z M161.6,231.2
		c-0.3,0-0.5,0.1-0.7,0.2c-0.2,0.2-0.4,0.5-0.5,0.9c-0.1,0.5-0.2,1.5-0.2,2.8c0,1.3,0.1,2.2,0.2,2.7c0.1,0.5,0.3,0.8,0.5,1
		c0.2,0.2,0.4,0.2,0.7,0.2c0.3,0,0.5-0.1,0.7-0.2c0.2-0.2,0.4-0.5,0.5-0.9c0.1-0.5,0.2-1.5,0.2-2.8c0-1.3-0.1-2.2-0.2-2.7
		c-0.1-0.5-0.3-0.8-0.5-1C162.1,231.3,161.8,231.2,161.6,231.2L161.6,231.2z M171.1,229.4c1.1,0,1.9,0.4,2.5,1.2
		c0.7,0.9,1.1,2.4,1.1,4.5c0,2.1-0.4,3.6-1.1,4.5c-0.6,0.8-1.4,1.1-2.5,1.1c-1.1,0-1.9-0.4-2.6-1.2c-0.7-0.8-1-2.3-1-4.4
		c0-2.1,0.4-3.6,1.1-4.5C169.2,229.8,170,229.4,171.1,229.4L171.1,229.4z M171.1,231.2c-0.3,0-0.5,0.1-0.7,0.2
		c-0.2,0.2-0.4,0.5-0.5,0.9c-0.1,0.5-0.2,1.5-0.2,2.8c0,1.3,0.1,2.2,0.2,2.7c0.1,0.5,0.3,0.8,0.5,1c0.2,0.2,0.4,0.2,0.7,0.2
		c0.3,0,0.5-0.1,0.7-0.2c0.2-0.2,0.4-0.5,0.5-0.9c0.1-0.5,0.2-1.5,0.2-2.8c0-1.3-0.1-2.2-0.2-2.7c-0.1-0.5-0.3-0.8-0.5-1
		C171.5,231.3,171.3,231.2,171.1,231.2z"/>
	<g>
		<path class="st0" d="M792.8,149.5c0.3,0.1,0.4,0.4,0.2,0.8c-0.4,0.3-0.7,0.6-0.8,0.8c-0.4,0.9-0.2,1,0.4,0.5
			c0.1-0.1,0.2-0.2,0.2-0.3c0.2-0.4,0.4-0.6,0.7-0.8c0.4,0.3,0.4,0.6,0,1.2c-0.7,1-0.7,1.6,0.2,1.9c0.4,0.1,0.8,0.1,1.4-0.1
			c2.5-0.8,5-1.5,7.7-2.2c0.2-0.1,0.4-0.2,0.4-0.5c0.5-2.8,0.6-5.5,0.1-8.1c-0.1-0.5-0.6-0.7-1-0.5c-0.9,0.6-1.8,1.3-2.8,2.1
			c-0.3,0.2-0.5,0.2-0.6,0.1c-0.1-0.1,0-0.4,0.2-0.6l3.1-2.8c0.3-0.3,0.2-0.4-0.2-0.3c-2.9,0.4-5.7,1.2-8.4,2.4
			c-0.4,0.2-0.8,0.2-1.2-0.1c-1.8-1-3.1-2.2-4-3.8c-0.1-0.2-0.2-0.4-0.2-0.7c0-1.4-0.4-3-1.1-4.9c-3.3-8.7-4.9-17.7-5-26.9
			c0-0.5-0.2-0.6-0.5-0.2l-1.2,1.4c-0.1,0.1-0.2,0.4-0.2,0.7c0,1.2-0.6,2.1-1.7,2.7c-2.9,1.6-6,3.2-9.4,4.7
			c-0.2,0.1-0.3,0.3-0.2,0.5c0.3,0.7,0.4,1.5,0.2,2.2c-0.3,1.2-0.4,1.8-0.4,1.8c-0.1,1.3-0.2,2.6-0.3,3.9c0,0.2,0.2,0.4,0.4,0.3
			l4.5-0.9c0.5-0.1,1-0.1,1.6,0.1l3.7,1.3c0.2,0.1,0.4,0.2,0.5,0.4c0.7,1.9,2.2,2.6,4.2,2.1c0.3-0.1,0.5,0,0.5,0.2
			c0,0.2-0.3,0.6-0.8,1c-0.3,0.3-0.7,0.6-1.1,0.7c-1.1,0.4-1.5,1-1.4,1.6c0.1,0.3,0.1,0.5,0,0.7c-0.4,1.4-1,2.8-1.7,4.1
			c-0.6,1.1-1.5,2-2.8,2.8c-2.3,1.5-4.7,2.8-7.2,4.1c-0.4,0.2-0.6,0.6-0.5,1c0.8,4,0.9,8.1,0.3,12.2c0,0.2,0.1,0.3,0.3,0.3
			c2.9-0.6,5.7-1.4,8.5-2.5c0,0,0.3-0.1,0.7-0.2c0.6-0.2,1.1-0.6,1.4-1.3c0.2-0.5,0.7-0.7,1.2-0.5c0.8,0.3,1.2,0.1,1.3-0.7
			c0-0.2,0.2-0.4,0.4-0.4c0.8-0.1,1.1,0.4,0.7,1.5c-0.6,1.9-1.1,3.1-1.5,3.7c-0.8,1.1-1.1,2.4-1,3.9c0,0.4-0.1,0.8-0.3,1.1
			c-1,1.3-1.8,2.6-2.5,3.8c-0.7,1.2-1.5,2-2.4,2.6c-1.1,0.7-2.2,1.3-3.4,1.9c-1.8,0.8-3,1.4-3.5,1.7c-4.8,2.5-9.6,5.1-14.5,7.5
			c-1.4,0.7-3.2,1.9-5.4,3.4c-2.2,1.6-4.2,2.6-6,3.1c-5.9,1.7-10.3,0.1-13.2-4.8c-0.3-0.5-0.5-1.1-0.8-1.9c-0.2-0.7-0.4-1.3-0.7-2
			c-0.3-0.9-0.4-1.6-0.1-2.1c0.4-0.7,1.1-1.1,2.2-1.1c1.3-0.1,2.9-0.4,4.8-1.1c1.1-0.4,2.6-1.1,4.4-2c4.3-2.2,8.7-4.4,13.2-6.4
			c1-0.5,1.6-1.3,1.7-2.4c0.3-3.7,0-7.7-0.7-11.9c-0.1-0.3-0.4-0.5-0.6-0.3c-3.5,1.8-7.1,3.3-10.8,4.7c-1.4,0.5-2.8,0.4-4.1-0.4
			c-4.4-2.7-6.4-6.7-6.1-11.8c0-0.2,0.2-0.4,0.4-0.4c6.5-1.4,12.8-3.6,19-6.6c1.2-0.6,1.9-1.5,2.1-2.8c0.5-2.8,0.7-5.8,0.6-9
			c-0.1-1.5-0.8-2-2.2-1.5c-2.3,0.8-4.5,0.6-6.7-0.4c-0.2-0.1-0.5-0.1-0.7-0.1c-4.7,0.2-8.1-1.9-10.1-6.1c-0.7-1.6-0.9-3.3-0.5-5.1
			c0.2-0.9,0.7-1.5,1.6-1.7c1-0.3,2-0.4,3.1-0.4c1.9,0,2.9,0,3.1-0.1c3-0.3,5.5-0.9,7.6-1.7c3.8-1.6,7.6-3.2,11.3-5
			c3.6-1.7,6.2-2.8,8-3.2c1.4-0.3,2.9-0.2,4.6,0.4c0.4,0.1,1.1,0.3,2.2,0.5c0.8,0.2,1.5,0.5,2.1,1c0.1,0.1,0.5,0.3,1.1,0.8
			c0.5,0.3,0.7,0.8,0.8,1.4c0,0.3,0.1,0.5,0.3,0.6c0.8,0.5,1.6,0.6,2.5,0.3c0.2-0.1,0.3-0.3,0.3-0.5c-0.2-1.5,0.3-2.6,1.4-3.5
			c0.2-0.1,0.3-0.3,0.4-0.6c0.8-2.4,2.4-4,4.9-4.6c5.3-1.3,10.1-2,14.5-1.9c3.7,0,7-0.4,10.1-1.2c1.8-0.5,2.7-0.7,2.7-0.7
			c5.6-1.3,11.3-2.3,17-2.8c0.9-0.1,2.2-0.5,4-1.2c0.7-0.3,1.4-0.3,2.1,0c0.8,0.2,1.5,0.4,2,0.5c1.9,0.3,3.2,1.4,4,3.2
			c0.6,1.5,1.6,2.3,2.8,2.6c1.1,0.2,1.6,0.9,1.5,2c-0.2,4.1-0.7,8.1-1.3,12.1c-0.3,1.7-0.9,3.4-1.7,5.3c-2.2,4.7-4.1,9.5-5.6,14.5
			c-0.3,0.8-0.8,1.8-1.5,2.9c-1.2,1.7-1.8,3.7-1.9,5.9c0,0.2-0.1,0.5-0.2,0.7c-1.1,1.5-1.9,3.2-2.3,5.1c-0.1,0.2-0.2,0.5-0.4,0.6
			c-1.4,0.8-2.8,1-4.3,0.7c-1.7-0.3-2.5-0.5-2.6-0.5c-1.8-0.1-3.5-0.3-5.3-0.4c-0.2,0-0.4,0.1-0.6,0.3l-2.1,2.4
			c-0.2,0.2-0.2,0.2-0.2-0.1c0.2-1.2,0.1-2.4-0.4-3.7c-0.1-0.2-0.1-0.5,0-0.7c0.3-0.7,0.3-1.4,0.2-2.2c0-0.2-0.3-0.4-0.5-0.3
			c-0.6,0.1-0.8,0.6-0.7,1.5c0.4,3.3,0.7,6.5,0.6,9.7c0,0.5,0.5,0.9,1,0.8c3.4-0.9,6.7-1.5,10.1-1.6c0.2,0,0.3-0.1,0.1-0.3
			c-0.8-1-0.5-1.4,1-1.1c0.2,0,0.4-0.1,0.6-0.2c0.5-0.6,1-0.7,1.6-0.3c0.6,0.4,1,0.7,1.2,0.8c3,1.2,6.1,2.1,9.2,2.7
			c1.2,0.3,1.3,0.5,0.5,0.7c-0.1,0-0.3,0.1-0.5,0.1c-2.3,0.1-2.7,0.9-1.1,2.5c0.1,0.1,0.1,0.3-0.1,0.3c-0.7,0.2-1.1,0.7-1.3,1.3
			c-0.1,0.3-0.2,0.5-0.4,0.5l-1.9,1c-0.2,0.1-0.3,0.3-0.2,0.5c0.1,0.6-0.1,1.1-0.7,1.3c-0.1,0.1-0.3,0.2-0.6,0.4l-1,0.9
			c-0.1,0.1-0.4,0.2-0.7,0.1c-3.8-0.7-6.3-0.9-7.5-0.7c-4,0.6-7.9,1.2-11.9,1.7c-0.3,0-0.5,0.3-0.4,0.4c0.1,0.1,0.3,0.2,0.7,0.1
			c1.3-0.2,2,0,2.1,0.7c0.5,2.5,0.6,4.9,0.4,7.3c-0.1,0.7,0.5,1.3,1.2,1.3c5-0.1,9.8-0.5,14.6-1.1c1.9-0.2,4.5-0.1,7.9,0.5
			c0.9,0.2,2,0.5,3.2,1.1c0.7,0.3,1.4,0.6,2.1,0.9c0.8,0.3,1.4,0.6,2,1c1,0.7,2.1,1.3,3.1,1.9c1,0.5,2,1.2,3,2
			c1.9,1.5,4.1,2.8,6.4,3.7c0.2,0.1,0.4,0.3,0.5,0.5c0.3,0.9,0,1.2-0.8,1c-0.5-0.2-0.8-0.2-1-0.2c-0.4,0-0.7,0.2-1,0.4
			c-0.2,0.1-0.4,0.2-0.7,0.2c-0.9,0-1.1,0.5-0.5,1.4c0.3,0.4-0.1,1-0.7,1.1l-3,0.6c-0.2,0-0.3,0.3-0.3,0.5c0.5,1.8,0.3,3.6-0.5,5.4
			c-0.1,0.2-0.3,0.3-0.5,0.2c-2.8-0.7-6.8-2.1-12.2-4.1c-2.5-0.9-5.3-1.6-8.5-1.9c-2.3-0.3-5.2-0.2-8.6,0.1
			c-11.9,1.1-19.1,1.9-21.5,2.4c-8.6,1.9-17.2,3.1-26,3.5c-1.5,0.1-2.7-0.2-3.7-0.7c-1.7-1-3-2.5-3.8-4.4c-0.7-1.6-0.6-2.9,0.5-3.8
			c0.3-0.2,0.7-0.1,0.8,0.2c0.3,0.8,0.6,1.2,0.9,1.4c0.2,0.1,0.4-0.1,0.4-0.3c0.2-1.6,0.7-3.1,1.5-4.4c0.1-0.1,0.1-0.2,0.1-0.3
			c-0.3-2.1,0-2.6,0.9-1.4c0.2,0.2,0.4,0.4,0.6,0.4c1,0.4,2,0.2,2.9-0.4c0.1,0,0.3-0.1,0.7-0.3l1.6-0.6c0.2-0.1,0.4,0,0.5,0.1
			c0.4,0.5,0.9,0.7,1.7,0.6c1.9-0.3,3.4-0.6,4.5-1c1.7-0.6,3.5-0.8,5.3-0.6c0.7,0.1,2.8-0.4,6.1-1.5c1-0.3,1.9-0.9,2.5-1.6
			c0.4-0.5,0.8-1,1.2-1.6c0.4-0.5,0.6-1.2,0.7-1.9c0.2-1.9,0.4-4,0.4-6.1c0-0.4-0.4-0.7-0.8-0.6c-4.1,1.3-8.2,2.4-12.1,3.4
			c-1.5,0.4-2.7,0.3-3.6-0.1c-1.4-0.7-2.1-1.9-2-3.6c0-0.8,0.3-1.7,0.9-2.6c0.5-0.8,1-1.6,1.5-2.4c0.6-1,1.5-2,2.7-3
			C790.9,151.4,791.8,150.5,792.8,149.5L792.8,149.5z M820,105.8c-0.1,0.5-0.3,1-0.7,1.4c-0.5,0.6-0.3,0.9,0.4,0.9
			c1.6,0,3.3,0.1,4.9,0.2c0.3,0,0.5,0.1,0.7,0.3c0.8,0.7,1.4,1.6,1.9,2.6c0.3,0.7,0.6,0.7,0.9,0c1.5-4.3,2.5-8.7,3-13.3
			c0.1-0.5-0.3-0.9-0.8-0.8l-9.2,1.3c-0.7,0.1-1.2,0.8-1.1,1.5C820.5,102.1,820.4,104.1,820,105.8L820,105.8z M803.3,102
			c-4.8,0.1-9.4-0.3-14-1c-0.3,0-0.5,0.2-0.4,0.4l2.3,12.6c0.1,0.2,0.3,0.4,0.5,0.3l11.9-2.7c0.2,0,0.4-0.2,0.4-0.5l-0.3-8.8
			C803.7,102.2,803.5,102,803.3,102L803.3,102z M781.3,105c0.8,0.5,1.1,0.1,0.8-1.3c-0.1-0.5-0.7-0.8-1.1-0.6
			c-2.3,0.9-2.5,1.5-0.4,1.7C780.8,104.8,781.1,104.8,781.3,105L781.3,105z M823.9,116.4l-5,0.9c-0.2,0-0.4,0.3-0.3,0.5l0.2,1
			c0.1,0.2,0,0.5-0.1,0.6c-1.3,1.4-1.6,3-0.8,4.8c0.1,0.2,0.3,0.4,0.5,0.4l4.5,0c0.2,0,0.4-0.1,0.6-0.3c1.4-2.5,2.4-5.1,2.9-7.9
			c0.2-1.4-0.1-1.7-1.2-1c-0.3,0.2-0.5,0.5-0.7,0.8C824.3,116.2,824.1,116.3,823.9,116.4L823.9,116.4z M803.2,121.2l-9.8,2.9
			c-0.5,0.1-0.7,0.8-0.4,1.2c1,1.5,1.7,3.2,2.1,5.1c0.2,1.3,0.9,1.7,2.1,1.2l5.3-2.3c0.5-0.2,0.8-1,0.8-2.2l0.3-5.6
			C803.6,121.3,803.4,121.2,803.2,121.2z"/>
		<path class="st1" d="M793.4,150.2c-0.1,0.1-0.3,0.1-0.4,0.1c0.2-0.4,0.1-0.6-0.2-0.8C793.9,148.2,794.1,148.4,793.4,150.2z"/>
		<path class="st1" d="M793.4,150.2c0.1,0,0.1,0.1,0.1,0.2c-0.3,0.2-0.5,0.5-0.7,0.8c-0.1,0.2-0.1,0.3-0.2,0.3
			c-0.6,0.5-0.8,0.4-0.4-0.5c0.1-0.2,0.3-0.5,0.8-0.8C793.1,150.3,793.3,150.3,793.4,150.2z"/>
	</g>
	<path class="st0" d="M1188.1,169.2c-0.1,0.3-0.1,0.6,0,0.9c0.1,0.9-0.4,1.4-1.4,1.5c-1.2,0.1-1.4,0.3-0.6,0.7
		c0.1,0.1,0.3,0.1,0.6,0.2c1.9,0.4,2.3,1.2,1,2.3c-0.2,0.2-0.4,0.2-0.6,0.2c-8.3-0.1-16.6,0.2-25,0.9c-0.7,0.1-1.2,0.7-1.2,1.4
		c0.2,6,0.2,12-0.1,17.8c-0.1,2.9-0.3,4.5-0.4,5c-0.5,1.7-1.5,3.1-3.1,4.2c-0.3,0.2-0.8,0.9-1.6,2c-0.6,0.9-1.2,1.5-1.8,1.8
		c-1.5,0.9-3.3,1.5-5.6,1.7c-2.9,0.2-6.9,0.2-12.1-0.1c-1.6-0.1-2.9-0.3-3.8-0.7c-0.7-0.3-1-0.4-1.1-0.4c-4.6-1.5-9.1-3-13.6-4.8
		c-2-0.7-3.4-1.7-4.2-3c-0.1-0.2,0-0.4,0.1-0.5c1.5-0.6,2.6-0.2,3.4,1.3c0.3,0.6,1,0.9,1.6,0.8c1.1-0.2,1.5,0.1,1.3,0.9
		c-0.1,0.2,0,0.4,0.2,0.5c0.9,0.2,2,0.2,3.3-0.1c0.3-0.1,0.3-0.2,0.1-0.4c-2.2-2.1-4.4-3.6-6.7-4.4c-0.2-0.1-0.3-0.2-0.5-0.5
		l-1.1-1.9c-0.1-0.2-0.2-0.5-0.1-0.6c0.3-0.5,0.8-0.7,1.4-0.6c0.2,0,0.4,0.2,0.6,0.4c1.4,1.8,3.4,2.5,5.9,2.1
		c0.7-0.1,0.7-0.3,0.1-0.7l-2.3-1.4c-0.2-0.1-0.3-0.4-0.2-0.6c0.1-0.3,0.5-0.3,1,0c1.4,0.9,3.3,1.3,5.6,1.3c5.6,0,11.1-0.6,16.5-1.7
		c0.2,0,0.5-0.2,0.6-0.4c0.7-1,1.1-2.1,1.1-3.4c0.1-3,0.3-6.1,0.5-9.4c0-0.2-0.1-0.5-0.2-0.7c-0.8-0.9-1-1.9-0.7-2.9
		c0.1-0.5-0.2-1-0.7-1c-1.7-0.1-3.5,0.1-5.2,0.4c-5.1,1-10.2,2.2-15.2,3.6c-1.7,0.5-3.1,0.6-4.2,0.3c-1.6-0.4-3.1-1.2-4.4-2.4
		c-1-1-2.2-1.7-3.5-2.3c-0.2-0.1-0.2-0.3-0.1-0.4l0.5-0.7c0.1-0.2,0.1-0.4,0-0.6c-0.8-0.9-1.7-1.4-2.9-1.7c-0.6-0.1-0.6-0.4-0.1-0.8
		c0.2-0.1,0.2-0.4,0.2-0.6c-0.2-0.8-0.1-1.4,0.4-2.1c0.2-0.2,0.2-0.5,0.2-0.7c0-1.3-0.3-2.5-1.1-3.6c-0.1-0.2-0.1-0.4,0-0.6
		c1.1-1.6,1.8-1.2,2.1,1.2c0,0.3,0.3,0.4,0.5,0.3l3-1.2c0.2-0.1,0.4,0,0.5,0.1l0.7,0.7c0.1,0.1,0.4,0.2,0.7,0.1
		c8.4-1.5,17-2.7,25.7-3.6c1.1-0.1,1.6-0.8,1.5-1.9l-0.2-3.1c-0.1-0.8,0.2-0.9,0.8-0.3c1.7,1.7,2.2,1.5,1.5-0.6
		c-0.3-0.8-0.5-1.4-0.6-1.9c-0.3-0.9,0-1.1,0.9-0.8c2.5,1.1,4.1,0.2,4.6-2.4c0-0.2-0.1-0.3-0.3-0.3c-3,0.9-6.1,1.9-9,3
		c-1.8,0.7-3.5,1.3-4.9,1.7c-1.7,0.5-3.3,0.9-5,1.4c-2.5,0.7-5.2,0.5-8.3-0.5c-0.5-0.2-0.8-0.5-1.1-0.9c-1.8-3.4-1.2-6.2,1.8-8.3
		c0.2-0.1,0.5-0.4,0.8-0.8c0.4-0.5,0.9-0.5,1.4,0c0.4,0.4,0.6,0.5,0.7,0.5c0.3,0,0.5-0.4,0.5-1.3c0-0.6,0.3-1.1,0.7-1.3l2.4-1.4
		c0.2-0.1,0.3-0.3,0.3-0.5c0-1.1,0.6-1.5,1.9-1.1c0.9,0.3,1.9,0.4,2.9,0.1c3.1-0.8,6.2-1.4,9.2-1.8c0.1,0,1.5-0.2,4.2-0.7
		c1.5-0.2,2.9-0.3,4.4-0.2c0.6,0,1.6,0,3.1-0.1c1-0.1,2,0,3.1,0.3c1,0.3,1.3-0.1,0.8-1c-1-1.7-2.2-2.7-3.5-3c-0.4-0.1-1.8,0-4.2,0.4
		c-6.7,1-13.4,2.3-20.1,3.9c-2,0.5-4.3,0.8-7.1,1.2c-2.9,0.3-5.8,0.8-8.6,1.6c-3.1,0.8-5.2,1.3-6.1,1.4c-2,0.3-4.1,0.4-6.3,0.4
		c-0.6,0-1.1,0.3-1.4,0.8c-2.4,3.9-5.2,7.7-8.2,11.5c-0.4,0.5-0.8,1-1.1,1.6c-0.1,0.2-0.3,0.4-0.5,0.5l-4.7,2
		c-0.2,0.1-0.5,0.1-0.7,0l-1.9-1.1c-1.4-0.9-2.3-1.6-2.5-2.2c-1.3-3.3-1.7-6.7-1-10.1c0-0.2,0.2-0.4,0.4-0.6
		c0.6-0.5,1.1-1.1,1.5-1.8c0.5-1,0.9-1.6,1.2-1.9c0.7-0.9,1.4-1.9,2-2.9c0.6-1,1.3-1.9,2.2-2.7c2.6-2.5,4.6-5.4,6.2-8.7
		c0.1-0.2,0.3-0.3,0.5-0.2c3.4,2,6,4.6,8,8c0.1,0.2,0.3,0.3,0.5,0.2l9.4-1.9c0.2,0,0.3-0.2,0.3-0.4c-0.3-1.1-1-2.1-2-3
		c-0.2-0.2-0.3-0.5-0.3-0.8c0.5-3.9,0.7-7.6,0.6-11.3c-0.2-5.9-0.6-11.9-1.3-17.8c-0.4-3.4-1.7-6.4-3.8-9.1
		c-0.4-0.5-0.7-1.1-0.8-1.7c-0.2-1,0.2-1.4,1.1-1.5c1,0,1.9-0.1,2.9-0.1c1.2-0.1,2.1,0.1,2.8,0.4c2.7,1.1,4,3.2,3.7,6.2
		c-0.3,3.5-0.3,6.3,0,8.3c0.4,2.9,0.9,5.9,1.5,8.8c1.1,5.6,1.9,11.3,2.5,17.2c0,0.3,0.1,0.3,0.3,0.1c1-1.2,1.4-2.5,1.4-4
		c0-1.5-0.1-3.1-0.2-4.6c-0.1-1.4-0.1-2.9-0.1-4.6c0.1-5.7-0.3-11.4-1.4-17.1c0,0-0.4-1.5-1.1-4.5c-0.5-2.1-0.8-4.2-0.8-6.4
		c0-1.3-0.2-2.3-0.5-3.2c-0.4-1-0.8-2-1.3-3c-0.8-1.6-0.9-3.1-0.1-4.4c0.6-1.1,1.7-1.7,3.2-2c3.7-0.6,6.8,0.7,9.3,4
		c0.3,0.3,0.6,0.7,0.9,1c0.1,0.1,0.2,0.4,0.3,0.6l0.8,4.4c0,0.2,0.2,0.3,0.4,0.1c4.4-3,5.4-6.8,3.1-11.4c-0.2-0.4-0.3-0.8-0.2-1.2
		l1.3-5.8c0-0.2,0.3-0.3,0.5-0.2c4.3,1.5,7,2.6,7.9,3.4c1.2,1,1.9,2.3,2,3.9c0.1,0.8,0.4,1,1,0.5l1.8-1.4c0.2-0.2,0.4-0.3,0.7-0.3
		c1.1-0.1,2.2-0.3,3.3-0.6c1.5-0.3,2.6-0.4,3.2-0.3c1.8,0.3,3.2,1.3,4.3,3.1c0.1,0.2,0.2,0.4,0.1,0.7c-0.1,1.4,0.6,2.1,2.2,2.1
		c3.3-0.1,6.3-0.6,8.9-1.4c0.2-0.1,0.4-0.2,0.6-0.4c0.3-0.5,0.6-1.1,0.7-1.7c0-0.2,0.2-0.4,0.4-0.4c1.2-0.2,2.4-0.1,3.6,0.1
		c1.1,0.2,2.2,0.7,3.1,1.5c4.5,3.9,5.4,8.7,2.7,14.4c-1,2.1-2,5.4-3,10.2c-1.8,8.2-3.8,16.5-5.9,25c-0.1,0.4,0.2,0.7,0.5,0.8
		c4,0.3,7.9,0.5,11.7,0.6c3.1,0.1,5.4,0.4,6.9,0.9c2.3,0.8,4.3,1.9,6.2,3.5c1.2,1,1.9,2.1,2.2,3.4c0.4,1.9,0.1,3.8-0.9,5.5
		c-0.6,1.1-1.6,1.9-3,2.5c-2.2,0.9-4.4,1.3-6.5,1.3c-2.8,0-4.9,0-6.3,0.1c-4.4,0.3-8.7,0.4-13,0.1c-0.7,0-1.3,0.5-1.3,1.2
		c0,0.7-0.2,1.3-0.6,1.9c-2.8,4.1-4.8,6.6-5.8,7.5c-1.7,1.5-3.4,3.3-5.1,5.4c-0.3,0.4-0.2,0.6,0.3,0.5c6.4-0.6,12.6-0.8,18.7-0.6
		c0.1,0,1.1,0,3.1,0c2.5,0,5.2,0.5,8.1,1.3c0.4,0.1,0.4,0.3,0.1,0.4l-3,1.8c-0.4,0.2-0.3,0.3,0.1,0.4l1.7,0.1c0.3,0,0.5,0.3,0.4,0.6
		c-0.3,1.2-0.7,2.2-1.3,3c-0.1,0.2-0.1,0.4,0.1,0.5C1187.8,169.2,1187.9,169.2,1188.1,169.2L1188.1,169.2z M1137.3,109.4
		c-0.6-1.1-1.2-1.9-1.8-2.3c-1.4-1-1.8-2.3-1.1-3.7c0.1-0.2,0.2-0.5,0.1-0.7l0.1-8.4c0-0.3-0.3-0.5-0.5-0.4
		c-2.7,0.9-4.3,2.8-4.8,5.7c-0.6,3.7-0.4,8.6,0.5,14.9c0,0.2,0.2,0.3,0.4,0.3c3.4-0.8,6.4-2.4,9-4.9c0.1-0.1,0.1-0.4-0.1-0.4
		c-0.5-0.2-1-0.1-1.4,0.2C1137.6,109.6,1137.4,109.5,1137.3,109.4L1137.3,109.4z M1157.5,84.4c-1.3,0.4-2.5,0.7-3.8,1
		c0,0-0.5,0.1-1.5,0.2c-1.4,0.2-2.4,1-2.8,2.2c-0.7,1.7-1.2,3.5-1.7,5.4c0,0.2,0.1,0.4,0.3,0.4c2.5,0.5,4.8,1.2,6.9,2.2
		c1.2,0.5,2.1,0.8,2.8,0.9c1,0.1,2,0.1,3,0c2.1-0.3,4.3-0.4,6.8-0.4c0.3,0,0.6-0.2,0.6-0.5l1.2-5.6c0.1-0.4-0.2-0.8-0.6-0.8
		c-4.1-0.4-7.3-1.9-9.6-4.6C1158.7,84.4,1158.1,84.2,1157.5,84.4L1157.5,84.4z M1133.2,127c1.1-0.2,2.2,0,3.3,0.8
		c1,0.8,1.8,0.7,2.3-0.4l1.5-3.4c0.1-0.3,0.1-0.3-0.2-0.1c-2.5,1.8-5.3,2.4-8.3,2c-0.2,0-0.4,0.1-0.4,0.3l0.1,4.6
		c0,0.3,0.3,0.6,0.7,0.5l4.1-0.8c0.9-0.2,0.9-0.4,0-0.6c-1.4-0.4-2.5-1.2-3.3-2.4C1132.9,127.3,1133,127.1,1133.2,127L1133.2,127z
		 M1157.9,106l-0.6,5c0,0.3,0.2,0.5,0.5,0.5c1.8-0.2,3.7-0.4,5.5-0.6c0,0,0.3,0,0.7,0c0.9,0,1.3-0.5,1.4-1.4c0-0.2,0.1-0.5,0.2-0.7
		c0.3-0.6,0.3-1.2,0.1-1.7c-0.1-0.2-0.3-0.3-0.5-0.2c-2.2,0.7-4.3,0.3-6.3-1.3C1158.4,105.1,1158,105.3,1157.9,106L1157.9,106z
		 M1153.5,128l7.3-0.8c0.2,0,0.4-0.2,0.5-0.4l1.5-5.9c0.1-0.3-0.1-0.7-0.5-0.8c-1-0.3-2.1-0.4-3.3-0.3c-0.5,0.1-0.9,0-1.3-0.1
		c-0.4-0.1-0.8-0.3-1.3-0.4c-0.3-0.1-0.6,0.1-0.7,0.3l-2.7,7.8C1153,127.8,1153.2,128.1,1153.5,128L1153.5,128z M1112.9,173.5
		c0.1-0.5-0.1-0.8-0.6-1.2c-0.2-0.1-0.4-0.1-0.6,0.1c-0.6,0.8-0.3,1.2,0.7,1.4C1112.7,173.9,1112.9,173.7,1112.9,173.5L1112.9,173.5
		z M1170.1,141.4c3-0.8,6-2,9-3.5c1.2-0.7,1.2-1.1-0.2-1.2c-3.2-0.4-6.5-0.7-9.9-1.1c-1.6-0.2-3.3,0.2-5,1.2
		c-0.2,0.1-0.5,0.2-0.7,0.2c-1.7-0.1-1.7,0.2-0.2,0.9c0.2,0.1,0.4,0.2,0.6,0.3c1,0.8,2.1,1.7,3.4,2.8
		C1168,141.4,1169,141.6,1170.1,141.4L1170.1,141.4z M1173.1,144.3c0.7-0.1,1.4-0.4,2.2-0.9c0.4-0.3,0.4-0.4-0.1-0.5
		c-1.5-0.3-3-0.3-4.4,0c-0.4,0.1-0.5,0.3-0.1,0.5C1171.7,144.1,1172.4,144.4,1173.1,144.3z"/>
	<g>
		<path class="st0" d="M658.1,133.9c-0.2-0.7-0.6-1.3-1.2-1.7c-0.2-0.1-0.3-0.3-0.3-0.6c-0.3-5.5-0.2-10.9,0.4-16.3
			c0.4-3.4,0.6-6.5,0.7-9.2c0.1-4,0.4-8,0.8-12c0.2-2,0.3-3.6,0.2-4.7c-0.1-1.7-0.3-3.2-0.6-4.7c-0.5-2.2-1.7-2.8-3.4-1.8
			c-0.2,0.1-0.4,0.1-0.5-0.1c-1.3-1.9-1.2-3.5,0.3-4.8c1.4-1.2,2.1-1.9,2.2-2c1.3-1.3,3-2.1,5-2.5c2.1-0.4,4-0.1,5.6,0.7
			c1.1,0.5,2.5,1.6,4.4,3.2c3.8,3.2,5.2,7.4,4.4,12.5c-0.3,2.1-0.7,4.2-1.1,6.2c-0.8,3.8-1.2,7.6-1.4,11.5
			c-0.1,2.3-0.1,6.1-0.1,11.5c0,3.8,0.2,8,0.5,12.6c1,14.4,1.1,28.3,0.1,41.9c-0.4,6.2-0.6,11.9-0.6,17.1c0,1.8-0.3,3.2-0.8,4.3
			c-0.7,1.3-1.6,2.5-2.8,3.5c-0.2,0.1-0.4,0.2-0.6,0.1c-1.3-0.3-2.3,0.1-3,1.2c-0.1,0.2-0.4,0.3-0.6,0.3l-0.7-0.2
			c-0.2,0-0.4,0-0.5,0.2c-0.3,0.7-0.9,1.2-1.7,1.3c-1.3,0.2-2.6,0.2-3.9,0c-0.9-0.1-1.5,0.1-1.8,0.7c-0.2,0.4-0.4,0.4-0.6,0
			c-1-2.3-2.5-4-4.5-5c-0.6-0.3-1.4-0.5-2.5-0.7c-0.9-0.1-1.8-0.3-2.6-0.5c-0.9-0.2-1.4-0.7-1.4-1.5c0-0.2-0.1-0.4-0.3-0.6l-0.4-0.4
			c-0.2-0.2-0.1-0.3,0.1-0.3l3.6-0.7c0.9-0.2,0.9-0.5,0.1-0.9c-2.5-1.3-5.2-2.1-7.9-2.5c-0.2,0-0.4-0.1-0.6-0.1
			c-0.7-0.3-0.6-0.5,0.1-0.7c0.2,0,0.3,0,0.6,0c2.1,0.3,2.2-0.2,0.5-1.5c-0.1-0.1-0.1-0.3,0-0.4c0.8-0.4,1.4-0.6,2.1-0.5
			c2.5,0.2,5.1,0.5,7.6,1c1.3,0.3,1.9-0.3,1.8-1.6c-0.2-1.4-0.2-2.6,0-3.8c0.3-1.5,0.3-3,0.3-4.5c0-0.8,0.1-1.6,0.3-2.2
			c0.2-0.6,0.5-1.2,0.8-1.7c0.1-0.2,0.1-0.5,0.1-0.7c-0.3-2.5-0.4-4.5-0.2-5.8c1.1-10.2,1.7-20.4,1.9-30.7c0-0.2,0.1-0.4,0.3-0.5
			l1.5-1C658.1,134.4,658.2,134.2,658.1,133.9L658.1,133.9z M647.3,194.3c0,0.2,0.3,0.3,0.7,0.3c0.4,0,0.7-0.1,0.7-0.3
			c0-0.2-0.3-0.3-0.7-0.3C647.7,194,647.3,194.1,647.3,194.3z"/>
		<path class="st0" d="M582.3,137.5c0.3-1.3,0.1-1.3-0.6-0.2c-3.1,4.9-7.5,7.3-13.2,7.3c-0.8,0-1.5-0.3-2.1-0.7
			c-1.2-1-2.1-2.3-2.7-4c-0.6-1.7-1.1-3.4-1.6-5.1c0,0-0.2-0.6-0.6-1.6c-0.5-1.3-0.3-2.5,0.5-3.7c1-1.4,1.5-2.2,1.6-2.4
			c1.6-3.1,3.4-6.3,5.5-9.5c0.1-0.2,0.4-0.3,0.6-0.2c2.8,0.8,5.4,1.2,7.8,1.2c1.1,0,2-0.4,2.8-1c0.6-0.5,1.2-1.1,1.6-1.8
			c0.4-0.6,0.7-1.3,0.9-2.2c0.6-3.3,1-6.6,1.1-9.9c0.1-2.9,0.3-5.1,0.7-6.8c0.2-0.7,0.7-1.1,1.5-1.2c0.3,0,0.5-0.1,0.6-0.3
			c0.4-0.4,0.7-0.9,1-1.4c0.4-0.6,0.7-1.1,1-1.4c0.7-0.7,1.6-1.4,2.5-2c0.9-0.6,1.9-0.8,2.9-0.7c2.5,0.2,4.8,1.3,6.7,3.2
			c1.5,1.5,2.2,3.5,2.1,6c0,1.3-0.1,2.4-0.3,3.3c-0.3,1.7-0.5,2.7-0.5,3.2c-0.1,3.3-0.4,6.7-0.8,10.2c-0.1,1,0.3,1.5,1.4,1.4
			c2.4-0.3,4.7,0.1,6.8,1.2c1.2,0.6,2.3,0.4,3.1-0.7c2.4-3.1,4.4-6.8,6.2-11c0.4-1,0.6-3.3,0.6-7c0-0.9-0.2-2-0.6-3.5
			c-0.4-1.4-0.5-2.8-0.4-4.2c0-0.2,0.1-0.4,0.4-0.5l1.8-1.1c0.2-0.1,0.3-0.3,0.3-0.6c0.1-1.2,0.6-2,1.5-2.4c0.8-0.4,1.7-0.7,2.5-0.8
			c0.7-0.1,1.4,0,2,0.3c0.8,0.5,1.4,0.8,1.7,0.9c1.1,0.4,2.1,1,3.1,1.8c1.3,1.1,2.2,1.9,2.6,2.3c1.6,1.5,2.5,3.4,2.6,5.7
			c0,1.1-0.2,2.6-0.6,4.3c-1.2,4.9-1.8,10.1-1.9,15.4c0,0.5,0.4,0.8,0.9,0.7c3.7-0.8,7-0.9,10-0.4c1.1,0.2,2.1-0.1,2.8-1
			c4-4.9,6.4-10.2,7.1-15.9c0,0,0-0.1,0-0.1c0.1-0.2,0.2-0.2,0.2,0.1c-0.1,4-0.7,7.9-1.8,11.8c-0.5,1.6-0.7,3.1-0.8,4.5
			c-0.1,1.5-0.2,3-0.4,4.6c0,0.3,0,0.6,0.2,0.8c0.8,1.6,1,2.9,0.4,4c-0.6,1.2-1.1,2.4-1.6,3.6c0,0-0.2,0.5-0.4,1.3
			c-0.4,1.1-1.1,1.7-2.1,1.9c-1.2,0.2-1.8,0.3-1.8,0.3c-0.9,0.3-1.6,0.7-2.4,1.1c-0.9,0.6-1.8,0.6-2.7,0.1c-2.4-1.2-4.4-2.8-6-4.8
			c-0.7-0.8-0.9-0.7-0.8,0.3c0.2,2.1,0.4,4.3,0.5,6.5c0.1,1.9,0.1,4,0,6.5c-0.4,8.9-0.5,15.9-0.4,20.9c0.2,7-3.2,10.8-10.2,11.5
			c-2.7,0.2-4.8-0.7-6.2-2.8c-0.8-1.2-1.3-2.1-1.7-2.9c-0.4-1-0.6-2.1-0.6-3.4c0.4-7.5,0.9-18.3,1.3-32.4c0-0.2,0-0.4-0.1-0.5
			c-0.3-0.8-0.5-0.7-0.7,0.2c0,0.2,0,0.3,0,0.6c0.1,1.1-0.2,2.1-0.8,3c-0.4,0.6-1.2,1.2-2.4,1.8c-1.8,0.9-3.6,1.8-5.4,2.7
			c-0.4,0.2-1.7,0.4-3.7,0.4c-0.2,0-0.5-0.1-0.7-0.2c-1.5-1.3-2.6-2.9-3-4.7c-0.5-1.7-0.9-3-1.2-4c-0.1-0.2-0.1-0.2-0.2,0
			c-0.4,2.8-0.9,5.6-1.5,8.4c-0.8,3.9-1.4,6.7-1.7,8.3c-2.1,9.3-5.7,18-10.6,26.3c-1.7,2.8-3.8,5.3-6.2,7.5c-1.1,1-2,1.5-2.9,1.6
			c-1,0.1-2.2-0.2-3.4-0.7c-0.4-0.2-0.9-0.2-1.3,0.1c-1.2,0.7-2.5,1-3.9,0.7c-0.2,0-0.5,0-0.7,0.1c-1.1,0.5-2.1,1-3.2,1.4
			c-0.3,0.1-0.5,0.1-0.8,0.1c-0.4-0.2-0.4-0.5-0.1-1c9-12.7,14.7-26.6,17.2-41.9C581.4,141.6,581.8,139.4,582.3,137.5z"/>
	</g>
	<g>
		<g>
			<path class="st0" d="M1011.4,152.2c-3.8-1.5-7.8-2-11.9-1.5c-0.6,0.3-0.6,0.7-0.1,1.2c0.8,0.2,1.5,0,2-0.6
				c0.2-0.2,0.2-0.2,0.1,0.1c-0.3,1-1,1.2-2.1,0.6l-2.5-1.2c-2.2,0.2-3.7,0.2-4.5,0.1c-0.5-0.1-0.6-0.4-0.1-1c-4.8,0-9.6,0-14.5,0.2
				c-0.4,0-0.7,0-1.1,0.1c-2.9,0.5-2.8,1,0.3,1.5c1,0.6,2.1,0.9,3.3,0.8c1,0.4,2.1,0.6,3.4,0.7c7.2,0.2,13.2,0.3,18.1,0.3
				c0.3-0.4,0.3-0.7-0.1-1c-0.2-0.1-0.2-0.3-0.2-0.4c0.1-0.5,0.2-0.4,0.6,0.2l6.5,0.8c0.2-0.1,0.4-0.1,0.6,0.1l2.3,0.3
				c0.2-0.1,0.3-0.4,0.3-0.6C1011.5,152.6,1011.4,152.4,1011.4,152.2L1011.4,152.2z M948.3,150.5c0,0.2-0.7,0.6-1.6,0.7
				c-0.9,0.1-1.7,0-1.7-0.2c0-0.2,0.7-0.6,1.6-0.7C947.5,150.1,948.3,150.2,948.3,150.5L948.3,150.5z M1015.5,152.9
				c1.3-0.2,2.2,0.2,2.8,1.3c0.4,0.1,0.6,0.3,0.8,0.6c0.1,0.2,0.3,0.4,0.5,0.4l9.2,1.9c0.2,0,0.5,0,0.7-0.1c1.3-0.6,2.6-0.6,3.9-0.3
				c0.2,0.1,0.4,0.2,0.4,0.5l1,4c0.1,0.3,0,0.5-0.2,0.6l-2.4,1.7c-0.2,0.2-0.3,0.3-0.4,0.5c-0.1,1.2-0.4,2.4-0.8,3.5
				c0,0.1-0.1,0.4-0.2,0.9c-0.2,0.7-0.7,0.8-1.5,0.3c-0.2-0.1-0.4-0.2-0.7-0.1c-1.8,0.5-3,1.7-3.6,3.6c-0.4,1.1-1.1,1.6-2.3,1.5
				c-0.7-0.1-1.6-0.1-2.4-0.1c-0.9,0-1.7,0-2.4-0.1c-2.9-0.6-5.8-1-8.8-1.4c0,0-2.2-0.4-6.6-1.1c-2.7-0.4-5.6-0.7-8.8-0.6
				c-4.9,0.1-7.9,0.1-8.8,0.2c-2.2,0.2-4.5,0.2-6.7,0.1c-3.4-0.2-5.6-0.3-6.6-0.3c-2.3,0-4.6-0.1-6.9-0.2c-0.2,0-0.5,0-0.7,0.2
				c-1.8,1.1-3.3,1.8-4.5,2c-1.3,0.3-2.3,0.8-2.9,1.5c-0.1,0.1-0.2,0.4-0.3,0.6c-0.2,1.2-0.8,2-1.9,2.7c-0.2,0.1-0.4,0.2-0.7,0.1
				c-3.1-0.6-5.4-2.3-6.9-5.1c-0.2-0.4-0.6-0.6-1-0.6c-2.2,0-4.4,0.3-6.6,0.8c-4.1,0.9-8.3,1.9-12.4,2.9c-2.2,0.5-4.9,1.6-8.1,3.2
				c-2.8,1.4-4.8,2.2-6.1,2.3c-2.7,0.2-5.2-0.6-7.5-2.5c-0.2-0.1-0.4-0.2-0.7-0.2c-1.1,0.1-1.8-0.4-2.1-1.5c-0.1-0.2,0-0.4,0.1-0.7
				c0.4-0.6,0.5-1.3,0.4-2c-0.2-0.8-0.2-1.2-0.2-1.2c-0.1-1.1-0.2-2.2-0.4-3.3c-0.6-4.3,1-7.5,4.7-9.6c0.2-0.1,0.3-0.4,0.3-0.5
				c0-0.2-0.1-0.3-0.3-0.5c-0.2-0.2-0.2-0.4-0.2-0.6c0.2-0.7,0-1.4-0.5-1.9c-0.2-0.2-0.3-0.4-0.3-0.6c0-0.5,0.3-0.9,0.9-1
				c0.3-0.1,0.6,0,1.1,0.1c2.3,0.6,4.6,0.6,7-0.1c0.2-0.1,0.4,0,0.6,0.2l0.2,0.3c0.1,0.2,0.3,0.3,0.5,0.2c1.8-0.2,3.5-0.6,5.1-1.1
				c2.5-0.8,3.8-1.2,3.9-1.2c2.1-0.5,3.4-0.8,4-0.8c2,0.1,4-0.2,5.9-0.9c1.9-0.6,3-0.7,3.5-0.2c0.3,0.3,0.3,0.5,0.2,0.8
				c-0.1,0.1-0.3,0.2-0.6,0.3c-0.9,0.2-1.8,0.3-2.7,0.4c-0.3,0-1.2,0.1-2.7,0.3c-1.1,0.2-2.1,0.1-3.2-0.2c-0.3-0.1-0.5-0.1-0.7,0
				l-7.3,2.1c-0.3,0.1-0.5,0.2-0.6,0.4c-0.2,0.4,0.1,0.5,0.9,0.3c1-0.2,2-0.5,3-0.9c0.3-0.1,0.5-0.1,0.7-0.1c0.8,0.2,0.6,0.5-0.5,1
				c-1.6,0.6-1.6,0.8,0.1,0.7c3.2-0.2,6.3-0.8,9.3-1.7c2.1-0.7,3.9-1.1,5.4-1.2c3.5-0.4,7-0.7,10.6-1c0.5,0,0.9-0.5,1-1
				c0-1,0.4-1.8,1.1-2.5c0.2-0.2,0.2-0.4,0.1-0.6c-0.3-0.7-0.3-1.3-0.2-2c0.7-4.3,1.3-9.1,2-14.3c0.1-1.2-0.3-1.6-1.5-1.1
				c-0.3,0.1-0.7,0.4-1.4,0.8c0,0-0.4,0.3-1,0.8c-0.6,0.5-1.3,0.7-2,0.8c-1.3,0.1-1.9,0.2-2.1,0.2c-1.7,0.4-3.5,0.7-5.3,0.9
				c-2.9,0.4-5.3-0.5-7.4-2.6c-0.7-0.7-1.2-1.3-1.6-1.7c0,0-0.4-0.4-1.2-1.2c-0.6-0.6-0.9-1.4-0.8-2.4c0-0.4-0.2-0.7-0.5-0.9
				c-1.5-0.7-2.1-1.8-1.7-3.4c0.1-0.3,0.2-0.6,0.5-1.1c0.3-0.5,0.5-0.9,0.4-1.2c-0.2-4.2-0.2-8.4,0-12.6c0-0.2,0.2-0.4,0.4-0.5
				c0.7-0.3,1-0.8,1.1-1.5c0-0.2,0.2-0.4,0.4-0.4c7.9-0.4,15.7-1.3,23.5-2.5c3.8-0.6,7.6-1.1,11.4-1.7c3.8-0.5,7.6-1.1,11.4-1.8
				c0,0,1.4-0.4,3.9-1.1c1.8-0.5,3.6-0.6,5.4-0.2c1.5,0.3,3.1,1,4.8,2.2c2.8,1.9,5.1,4.3,6.9,7c0.4,0.7,0.4,1.4,0,2.2
				c-0.1,0.2-0.1,0.4,0,0.6l2,3.5c0.3,0.5-0.1,1-0.6,1c-1.3,0-1.9,0.6-1.9,1.7c0,0.2-0.1,0.5-0.3,0.6c-0.6,0.6-1,1.2-1.4,2
				c-0.1,0.2-0.3,0.3-0.5,0.4l-1.2,0.4c-0.2,0.1-0.3,0.3-0.4,0.5c-0.1,0.6-0.5,1-1.1,1.3c-0.8,0.3-1.2,0.5-1.2,0.5
				c-0.3,0.2-0.6,0.4-0.9,0.6c-0.3,0.2-0.7,0.3-1,0.4c-4,0.6-8,1.3-11.9,2.2c-0.2,0-0.3,0.2-0.3,0.5c0.3,3.4,0.2,5.8-0.4,7.3
				c-1.7,4.9-2.9,10.1-3.4,15.8c0,0.4,0.3,0.7,0.7,0.7c8.6-0.6,17.3-0.6,26.1,0c4.5,0.3,8.3,0.9,11.2,1.7c0.8,0.2,1.4,0.3,1.8,0.3
				c0.3,0,0.5,0,0.7,0.1c1,0.5,0.7,0.7-0.7,0.6c-0.2,0.1-0.4,0.2-0.5,0.3L1015.5,152.9z M1015.5,152.9l-0.3,0.3
				C1015.3,153.2,1015.4,153.1,1015.5,152.9L1015.5,152.9z M1030.6,165.9c0.2-0.2,0.1-0.6-0.3-0.9c-0.3-0.2-0.7-0.3-0.9,0
				c-0.2,0.2-0.1,0.6,0.3,0.9C1030,166.1,1030.4,166.1,1030.6,165.9z"/>
		</g>
		<path class="st2" d="M992.3,149.7c-0.5,0.6-0.5,0.9,0.1,1c0.8,0.1,2.3,0.1,4.5-0.1l2.5,1.2c1.1,0.7,1.9,0.5,2.1-0.6
			c0.1-0.2,0-0.3-0.1-0.1c-0.5,0.6-1.2,0.8-2,0.6c-0.5-0.5-0.4-0.9,0.1-1.2c4.1-0.5,8.1,0,11.9,1.5c0,0.2,0.1,0.4,0.3,0.5
			c0,0.3-0.1,0.5-0.3,0.6l-2.3-0.3c-0.2-0.2-0.4-0.2-0.6-0.1l-6.5-0.8c-0.3-0.6-0.5-0.6-0.6-0.2c0,0.2,0.1,0.3,0.2,0.4
			c0.4,0.3,0.4,0.6,0.1,1c-4.9,0-10.9-0.1-18.1-0.3c-1.3,0-2.4-0.3-3.4-0.7c-1-1.1-2.1-1.4-3.3-0.8c-3-0.5-3.1-1-0.3-1.5
			c0.3-0.1,0.7-0.1,1.1-0.1C982.6,149.7,987.5,149.7,992.3,149.7z"/>
		<path class="st3" d="M1030.6,165.9c-0.2,0.2-0.6,0.2-0.9,0c-0.3-0.2-0.4-0.6-0.3-0.9c0.2-0.2,0.6-0.2,0.9,0
			C1030.6,165.3,1030.7,165.7,1030.6,165.9z"/>
	</g>
	<g>
		<path class="st0" d="M523.3,183.4c-1.3-0.5-1.8-0.1-1.5,1.2c-0.4,0.1-0.5,0.3-0.5,0.6c0,0.2,0.3,0.3,0.5,0.4
			c0.4,0.1,0.7,0.4,0.8,0.9c0.1,0.2,0,0.5-0.2,0.6c-0.9,1-2,1.5-3.2,1.5c-7.2-0.3-15.7-1.2-25.7-2.7c-1-0.1-1.9,0.2-2.7,1.1
			c-0.2,0.2-0.2,0.4-0.2,0.6c0,1.5-0.7,1.7-2,0.6c-0.8-0.8-1.3-0.7-1.5,0.3c-0.1,0.5-0.7,0.8-1.1,0.5c-1.4-0.8-2.6-1.8-3.5-3
			c-0.4-0.4-0.9-0.6-1.4-0.6c-3,0.2-5.6,0.3-7.8,0.3c-1.6,0-3.2,0.3-4.7,0.9c-0.3,0.1-0.8,0.2-1.5,0.1c-0.6,0-1.1,0-1.5,0
			c-5.4,0.6-14.2,1.8-26.5,3.5c-1.4,0.2-2.7,0.5-3.8,0.9c-2,0.7-3.2,1-3.7,1.1c-3.1,0.3-5.6-0.8-7.6-3.3c-0.5-0.6-1.2-1.3-2.2-2.3
			c-1.1-1.1-1.8-2.4-2-4.1c-0.1-0.6,0-1.1,0.3-1.3c0.4-0.3,0.9-0.4,1.6-0.2c0.4,0.1,0.5,0,0.3-0.4l-1.5-4c-0.1-0.2,0-0.4,0.3-0.5
			l1.1-0.5c0.2-0.1,0.3-0.3,0.4-0.5c0.2-0.8,0.6-0.9,1.2-0.1c0.1,0.2,0.3,0.2,0.4,0.3c0.4,0.1,0.5,0,0.4-0.5
			c-0.6-2.4-0.2-2.8,1.3-1.2c0.2,0.2,0.4,0.3,0.6,0.2l0.4-0.2c0.3-0.2,0.5-0.2,0.6-0.2c2.2,0,4.6-0.2,7.2-0.8c0.2,0,0.4-0.2,0.4-0.5
			c0.1-5.1-0.5-9.9-1.9-14.5c-0.5-1.7-1.6-2.3-3.3-1.7c-0.2,0.1-0.4,0.2-0.5,0.5c-0.9,1.7-1.6,3.4-2.3,5.1c-1.1,2.8-1.8,4.5-2.1,5.2
			c-1.7,3.8-3.3,7.2-4.8,10.1c-1,1.9-1.7,3.8-2,5.7c-0.2,1.2-0.5,2.2-0.9,2.9c-0.3,0.6-0.7,1.2-1,1.8c-0.3,0.5-0.6,1.1-0.9,1.9
			c-0.7,1.9-2,3.5-3.9,4.8c-3.9,2.7-7.9,3-12,1c-0.2-0.1-0.4-0.3-0.5-0.5l-7.1-11.5c-0.6-1-0.4-1.6,0.7-1.8c0.8-0.2,1.2-0.9,1.3-2
			c0-0.1,0-0.3,0.1-0.4c2-3.6,3.2-6.4,3.7-8.4c1.9-8.4,2.8-16.9,2.7-25.5c0-0.3-0.2-0.5-0.5-0.5c-1.5-0.2-2.9-0.4-4.3-0.7
			c-1.6-0.4-2.9-1-3.9-1.8c-2.7-2.3-3.9-5.3-3.6-9.1c0-0.2,0-0.4-0.1-0.7l-0.9-2.6c-0.1-0.2,0-0.4,0.2-0.6l2.8-3.1
			c0.2-0.2,0.4-0.3,0.6-0.3c1.1,0,2.1-0.5,2.9-1.4c0.6-0.6,0.7-0.1,0.4,1.6c-0.1,0.6,0.1,0.8,0.7,0.6c1.9-0.7,3.8-1.1,5.7-1
			c1.7,0,3.6,0.3,5.7,0.6c3.5,0.7,6.3,2.5,8.3,5.5c1.2,1.7,1.7,3.5,1.5,5.3c-0.4,3.8-2.9,6-7.5,6.7c-1.5,0.2-2.8,0.5-4,0.7
			c-0.9,0.2-1.4,0.8-1.5,1.7c-1.2,8.5-1.6,16.9-1.1,25.4c0,0.8,0.3,0.9,0.9,0.4c3.1-2.7,5.8-5.8,8-9.2c4-6.1,9.9-14.5,17.7-25.2
			c3.2-4.4,5.5-9.4,7.1-15.2c0-0.1,0.1-0.1,0.1-0.1c0.2-0.1,0.2-0.1,0.2,0.2c-0.1,1.1-0.1,2.2,0.1,3.2c0.2,1.2,0.3,2.3,0.2,3.1
			c-0.1,1.6-0.2,3.2,0,4.8c0,0.2,0,0.4-0.1,0.7c-0.3,0.7-0.2,1.3,0.3,1.8c0.2,0.2,0.3,0.5,0.2,0.6l-0.6,4.6
			c-0.1,0.5,0.1,0.7,0.6,0.5c3.3-1.6,6.5-3.7,9.4-6.2c0.3-0.3,0.3-0.8,0-1.1c-0.8-0.6-1.3-1.4-1.7-2.3c-0.3-0.6-0.4-1.5-0.3-2.7
			c0-2.2-0.1-4.5-0.4-6.7c-0.5-3.2-0.7-5.4-0.8-6.6c-0.5-8.4-1.2-16.8-2.1-25.2c0-0.2-0.1-0.5-0.3-0.7c-1-1.3-1-2.3-0.1-3.1
			c0.2-0.1,0.9-0.4,2.3-0.7c1.4-0.4,1.8-1.4,1.1-3.1c-0.1-0.3-0.1-0.5,0.1-0.7L446,79c0.6-0.7,1.5-0.8,2.6-0.3
			c2.7,1.3,5.2,3.3,7.4,6.1c0.5,0.7,1.2,1,2.1,1c1.4-0.1,2.9-0.3,4.5-0.7c1.9-0.5,2.8-0.7,2.9-0.7c8.4-1.8,14.4-3.2,17.7-4.2
			c1.4-0.4,2.9-1.1,4.5-2.3c1-0.7,1.9-1.1,2.7-1.2c0.8-0.1,1.8-0.2,3.1-0.4c1.6-0.2,3,0,4.1,0.4c1.3,0.5,2.6,1.1,4,1.6
			c1.4,0.6,2.4,1.3,3.2,2.2c2.2,2.8,3,6,2.4,9.7c-0.1,0.7,0,1.5,0.4,2.1c0.7,1.3,0.4,2.3-0.9,3.1c-1.5,0.8-2.6,2.1-3.1,3.7
			c-0.4,1.1-0.5,1.7-0.6,1.7c-0.4,1-0.8,2-1.1,3.1c-0.3,0.7-0.7,1.3-1.3,1.6c-0.2,0.1-0.4,0.3-0.5,0.5c-3.5,5.1-6.3,10.5-8.5,16.2
			c-0.9,2.3-1.7,4.2-2.3,5.6c-0.9,1.8-1.7,3.7-2.5,5.5c-0.4,0.8-1,1.3-1.9,1.4c-1.9,0.3-3.6,1.2-5,2.7c-0.2,0.2-0.1,0.3,0.1,0.4
			c1.1,0.3,2.3,0.1,3.4-0.5c2.2-1.2,4.6-1.7,7.1-1.6c1.2,0,2.2-0.2,3.2-0.7c1.5-0.7,2.3-1.1,2.6-1.3c0.8-0.4,1.4-1.1,1.8-1.9
			c0.1-0.2,0.3-0.4,0.5-0.5c2.3-0.8,4.5-1,6.8-0.5c2.1,0.4,4.1,1.2,6.1,2.3c3,1.7,5,4.4,5.8,8.1c0.3,1.4,0.6,2.4,0.9,3
			c0.1,0.2,0.1,0.4-0.1,0.6c-0.3,0.3-0.6,0.6-0.9,1c-0.3,0.3-0.5,0.7-0.7,1.1c-0.6,1.5-1.3,2.9-2.2,4.2c-0.9,1.5-1.7,2.8-2.3,4.1
			c-0.7,1.5-1.6,3.3-2.8,5.5c-1,1.8-2,4.4-3,7.7c-0.1,0.2,0,0.4,0.2,0.5c0.9,0.5,2,0.7,3.3,0.8c5.7,0.2,11,1.4,15.9,3.5
			c0.6,0.3,1.1,0.8,1.3,1.4c1,2.6,0.5,3.7-1.5,3.2c-0.3-0.1-0.5,0-0.7,0.1c-0.6,0.5-0.8,1.1-0.7,1.8c0,0.2,0,0.4,0,0.7L523.3,183.4
			L523.3,183.4z M445.1,139.6c-0.4,0.6-1,1-1.7,1.1l-3.2,2.7c-0.2,0.2-0.2,0.5,0,0.6c0.9,0.5,1.8,0.9,2.6,1.2
			c0.8,0.3,1.7,0.4,2.8,0.5c4.1,0.1,8.2-0.5,12.2-1.6c1-0.3,1.8-1.2,2.4-2.9c0.2-0.5,0.8-1,1.7-1.4l4-1.7c0.2-0.1,0.4,0,0.5,0.1
			c0.8,1.2,0.8,1.9,0,1.9c-0.2,0-0.4,0.1-0.5,0.3c-0.2,0.8,0.1,1.2,1.1,1.1c1.3-0.2,2.6-0.4,3.9-0.6c0.2,0,0.3-0.2,0.2-0.4
			c-0.5-0.8-0.5-1.4-0.2-1.8c0.6-0.7,0.5-1.4-0.1-2.1c-1.5-1.8-1.9-3.4-1.1-4.8c0.2-0.4,0.1-0.5-0.3-0.4c-3.7,0.9-7.2,1.7-10.5,2.4
			c-1,0.2-2.5,0.7-4.3,1.4c-1.4,0.5-2.9,0.9-4.3,1.2C449.1,136.9,447.4,137.9,445.1,139.6L445.1,139.6z M443.4,139.2
			c0.6,0.7,1,0.7,1.4,0c0.1-0.9-0.2-1.3-0.8-1.2c-0.3,0-0.6,0.2-1,0.5c-2.1,1.5-4.3,3-6.3,4.6c-0.9,0.7-0.9,0.9-0.1,0.8
			c0.1,0,0.3-0.1,0.4-0.2C439.1,142.1,441.2,140.6,443.4,139.2L443.4,139.2z M457.2,100.5c-0.3,1.6-0.2,2.9,0.1,3.9
			c0.5,1.3,1.4,1.7,2.7,1.3c5-1.5,10-2.7,14.9-3.5c0.8-0.1,1.9,0.1,3.3,0.8c0.2,0.1,0.4,0,0.5-0.2l3.6-9.7c0.2-0.4-0.2-0.8-0.6-0.8
			c-7.5,1-15.1,2.4-22.8,4.3c-0.2,0.1-0.4,0.2-0.5,0.4C457.8,98.1,457.4,99.2,457.2,100.5L457.2,100.5z M457.8,116.6l0.1,5.3
			c0,0.4,0.5,0.7,0.9,0.5c3.4-1.4,6.9-2.5,10.5-3.3c1.1-0.2,2.1-0.1,3,0.5c0.2,0.1,0.4,0,0.5-0.2l2.3-6.3c0.1-0.3-0.1-0.6-0.4-0.5
			c-2.8,0.4-5.5,0.9-8.1,1.5c-0.1,0-1,0.3-2.8,0.8c-1.5,0.4-3.2,0.7-5,0.7C458.2,115.7,457.8,116.1,457.8,116.6L457.8,116.6z
			 M487.6,164.7l1-0.2c0.2,0,0.4-0.2,0.5-0.4c0.8-2.2,1.1-3.6,1-4.2c-0.4-1.7-0.3-3.4,0.4-5.1c0.1-0.2,0.1-0.4,0.1-0.7l-0.1-2.2
			c0-0.2,0.1-0.4,0.2-0.7c0.7-1.1,0.9-2.2,0.8-3.5c0-0.2-0.2-0.4-0.4-0.3l-5.4,0.8c-0.2,0-0.4,0.2-0.5,0.4c-0.5,1.5-0.9,3.1-1.1,4.7
			c-0.3,2-1,3.8-2.1,5.5c-0.8,1.2-1.9,3.5-3.2,7c-0.1,0.2,0,0.4,0.2,0.4c2.2,0.6,4.6,0.8,7.1,0.6c0.2,0,0.4-0.2,0.4-0.4
			c0-0.5,0.2-1,0.5-1.5C487.1,164.9,487.4,164.8,487.6,164.7L487.6,164.7z M465.7,152.6l-2.2,12.5c-0.2,1.1,0.2,1.9,1.3,2.4
			c0.6,0.2,1.2,0,1.8-0.6c0.4-0.4,0.7-0.9,1-1.5c1.7-4.2,3.1-8.7,4.2-13.5c0.1-0.4-0.2-0.7-0.6-0.7l-4.8,0.8
			C466.1,152,465.8,152.2,465.7,152.6L465.7,152.6z M463.4,141.1c0.1-0.2,0.1-0.3,0.1-0.5c-0.1-0.2-0.3-0.3-0.5-0.1
			c-0.3,0.3-0.4,0.5-0.2,0.7C463,141.4,463.3,141.3,463.4,141.1L463.4,141.1z M445.2,155.1c1.2,4.4,2.1,9.1,2.6,14.2
			c0,0.3,0.3,0.5,0.6,0.4l4.7-0.6c0.3,0,0.5-0.3,0.5-0.6l0.9-13.8c0-0.3-0.3-0.6-0.6-0.6l-8.3,0.5
			C445.3,154.7,445.2,154.9,445.2,155.1L445.2,155.1z M434.5,130.8c0.2,0,0.4-0.6,0.6-1.4c0.2-0.8,0.2-1.5,0-1.5
			c-0.2,0-0.4,0.6-0.6,1.4C434.3,130.1,434.3,130.7,434.5,130.8z"/>
		<path class="st3" d="M520.1,160.7c-0.3,0.4-0.4,0.3-0.5-0.1c0-0.2,0.1-0.5,0.3-0.6c0.2-0.1,0.3,0,0.4,0.1
			C520.3,160.3,520.2,160.5,520.1,160.7z"/>
		<path class="st1" d="M523.3,183.4c-0.1,1.1-0.6,1.5-1.5,1.2C521.5,183.3,522,182.9,523.3,183.4z"/>
		<path class="st0" d="M404.4,92.7c-0.1-0.2,0-0.3,0.2-0.4c1.2-0.3,2.2-0.8,3.2-1.5c1.9-1.3,2.8-2,2.8-2c3.8-2.1,8-2.8,12.4-2.1
			c3.9,0.6,7,2.5,9.3,5.6c1.3,1.7,2,3.7,2.1,5.9c0.2,2.9-1,5.1-3.4,6.7c-4.8,3.1-9.8,3.6-14.9,1.4c-0.3-0.1-1-0.4-2.2-0.8
			c-1.3-0.4-2.6-0.9-3.9-1.5c-0.7-0.3-0.9-0.8-0.8-1.4c0-0.3,0-0.5-0.1-0.7c-0.5-1-0.9-2-1-2.9c-0.2-1.4-0.7-2.6-1.4-3.7
			c-0.1-0.1-0.5-0.5-1.2-1.2C404.9,93.8,404.6,93.3,404.4,92.7z"/>
		<path class="st2" d="M444.8,139.1c-0.4,0.7-0.8,0.7-1.4,0c-2.2,1.4-4.3,2.9-6.4,4.4c-0.1,0.1-0.3,0.2-0.4,0.2
			c-0.9,0.2-0.8-0.1,0.1-0.8c2.1-1.6,4.2-3.1,6.3-4.6c0.4-0.3,0.7-0.4,1-0.5C444.7,137.9,445,138.2,444.8,139.1z"/>
	</g>
	<g>
		<path class="st0" d="M1284.4,130.3c0,5.1-0.6,9.9-1.9,14.4c-0.4,1.2-0.9,2.4-1.8,3.6c-1.2,1.6-1.8,2.5-1.9,2.6
			c-0.8,0.8-1.8,1.3-3.1,1.5c-0.3,0-0.5,0.2-0.5,0.5c-0.3,1-0.9,1.2-2,0.7c-0.6-0.3-1.4-0.3-1.9,0.2c-0.6,0.5-1.4,0.7-2.5,0.5
			c-0.2,0-0.4,0-0.6,0.2c-0.4,0.3-0.6,0.2-0.9-0.3c-1.5-2.9-3.7-5.1-6.7-6.7c-0.1-0.1-0.3,0-0.3,0.2c-0.1,2.1,0.2,4.2,0.7,6.2
			c0.4,1.4,0.5,2.6,0.5,3.6c-0.1,1.5-0.2,3.1-0.3,4.6c0,0-0.1,0.6-0.2,1.6c-0.2,1.1,0.1,2.1,0.7,3c0.1,0.2,0.2,0.4,0.1,0.7
			c-0.5,1.9-0.6,3.3-0.3,4.4c0.8,3,1.2,6,1.2,8.9c0,1.2,0.1,2.4,0.2,3.5c0.2,1.3,0.1,2.3-0.1,3.2c-0.3,1-0.6,2.1-1,3.1
			c-0.4,1-0.5,2-0.4,3c0.1,0.5-0.4,0.9-0.9,0.8c-2.2-0.5-4.3-0.1-6.3,1.3c-1.5,1-2.8,0.8-3.9-0.6c-1.9-2.6-2.8-5.8-2.6-9.7
			c0.1-2,0-3.4-0.1-4.3c-0.4-2.4-0.5-4.8-0.5-7.2c0-2.6,0-3.9,0-3.9c-0.1-10.3,0.1-21.8,0.8-34.5c0.2-4.1,0.4-7.2,0.7-9.3
			c0.2-1.9,0.4-7.2,0.6-15.8c0-1.3-0.2-2.4-0.6-3.3c-0.7-1.4-1.1-2.2-1.1-2.3c-0.5-1.9-0.8-3.9-0.9-6c0-0.1-0.1-0.8-0.3-2
			c-0.2-1.4,0.6-2.1,2.5-2.2c1.4,0,2.9-0.4,4.6-1.2c6.8-3.2,13.3-7,19.4-11.5c0.6-0.4,1.4-0.8,2.5-1c1.1-0.2,2-0.3,2.7-0.1
			c1.1,0.3,2,1,2.7,2.1c0.7,0.9,1.7,2.1,3.2,3.4c2.1,1.8,3.2,4.4,3.5,7.7c0.2,2.1,0,4-0.6,5.5c-0.6,1.6-1,2.4-1,2.5
			c-0.7,2.1-1.7,4.4-3.2,7c-1.8,3.3-3.7,6.5-5.8,9.7c-0.5,0.8-0.4,1.5,0.4,2.1c2,1.5,3.9,3.3,5.7,5.4c0.2,0.2,0.3,0.2,0.4-0.1
			c1.5-4.5,3.1-9,4.8-13.4c0,0,0.2-0.5,0.6-1.3c0.5-1,0.5-2,0.3-3.2c-0.2-0.8-0.7-1.1-1.4-1c-0.2,0.1-0.4,0-0.5-0.2
			c-0.4-1-0.3-2.1,0.3-3.4c0.1-0.2,0.4-0.3,0.6-0.2c1,0.6,2,0.7,3,0.5c4.2-1.1,8.5-1.5,12.9-1.1c3,0.2,6-0.1,9.1-0.8
			c0.3-0.1,0.5-0.3,0.4-0.6l-0.8-11.2c0-0.2-0.1-0.5-0.3-0.6c-1.7-1.7-3.7-3.2-6.1-4.4c-0.3-0.1-0.4-0.4-0.3-0.7
			c0.9-2.4,2.4-3.8,4.3-4.1c0.3,0,0.5-0.1,0.7-0.3c1-0.8,2.1-1.1,3.2-1.1c2.7,0,5.4,0.5,8.2,1.5c0,0,1.1,0.3,3.1,0.8
			c1.8,0.5,3.1,1.6,3.9,3.3c0.1,0.2,0.3,0.4,0.4,0.6c1.4,1.1,2.1,2.2,2.2,3.4c0.2,2.5-0.1,4.9-0.9,7.2c-0.2,0.7-0.7,1.1-1.3,1.3
			c-0.3,0.1-0.5,0.2-0.6,0.4c-0.2,0.4,0,0.5,0.6,0.3c1.6-0.4,3.1-0.6,4.7-0.8c3-0.3,5.9-1.5,8.6-3.5c1.3-1,2.7-1,4.1-0.1
			c0.2,0.1,0.4,0.2,0.7,0.2c1.3-0.1,2.4,0.2,3.5,0.8c1.3,0.7,1.9,1.1,2,1.1c2.1,1,3.9,2.4,5.3,4.2c0.6,0.8,1,1.8,1,2.9
			c0.1,1.2,0,2.5,0,3.7c-0.1,1.7-0.9,3-2.5,3.9c-0.8,0.5-1.8,1.3-2.8,2.6c-0.1,0.2-0.4,0.3-0.6,0.4c-1.3,0.4-2.3,1.2-3,2.4
			c-0.1,0.2-0.3,0.4-0.5,0.5l-8.6,4.5c-0.2,0.1-0.4,0.3-0.5,0.5c-0.6,1-1.2,1.6-1.8,1.8c-0.9,0.2-1.7,0.6-2.4,1
			c-0.9,0.6-1.7,0.9-2.3,1.1c-2.5,0.7-4.9,1.4-7.4,2.1c0,0-2.1,0.7-6.2,1.9c-5.1,1.6-10.1,2.1-15,1.5c-2.4-0.3-4.6-1.5-6.5-3.5
			c0,0-0.3-0.3-0.7-0.9c-0.6-0.7-1.1-0.6-1.4,0.5c-0.2,0.5-0.4,0.9-0.6,1.1c-1.5,1.9-2.9,3.8-4.4,5.6c-0.2,0.2-0.4,0.3-0.6,0.3
			l-1.4-0.4c-0.3-0.1-0.5-0.1-0.7,0c-2.4,0.6-4-0.1-4.8-2.3C1284.4,130.1,1284.4,130.1,1284.4,130.3L1284.4,130.3z M1267.3,135.8
			c0.3-0.6,0.4-1.2,0.5-2l0.7-7.3c0.1-0.9-0.4-1.5-1.3-1.8c-2.3-0.6-4.5-1.9-6.5-3.9c-1.2-1.1-1.6-2.4-1.3-4c0.5-2.7,1-5.4,1.6-8.1
			c0-0.2,0.1-0.4,0.3-0.7c0.2-0.5,0.1-0.8-0.4-0.8c-0.2,0-0.4,0.2-0.5,0.4c-1.2,2.5-1.8,4.7-1.8,6.5c-0.2,7.5,0.1,15,0.9,22.4
			c0.1,0.7,0.5,1.3,1.1,1.4l5,1c0.2,0.1,0.5-0.1,0.6-0.3L1267.3,135.8L1267.3,135.8z M1260.4,145.5c0.1,0.3,0.4,0.4,0.8,0.3
			c0.2,0,0.3-0.2,0.3-0.5c0-0.3,0-0.6,0.1-1c0.1-0.2,0-0.4-0.1-0.6C1259.5,142.3,1259.1,142.9,1260.4,145.5L1260.4,145.5z
			 M1300.7,123.5c0.8-0.6,1.8-1,3-1.3c4.3-1,9.1-2.8,14.6-5.3c1.5-0.7,4.1-1.5,7.7-2.4c0.2-0.1,0.4,0,0.7,0.1c0.3,0.1,0.6,0.2,1,0.1
			c0.2,0,0.4-0.2,0.5-0.4c0.8-1.2,1.9-1.5,3.5-0.8c1.2,0.5,2,0.3,2.4-0.7c0.5-1.1,0.8-1.6,0.8-1.7c1.1-1.6,2.2-3.3,3.4-5.2
			c0.4-0.7,0.2-1-0.6-0.9c-4.5,0.5-8.8,1.2-13.1,1.9c-1.3,0.2-2.5,0.7-3.7,1.3c-2,1.1-4.1,1.8-6.3,2c-1.5,0.1-2.9,0.3-4.2,0.5
			c-1.4,0.2-2.9,0.2-4.3,0c-0.2,0-0.4-0.1-0.6-0.3c-1.1-0.9-2.7-1.2-4.8-0.9c-0.3,0-0.5,0.3-0.4,0.6c1.3,4.1,0.9,8-1.2,11.8
			c-1.1,1.9-0.9,2.7,0.3,2.4C1299.7,124.2,1300.1,124,1300.7,123.5z"/>
		<path class="st0" d="M1361.6,153.5c0.4-2.2,0.9-2.4,1.3-0.6c0.2,0.7,0.5,0.7,0.9,0c0.1-0.2,0.3-0.2,0.5-0.1
			c0.8,0.5,0.9,1.3,0.5,2.3c0.2,0.1,0.4,0.1,0.6,0c0.3-1.2,0.7-1.1,1.1,0.3c-0.1,0.2-0.1,0.4,0,0.6c0.8,0.1,1.2-0.3,1.3-1.1
			c0.1-1.6,0.2-2.9,0.2-3.8c0-0.3,0.1-0.6,0.3-0.6c0.2,0,0.3,0.5,0.4,1.5c0,0.4,0,0.9-0.1,1.3c-0.5,2.7-0.6,5,0,7
			c0.3,1,0.4,1.6,0.4,1.6c0.6,3.1,1,6.1,1.1,9c0.1,1.6,0.2,3.1,0.4,4.3c0.4,2.2,0.5,4.5,0.2,6.7c-0.1,0.4-0.5,1.2-1.4,2.2
			c-0.1,0.2-0.2,0.4-0.1,0.6c0.1,0.3,0.1,0.7,0.1,1c-0.1,0.3-0.3,0.5-0.6,0.7c-1.9,1.3-3.9,2.5-5.9,3.7c-2.3,1.3-4.2,2.1-5.7,2.3
			c-3.1,0.3-6.2,0.2-9.3-0.4c-0.8-0.1-1.8-0.2-3-0.1c-1.1,0.1-2.1,0.1-3,0c-3.2-0.2-6.1-0.2-8.9,0.1c-0.6,0.1-1.2-0.1-1.6-0.4
			c-1.5-0.9-2.8-1.7-3.9-2.3c-0.5-0.3-1.6-1.2-3.4-2.6c-1.5-1.2-3.1-2-5-2.5c-0.3-0.1-0.4-0.2-0.5-0.4l-0.4-3.3
			c-0.5-1.9-0.6-1.8-0.3,0.3c-0.5,1.1-0.9,1.1-1.3,0c-0.5-1.4-0.4-2.9,0.4-4.5l0.2,0c0.6,0.4,0.9,0.2,0.9-0.6
			c-0.1-1.3-0.1-3.2,0.1-5.7c0-0.3-0.1-0.7-0.4-1.3c-0.1-0.2-0.1-0.5-0.1-0.7l1.8-9.6c0.1-0.5,0-0.6-0.4-0.2l-5.8,6.6
			c-0.1,0.1-0.3,0.2-0.6,0.3c-0.1,0.1-0.2,0.1-0.3,0.3c-0.9,1.1-1.8,2.2-2.7,3.4c-0.7,0.9-1.6,2.1-2.5,3.6c-0.8,1.3-1.7,2.6-2.7,3.9
			c-0.5,0.7-1.1,1.8-1.9,3.4c-0.8,1.7-2,3.2-3.6,4.5c-0.2,0.2-0.3,0.4-0.4,0.6c-0.4,1.1-0.9,1.9-1.5,2.4c-0.2,0.2-0.3,0.4-0.4,0.6
			c-0.6,1.9-1.9,2.9-3.8,3.1c-0.5,0-0.8,0-1.1-0.3c-0.5-0.4-0.5-0.8-0.1-1.4c0.2-0.2,0.2-0.5,0.2-0.6c-0.1-0.2-0.3-0.2-0.6,0.1
			c-1,0.9-1.7,0.6-1.9-0.9c-0.1-0.9-0.8-1.5-1.9-1.8c-0.3-0.1-0.5-0.4-0.4-0.7c0.5-1.3,0.1-1.9-1.3-1.8c-0.5,0-1-0.3-1.1-0.7
			c-0.3-1-0.1-1.9,0.6-2.7c0.4-0.4,0.6-0.7,0.6-0.9c0.1-0.6-0.3-0.9-1.1-1c-0.2,0-0.4,0.1-0.5,0.3l-0.5,2c-0.3,1.2-0.7,1.3-1.3,0.4
			l-1.6-2.6c-0.3-0.5-0.2-0.7,0.4-0.5c0.4,0.1,0.7,0.1,0.9-0.2c0.2-0.3,0.4-0.4,0.4-0.5c1-0.9,1.8-1.9,2.5-3
			c0.9-1.4,1.4-2.3,1.7-2.6c0.7-0.8,1.4-1.6,2.2-2.3c0.6-0.6,1.4-0.8,2.2-0.5c0.5,0.2,1,0.1,1.4-0.3c0.6-0.6,0.9-0.8,0.9-0.9
			c0.6-0.3,1.2-0.5,1.8-0.6c0.7-0.1,1.1-0.3,1.4-0.5c0.3-0.2,0.5-0.5,0.6-0.8c0.2-0.4,0.3-0.7,0.5-0.9c1.9-2.1,3.8-4.3,5.5-6.7
			c0.7-0.9,0.5-1.2-0.6-0.9c-2.9,0.9-5.7,1.6-8.4,2.2c-1.6,0.3-3.2,0.2-4.8-0.3c-1.7-0.5-2.8-1.6-3.3-3.2c-0.3-0.9-0.5-1.8-0.6-2.7
			c-0.1-0.9,0-1.8,0.2-2.7c0.8-3,2.4-5.5,5-7.3c0.2-0.1,0.3-0.3,0.4-0.6l1.2-2.8c0.1-0.1,0.2-0.1,0.3,0l1.8,2.3
			c0.3,0.4,0.5,0.8,0.6,1.2c0.3,1.6,1.1,2.2,2.4,2.1c1.4-0.2,2.7-0.6,4-1.2c3.8-1.8,8.1-3.4,12.8-4.7c0.3-0.1,0.6-0.2,0.8-0.4
			l7.7-7.9c0.1-0.1,0.3-0.2,0.6-0.3c0.6-0.2,1.6-1.1,3-2.7c0.2-0.2,0.4-0.3,0.7-0.2c0.3,0.1,0.2,0.3-0.5,0.7
			c-0.8,0.5-1.1,1.1-0.9,1.8c0,0.2,0.3,0.3,0.5,0.2c1.5-0.5,1.7,0,0.6,1.5c-0.2,0.2-0.2,0.4-0.3,0.6c-0.1,0.8,0.2,0.9,0.7,0.4
			c0.1-0.1,0.3-0.3,0.4-0.5c1-1.6,2.3-2.1,4-1.3c0.2,0.1,0.5,0.2,0.7,0.1c1.7-0.2,3.4-0.7,5-1.7c0.5-0.3,1-0.3,1.4-0.1l7.9,3.4
			c0.5,0.2,0.5,0.4,0,0.7c-0.7,0.3-0.8,0.7-0.2,1c0.9,0.5,0.9,1.1-0.1,1.7c-0.3,0.2-0.3,0.5-0.2,0.8l1.3,2.3
			c0.3,0.6,0.2,0.8-0.6,0.7c-0.9-0.2-1.5,0-2.1,0.5c-0.2,0.2-0.5,0.8-0.8,1.7c-0.5,1.4-1.5,2.2-2.9,2.4c-3.9,0.6-7.3,1.7-10.4,3.4
			c-0.2,0.1-0.2,0.3,0,0.4c2.6,2.2,3.8,5.1,3.8,8.6c-0.1,3-0.3,6-0.6,9c-0.2,1.5-0.1,3,0.1,4.6c0.1,0.6,0.5,1,1,1.2
			c1.2,0.4,2.3,0.6,3.4,0.6c1.2,0,2.2,0.1,3,0.3c2.1,0.4,4.2,0.3,6.1-0.5c1.3-0.5,2.3-0.8,3.2-0.9c2.2-0.2,4.2-0.6,6-1
			c0.8-0.2,1.3-0.7,1.4-1.6l2.5-15.1C1361.1,153.8,1361.5,153.8,1361.6,153.5L1361.6,153.5z M1285.3,175.3c-0.2,0.2-0.2,0.6,0.2,0.7
			c0.9,0.3,1.4,0,1.6-0.9c0-0.2-0.1-0.4-0.3-0.5C1286.3,174.6,1285.8,174.8,1285.3,175.3L1285.3,175.3z M1324.1,135.6
			c0.3-0.1,0.5-0.2,0.7-0.4c0.1-0.2,0.2-0.4,0.1-0.7c-0.3-0.6-0.7-0.4-1.1,0.6c-0.3,0.6-0.8,0.9-1.3,0.9c-0.6,0-0.9,0-0.9,0
			c-0.5,0.1-0.8,0.3-1,0.6c-0.5,0.6-0.3,0.8,0.4,0.6C1322,136.9,1323.1,136.3,1324.1,135.6z"/>
		<path class="st1" d="M1317,176.3l-0.2,0c-0.3-0.5-0.3-1-0.1-1.4c0.1-0.3,0.3-0.3,0.4,0C1317.5,175.3,1317.4,175.8,1317,176.3z"/>
		<path class="st1" d="M1318.1,180.5c-0.2,0-0.3,0.1-0.3,0.3C1317.5,178.7,1317.6,178.6,1318.1,180.5z"/>
	</g>
	<circle class="st5" cx="156.4" cy="156.4" r="148.7"/>
	<path class="st0" d="M156.4,0C70,0,0,70,0,156.4c0,86.4,70,156.4,156.4,156.4c86.4,0,156.4-70,156.4-156.4
		C312.8,70,242.8,0,156.4,0L156.4,0z M156.4,7.7c82.2,0,148.7,66.6,148.7,148.7c0,82.2-66.6,148.7-148.7,148.7
		c-82.2,0-148.7-66.6-148.7-148.7C7.7,74.3,74.3,7.7,156.4,7.7z"/>
	<path class="st0" d="M396,261.2l-9.8-33.8h5.9l6.5,24.4l6.9-24.5h4.8l6.9,24.5l6.5-24.4h5.8l-9.8,33.8h-5l-6.9-23.7l-6.9,23.7H396
		L396,261.2z M437.2,261v-33.6h21.1v5h-15.6v9.1h13.8v5h-13.8v9.4h15.8v5H437.2L437.2,261z M466.9,261v-33.6h5.1l14.8,22.4v-22.4
		h5.5V261h-4.8l-15.2-23.1V261H466.9L466.9,261z M501,261v-4.1l16.5-24.6h-16v-4.9h22.9v4.1l-16.5,24.6h16.5v5H501L501,261z
		 M533.1,261v-33.6h5.5v14.1h13.2v-14.1h5.5V261h-5.5v-14.3h-13.2V261H533.1L533.1,261z M591.6,256.7c-2.8,3.2-6.4,4.8-10.7,4.8
		c-4.4,0-7.9-1.6-10.7-4.8c-2.8-3.2-4.2-7.3-4.2-12.3V244c0-5,1.4-9.1,4.2-12.3c2.8-3.2,6.4-4.8,10.8-4.8c4.4,0,7.9,1.6,10.7,4.8
		c2.8,3.2,4.1,7.3,4.1,12.3v0.5C595.7,249.4,594.3,253.5,591.6,256.7L591.6,256.7z M574.3,253.1c1.7,2.2,3.9,3.3,6.6,3.3
		c2.7,0,4.9-1.1,6.6-3.3c1.7-2.2,2.5-5.1,2.5-8.6V244c0-3.6-0.9-6.5-2.6-8.7c-1.7-2.2-3.9-3.3-6.6-3.3c-2.7,0-4.8,1.1-6.5,3.3
		c-1.7,2.2-2.5,5.1-2.5,8.7v0.5C571.8,248,572.6,250.9,574.3,253.1L574.3,253.1z M625.5,258.1c-2.2,2.3-5.3,3.4-9.1,3.4
		c-3.8,0-6.9-1.1-9.1-3.4c-2.2-2.3-3.3-5.6-3.3-9.9v-20.8h5.5v20.8c0,2.7,0.6,4.7,1.9,6.1c1.2,1.4,2.9,2.1,5.1,2.1
		c2.2,0,3.9-0.7,5.1-2.1c1.2-1.4,1.8-3.4,1.8-6v-21h5.5v20.7C628.9,252.4,627.7,255.8,625.5,258.1L625.5,258.1z M681,258.1
		c-2.2,2.3-5.3,3.4-9.1,3.4c-3.8,0-6.9-1.1-9.1-3.4c-2.2-2.3-3.3-5.6-3.3-9.9v-20.8h5.5v20.8c0,2.7,0.6,4.7,1.9,6.1
		c1.2,1.4,2.9,2.1,5.1,2.1c2.2,0,3.9-0.7,5.1-2.1c1.2-1.4,1.8-3.4,1.8-6v-21h5.5v20.7C684.4,252.4,683.2,255.8,681,258.1L681,258.1z
		 M693.8,261v-33.6h5.1l14.8,22.4v-22.4h5.5V261h-4.8l-15.2-23.1V261H693.8L693.8,261z M729.2,261v-33.6h5.6V261H729.2L729.2,261z
		 M754.1,261.2l-11.6-33.8h6l8.3,25.4l8.3-25.4h5.9l-11.7,33.8H754.1L754.1,261.2z M778.2,261v-33.6h21.1v5h-15.6v9.1h13.8v5h-13.8
		v9.4h15.8v5H778.2L778.2,261z M808,261v-33.6H820c3.7,0,6.5,0.9,8.7,2.8c2.1,1.9,3.2,4.5,3.2,7.9c0,2.5-0.6,4.6-1.9,6.2
		c-1.2,1.7-2.9,2.9-5.1,3.7l7.9,13h-6.4l-7.1-11.9h-1.8h-3.9V261H808L808,261z M813.5,244.2h6.3c2,0,3.6-0.5,4.7-1.6
		c1.2-1,1.7-2.5,1.7-4.4c0-1.9-0.6-3.3-1.7-4.3c-1.2-1-2.8-1.5-4.8-1.5h-6.2V244.2L813.5,244.2z M850.2,261.5
		c-4.4,0-8.2-1.4-11.6-4.2l2.5-4.4c3,2.4,6,3.6,9.1,3.6c1.6,0,2.8-0.4,3.8-1.1c0.9-0.7,1.4-1.7,1.4-3c0-1.2-0.4-2.1-1.3-2.9
		c-0.8-0.8-2.6-1.7-5.1-2.8c-3.5-1.5-5.9-2.9-7.4-4.3c-1.4-1.4-2.2-3.4-2.2-6c0-2.7,1-4.9,2.9-6.7c2-1.7,4.4-2.6,7.4-2.6
		c3.8,0,7.1,1.1,10,3.3l-2.2,4.7c-2.8-1.9-5.4-2.9-7.8-2.9c-1.5,0-2.6,0.4-3.5,1.1c-0.9,0.7-1.3,1.6-1.3,2.8c0,1.2,0.4,2.2,1.3,3
		c0.9,0.8,2.6,1.7,5.3,2.8c3.4,1.4,5.8,2.9,7.2,4.4c1.4,1.5,2.1,3.4,2.1,5.9c0,2.9-1,5.2-3,6.9C855.9,260.6,853.4,261.5,850.2,261.5
		L850.2,261.5z M869.5,261v-33.6h5.6V261H869.5L869.5,261z M891.9,261v-28.4h-8.8v-5.2h23.2v5.2h-8.8V261H891.9L891.9,261z
		 M922.3,261v-13.4L911,227.4h6.3l7.8,14.5l7.8-14.5h6.2l-11.2,20.2V261H922.3L922.3,261z M991.9,256.7c-2.8,3.2-6.4,4.8-10.7,4.8
		c-4.4,0-7.9-1.6-10.7-4.8c-2.8-3.2-4.2-7.3-4.2-12.3V244c0-5,1.4-9.1,4.2-12.3c2.8-3.2,6.4-4.8,10.8-4.8c4.4,0,7.9,1.6,10.7,4.8
		c2.8,3.2,4.1,7.3,4.1,12.3v0.5C996,249.4,994.6,253.5,991.9,256.7L991.9,256.7z M974.7,253.1c1.7,2.2,3.9,3.3,6.6,3.3
		c2.7,0,4.9-1.1,6.6-3.3c1.7-2.2,2.5-5.1,2.5-8.6V244c0-3.6-0.9-6.5-2.6-8.7c-1.7-2.2-3.9-3.3-6.6-3.3c-2.7,0-4.8,1.1-6.5,3.3
		c-1.7,2.2-2.5,5.1-2.5,8.7v0.5C972.1,248,973,250.9,974.7,253.1L974.7,253.1z M1004.7,261v-33.6h21v5.1h-15.5v9.5h13.7v5.1h-13.7
		V261H1004.7L1004.7,261z M1062,261v-28.4h-8.8v-5.2h23.2v5.2h-8.8V261H1062L1062,261z M1084.1,261v-33.6h21.1v5h-15.6v9.1h13.8v5
		h-13.8v9.4h15.8v5H1084.1L1084.1,261z M1127.3,261.5c-4.2,0-7.7-1.6-10.5-4.8c-2.8-3.2-4.2-7.3-4.2-12.3V244c0-5,1.4-9.1,4.2-12.3
		c2.8-3.2,6.4-4.8,10.8-4.8c4,0,7.4,1.3,10.3,3.9l-2.6,4.5c-2.5-2.1-5-3.2-7.5-3.2c-2.7,0-4.9,1.1-6.7,3.2c-1.7,2.2-2.6,5-2.6,8.6
		v0.4c0,3.6,0.9,6.5,2.6,8.7c1.7,2.2,4,3.2,6.7,3.2c1.5,0,2.8-0.3,4-0.8c1.2-0.5,2.4-1.4,3.7-2.5l2.6,4.1
		C1135.1,260,1131.5,261.5,1127.3,261.5L1127.3,261.5z M1146,261v-33.6h5.5v14.1h13.2v-14.1h5.5V261h-5.5v-14.3h-13.2V261H1146
		L1146,261z M1180.1,261v-33.6h5.1l14.8,22.4v-22.4h5.5V261h-4.8l-15.2-23.1V261H1180.1L1180.1,261z M1239.6,256.7
		c-2.8,3.2-6.4,4.8-10.7,4.8s-7.9-1.6-10.7-4.8c-2.8-3.2-4.2-7.3-4.2-12.3V244c0-5,1.4-9.1,4.2-12.3c2.8-3.2,6.4-4.8,10.8-4.8
		c4.4,0,7.9,1.6,10.7,4.8c2.8,3.2,4.1,7.3,4.1,12.3v0.5C1243.8,249.4,1242.4,253.5,1239.6,256.7L1239.6,256.7z M1222.4,253.1
		c1.7,2.2,3.9,3.3,6.6,3.3s4.9-1.1,6.6-3.3c1.7-2.2,2.5-5.1,2.5-8.6V244c0-3.6-0.9-6.5-2.6-8.7c-1.7-2.2-3.9-3.3-6.6-3.3
		c-2.7,0-4.8,1.1-6.5,3.3c-1.7,2.2-2.5,5.1-2.5,8.7v0.5C1219.9,248,1220.7,250.9,1222.4,253.1L1222.4,253.1z M1252.4,261v-33.6h5.5
		v28.5h14.4v5.1H1252.4L1252.4,261z M1302.6,256.7c-2.8,3.2-6.4,4.8-10.7,4.8c-4.4,0-7.9-1.6-10.7-4.8c-2.8-3.2-4.2-7.3-4.2-12.3
		V244c0-5,1.4-9.1,4.2-12.3c2.8-3.2,6.4-4.8,10.8-4.8c4.4,0,7.9,1.6,10.7,4.8c2.8,3.2,4.1,7.3,4.1,12.3v0.5
		C1306.7,249.4,1305.3,253.5,1302.6,256.7L1302.6,256.7z M1285.4,253.1c1.7,2.2,3.9,3.3,6.6,3.3c2.7,0,4.9-1.1,6.6-3.3
		c1.7-2.2,2.5-5.1,2.5-8.6V244c0-3.6-0.9-6.5-2.6-8.7c-1.7-2.2-3.9-3.3-6.6-3.3c-2.7,0-4.8,1.1-6.5,3.3c-1.7,2.2-2.5,5.1-2.5,8.7
		v0.5C1282.8,248,1283.7,250.9,1285.4,253.1L1285.4,253.1z M1329.4,261.5c-4.5,0-8.2-1.6-11.1-4.7c-2.9-3.1-4.3-7.2-4.3-12.4V244
		c0-4.9,1.4-9,4.3-12.3c2.9-3.2,6.6-4.9,11-4.9c4,0,7.5,1.2,10.4,3.5l-2.6,4.7c-2.4-2-5-2.9-7.9-2.9c-2.7,0-5,1.1-6.8,3.3
		c-1.8,2.2-2.7,5.1-2.7,8.5v0.5c0,3.7,0.9,6.6,2.7,8.8c1.8,2.1,4.1,3.2,7.1,3.2c2.2,0,4.2-0.6,6-1.8v-7.4h-7.1v-4.9h12.4v15.1
		C1337.5,260.1,1333.7,261.5,1329.4,261.5L1329.4,261.5z M1357.2,261v-13.4l-11.3-20.2h6.3l7.8,14.5l7.8-14.5h6.2l-11.2,20.2V261
		H1357.2z"/>
</g>
</svg>
